<svg xmlns="http://www.w3.org/2000/svg" width="960" height="520" viewBox="0 0 960 520"><!-- last_available_at=1730701800 bars=40 --><rect width="960" height="520" fill="#fff"/><text x="72" y="18" font-size="13" font-family="Malgun Gothic, Apple SD Gothic Neo, Noto Sans CJK KR, sans-serif">NAVER 035420.KS · 판정일 2024-11-04 · 40거래일 · A 표시</text><text x="8" y="28" font-size="11" font-family="Malgun Gothic, Apple SD Gothic Neo, Noto Sans CJK KR, sans-serif">180,268</text><text x="8" y="314" font-size="11" font-family="Malgun Gothic, Apple SD Gothic Neo, Noto Sans CJK KR, sans-serif">151,432</text><line x1="82.9" y1="138.8" x2="82.9" y2="180.4" stroke="#2471a3"/><rect x="80.7" y="138.8" width="4.4" height="24.8" fill="#2471a3"/><rect x="80.7" y="381.2" width="4.4" height="20.8" fill="#2471a3"/><line x1="104.7" y1="132.8" x2="104.7" y2="176.5" stroke="#2471a3"/><rect x="102.5" y="157.6" width="4.4" height="18.8" fill="#2471a3"/><rect x="102.5" y="380.0" width="4.4" height="22.0" fill="#2471a3"/><line x1="126.5" y1="203.2" x2="126.5" y2="261.8" stroke="#2471a3"/><rect x="124.3" y="226.0" width="4.4" height="27.8" fill="#2471a3"/><rect x="124.3" y="352.0" width="4.4" height="50.0" fill="#2471a3"/><line x1="148.3" y1="211.2" x2="148.3" y2="248.9" stroke="#c0392b"/><rect x="146.1" y="231.0" width="4.4" height="14.9" fill="#c0392b"/><rect x="146.1" y="367.9" width="4.4" height="34.1" fill="#c0392b"/><line x1="170.1" y1="223.1" x2="170.1" y2="257.8" stroke="#2471a3"/><rect x="167.9" y="227.0" width="4.4" height="29.8" fill="#2471a3"/><rect x="167.9" y="375.3" width="4.4" height="26.7" fill="#2471a3"/><line x1="191.9" y1="273.7" x2="191.9" y2="303.4" stroke="#c0392b"/><rect x="189.7" y="278.6" width="4.4" height="11.9" fill="#c0392b"/><rect x="189.7" y="376.8" width="4.4" height="25.2" fill="#c0392b"/><line x1="213.7" y1="237.9" x2="213.7" y2="264.7" stroke="#c0392b"/><rect x="211.5" y="238.9" width="4.4" height="24.8" fill="#c0392b"/><rect x="211.5" y="362.7" width="4.4" height="39.3" fill="#c0392b"/><line x1="235.5" y1="226.0" x2="235.5" y2="269.7" stroke="#2471a3"/><rect x="233.3" y="256.8" width="4.4" height="7.9" fill="#2471a3"/><rect x="233.3" y="384.5" width="4.4" height="17.5" fill="#2471a3"/><line x1="257.3" y1="229.0" x2="257.3" y2="262.7" stroke="#c0392b"/><rect x="255.1" y="229.0" width="4.4" height="23.8" fill="#c0392b"/><rect x="255.1" y="377.9" width="4.4" height="24.1" fill="#c0392b"/><line x1="279.1" y1="225.1" x2="279.1" y2="239.9" stroke="#c0392b"/><rect x="276.9" y="228.0" width="4.4" height="2.0" fill="#c0392b"/><rect x="276.9" y="387.5" width="4.4" height="14.5" fill="#c0392b"/><line x1="300.9" y1="203.2" x2="300.9" y2="234.0" stroke="#2471a3"/><rect x="298.7" y="210.2" width="4.4" height="12.9" fill="#2471a3"/><rect x="298.7" y="377.1" width="4.4" height="24.9" fill="#2471a3"/><line x1="322.7" y1="175.5" x2="322.7" y2="232.0" stroke="#2471a3"/><rect x="320.5" y="209.2" width="4.4" height="20.8" fill="#2471a3"/><rect x="320.5" y="369.9" width="4.4" height="32.1" fill="#2471a3"/><line x1="344.5" y1="162.6" x2="344.5" y2="230.0" stroke="#c0392b"/><rect x="342.3" y="162.6" width="4.4" height="59.5" fill="#c0392b"/><rect x="342.3" y="362.9" width="4.4" height="39.1" fill="#c0392b"/><line x1="366.3" y1="149.7" x2="366.3" y2="188.4" stroke="#c0392b"/><rect x="364.1" y="149.7" width="4.4" height="13.9" fill="#c0392b"/><rect x="364.1" y="374.8" width="4.4" height="27.2" fill="#c0392b"/><line x1="388.1" y1="131.8" x2="388.1" y2="168.5" stroke="#2471a3"/><rect x="385.9" y="137.8" width="4.4" height="29.8" fill="#2471a3"/><rect x="385.9" y="374.2" width="4.4" height="27.8" fill="#2471a3"/><line x1="409.9" y1="120.9" x2="409.9" y2="158.6" stroke="#c0392b"/><rect x="407.7" y="120.9" width="4.4" height="37.7" fill="#c0392b"/><rect x="407.7" y="373.2" width="4.4" height="28.8" fill="#c0392b"/><line x1="431.7" y1="116.0" x2="431.7" y2="143.7" stroke="#2471a3"/><rect x="429.5" y="120.9" width="4.4" height="5.0" fill="#2471a3"/><rect x="429.5" y="367.3" width="4.4" height="34.7" fill="#2471a3"/><line x1="453.5" y1="57.4" x2="453.5" y2="135.8" stroke="#2471a3"/><rect x="451.3" y="90.2" width="4.4" height="45.6" fill="#2471a3"/><rect x="451.3" y="322.0" width="4.4" height="80.0" fill="#2471a3"/><line x1="475.3" y1="118.9" x2="475.3" y2="148.7" stroke="#c0392b"/><rect x="473.1" y="147.7" width="4.4" height="1.0" fill="#c0392b"/><rect x="473.1" y="363.3" width="4.4" height="38.7" fill="#c0392b"/><line x1="497.1" y1="111.0" x2="497.1" y2="147.7" stroke="#c0392b"/><rect x="494.9" y="122.9" width="4.4" height="13.9" fill="#c0392b"/><rect x="494.9" y="353.9" width="4.4" height="48.1" fill="#c0392b"/><line x1="518.9" y1="111.0" x2="518.9" y2="171.5" stroke="#2471a3"/><rect x="516.7" y="112.0" width="4.4" height="56.5" fill="#2471a3"/><rect x="516.7" y="357.4" width="4.4" height="44.6" fill="#2471a3"/><line x1="540.7" y1="155.6" x2="540.7" y2="178.4" stroke="#2471a3"/><rect x="538.5" y="164.6" width="4.4" height="3.0" fill="#2471a3"/><rect x="538.5" y="365.3" width="4.4" height="36.7" fill="#2471a3"/><line x1="562.5" y1="83.2" x2="562.5" y2="151.7" stroke="#c0392b"/><rect x="560.3" y="106.0" width="4.4" height="44.6" fill="#c0392b"/><rect x="560.3" y="344.1" width="4.4" height="57.9" fill="#c0392b"/><line x1="584.3" y1="95.1" x2="584.3" y2="117.9" stroke="#c0392b"/><rect x="582.1" y="97.1" width="4.4" height="4.0" fill="#c0392b"/><rect x="582.1" y="378.3" width="4.4" height="23.7" fill="#c0392b"/><line x1="606.1" y1="87.2" x2="606.1" y2="130.8" stroke="#c0392b"/><rect x="603.9" y="97.1" width="4.4" height="1.0" fill="#c0392b"/><rect x="603.9" y="374.2" width="4.4" height="27.8" fill="#c0392b"/><line x1="627.9" y1="73.3" x2="627.9" y2="106.0" stroke="#c0392b"/><rect x="625.7" y="78.3" width="4.4" height="27.8" fill="#c0392b"/><rect x="625.7" y="358.6" width="4.4" height="43.4" fill="#c0392b"/><line x1="649.7" y1="53.5" x2="649.7" y2="97.1" stroke="#c0392b"/><rect x="647.5" y="60.4" width="4.4" height="30.7" fill="#c0392b"/><rect x="647.5" y="366.5" width="4.4" height="35.5" fill="#c0392b"/><line x1="671.5" y1="53.5" x2="671.5" y2="80.2" stroke="#2471a3"/><rect x="669.3" y="60.4" width="4.4" height="19.8" fill="#2471a3"/><rect x="669.3" y="378.5" width="4.4" height="23.5" fill="#2471a3"/><line x1="693.3" y1="54.5" x2="693.3" y2="76.3" stroke="#c0392b"/><rect x="691.1" y="62.4" width="4.4" height="3.0" fill="#c0392b"/><rect x="691.1" y="378.6" width="4.4" height="23.4" fill="#c0392b"/><line x1="715.1" y1="38.6" x2="715.1" y2="68.3" stroke="#c0392b"/><rect x="712.9" y="62.4" width="4.4" height="1.0" fill="#c0392b"/><rect x="712.9" y="379.9" width="4.4" height="22.1" fill="#c0392b"/><line x1="736.9" y1="59.4" x2="736.9" y2="121.9" stroke="#2471a3"/><rect x="734.7" y="61.4" width="4.4" height="56.5" fill="#2471a3"/><rect x="734.7" y="370.5" width="4.4" height="31.5" fill="#2471a3"/><line x1="758.7" y1="84.2" x2="758.7" y2="121.9" stroke="#c0392b"/><rect x="756.5" y="105.0" width="4.4" height="5.0" fill="#c0392b"/><rect x="756.5" y="377.8" width="4.4" height="24.2" fill="#c0392b"/><line x1="780.5" y1="96.1" x2="780.5" y2="121.9" stroke="#c0392b"/><rect x="778.3" y="109.0" width="4.4" height="1.0" fill="#c0392b"/><rect x="778.3" y="386.2" width="4.4" height="15.8" fill="#c0392b"/><line x1="802.3" y1="101.1" x2="802.3" y2="158.6" stroke="#2471a3"/><rect x="800.1" y="109.0" width="4.4" height="42.6" fill="#2471a3"/><rect x="800.1" y="376.2" width="4.4" height="25.8" fill="#2471a3"/><line x1="824.1" y1="122.9" x2="824.1" y2="151.7" stroke="#c0392b"/><rect x="821.9" y="125.9" width="4.4" height="25.8" fill="#c0392b"/><rect x="821.9" y="388.9" width="4.4" height="13.1" fill="#c0392b"/><line x1="845.9" y1="112.0" x2="845.9" y2="162.6" stroke="#2471a3"/><rect x="843.7" y="125.9" width="4.4" height="11.9" fill="#2471a3"/><rect x="843.7" y="387.5" width="4.4" height="14.5" fill="#2471a3"/><line x1="867.7" y1="77.3" x2="867.7" y2="124.9" stroke="#c0392b"/><rect x="865.5" y="86.2" width="4.4" height="37.7" fill="#c0392b"/><rect x="865.5" y="372.5" width="4.4" height="29.5" fill="#c0392b"/><line x1="889.5" y1="82.2" x2="889.5" y2="132.8" stroke="#2471a3"/><rect x="887.3" y="109.0" width="4.4" height="20.8" fill="#2471a3"/><rect x="887.3" y="382.1" width="4.4" height="19.9" fill="#2471a3"/><line x1="911.3" y1="121.9" x2="911.3" y2="144.7" stroke="#c0392b"/><rect x="909.1" y="132.8" width="4.4" height="6.9" fill="#c0392b"/><rect x="909.1" y="392.0" width="4.4" height="10.0" fill="#c0392b"/><line x1="933.1" y1="71.3" x2="933.1" y2="128.8" stroke="#c0392b"/><rect x="930.9" y="73.3" width="4.4" height="54.5" fill="#c0392b"/><rect x="930.9" y="373.3" width="4.4" height="28.7" fill="#c0392b"/><polyline fill="none" stroke="#e67e22" stroke-width="1.4" points="82.9,210.5 104.7,206.0 126.5,206.4 148.3,207.8 170.1,210.6 191.9,214.9 213.7,215.5 235.5,215.5 257.3,214.2 279.1,212.9 300.9,210.9 322.7,209.3 344.5,204.2 366.3,202.5 388.1,201.9 409.9,201.8 431.7,200.6 453.5,197.8 475.3,196.1 497.1,195.3 518.9,195.6 540.7,195.2 562.5,187.8 584.3,181.1 606.1,173.1 627.9,163.1 649.7,154.1 671.5,144.9 693.3,136.6 715.1,128.3 736.9,123.0 758.7,116.8 780.5,114.1 802.3,114.2 824.1,112.1 845.9,113.0 867.7,111.0 889.5,110.7 911.3,110.0 933.1,107.5"/><polyline fill="none" stroke="#8e44ad" stroke-width="1.4" points="82.9,155.8 104.7,156.7 126.5,158.8 148.3,160.2 170.1,162.3 191.9,164.8 213.7,165.9 235.5,167.7 257.3,169.0 279.1,170.1 300.9,171.3 322.7,172.8 344.5,172.7 366.3,172.8 388.1,172.7 409.9,172.0 431.7,170.8 453.5,169.2 475.3,167.8 497.1,166.0 518.9,166.3 540.7,167.0 562.5,166.8 584.3,167.5 606.1,167.9 627.9,167.9 649.7,167.7 671.5,167.2 693.3,166.6 715.1,166.3 736.9,166.5 758.7,166.5 780.5,166.3 802.3,166.9 824.1,168.2 845.9,169.1 867.7,169.2 889.5,169.7 911.3,170.4 933.1,170.3"/><circle cx="540.7" cy="178.4" r="5" fill="#1e8449" stroke="#1e8449" stroke-width="2" data-code="S" data-date="2024-10-08" data-price="165100" data-field="low" data-confirmed="1" data-main="1"/><text x="540.7" y="195.4" text-anchor="middle" font-size="12" font-weight="bold" font-family="Malgun Gothic, Apple SD Gothic Neo, Noto Sans CJK KR, sans-serif" fill="#1e8449" stroke="#fff" stroke-width="3" paint-order="stroke">S</text><rect x="188.4" y="299.9" width="7" height="7" fill="#fff" stroke="#1e8449" stroke-width="1.6" data-code="S-a" data-date="2024-09-09" data-price="152500" data-field="low" data-confirmed="1" data-main="0"/><text x="191.9" y="320.4" text-anchor="middle" font-size="10" font-weight="normal" font-family="Malgun Gothic, Apple SD Gothic Neo, Noto Sans CJK KR, sans-serif" fill="#1e8449" stroke="#fff" stroke-width="3" paint-order="stroke">S-a</text><circle cx="715.1" cy="38.6" r="5" fill="#b03a2e" stroke="#b03a2e" stroke-width="2" data-code="H" data-date="2024-10-21" data-price="179200" data-field="high" data-confirmed="1" data-main="1"/><text x="715.1" y="29.6" text-anchor="middle" font-size="12" font-weight="bold" font-family="Malgun Gothic, Apple SD Gothic Neo, Noto Sans CJK KR, sans-serif" fill="#b03a2e" stroke="#fff" stroke-width="3" paint-order="stroke">H</text><rect x="450.0" y="53.9" width="7" height="7" fill="#fff" stroke="#b03a2e" stroke-width="1.6" data-code="H-a" data-date="2024-09-30" data-price="177300" data-field="high" data-confirmed="1" data-main="0"/><text x="453.5" y="48.4" text-anchor="middle" font-size="10" font-weight="normal" font-family="Malgun Gothic, Apple SD Gothic Neo, Noto Sans CJK KR, sans-serif" fill="#b03a2e" stroke="#fff" stroke-width="3" paint-order="stroke">H-a</text><circle cx="845.9" cy="162.6" r="5" fill="#1f618d" stroke="#1f618d" stroke-width="2" data-code="L·P" data-date="2024-10-29" data-price="166700" data-field="low" data-confirmed="1" data-main="1"/><text x="845.9" y="179.6" text-anchor="middle" font-size="12" font-weight="bold" font-family="Malgun Gothic, Apple SD Gothic Neo, Noto Sans CJK KR, sans-serif" fill="#1f618d" stroke="#fff" stroke-width="3" paint-order="stroke">L·P</text><line x1="933.1" y1="28" x2="933.1" y2="314" stroke="#222" stroke-dasharray="3 3"/><line x1="82.9" y1="404" x2="82.9" y2="414" stroke="#bbb"/><text x="82.9" y="418" text-anchor="start" font-size="10" font-family="Malgun Gothic, Apple SD Gothic Neo, Noto Sans CJK KR, sans-serif" fill="#333">2024-09-02</text><line x1="257.3" y1="404" x2="257.3" y2="414" stroke="#bbb"/><text x="257.3" y="418" text-anchor="middle" font-size="10" font-family="Malgun Gothic, Apple SD Gothic Neo, Noto Sans CJK KR, sans-serif" fill="#333">2024-09-12</text><line x1="431.7" y1="404" x2="431.7" y2="414" stroke="#bbb"/><text x="431.7" y="418" text-anchor="middle" font-size="10" font-family="Malgun Gothic, Apple SD Gothic Neo, Noto Sans CJK KR, sans-serif" fill="#333">2024-09-27</text><line x1="606.1" y1="404" x2="606.1" y2="414" stroke="#bbb"/><text x="606.1" y="418" text-anchor="middle" font-size="10" font-family="Malgun Gothic, Apple SD Gothic Neo, Noto Sans CJK KR, sans-serif" fill="#333">2024-10-14</text><line x1="780.5" y1="404" x2="780.5" y2="414" stroke="#bbb"/><text x="780.5" y="418" text-anchor="middle" font-size="10" font-family="Malgun Gothic, Apple SD Gothic Neo, Noto Sans CJK KR, sans-serif" fill="#333">2024-10-24</text><line x1="933.1" y1="404" x2="933.1" y2="414" stroke="#bbb"/><text x="933.1" y="418" text-anchor="end" font-size="10" font-family="Malgun Gothic, Apple SD Gothic Neo, Noto Sans CJK KR, sans-serif" fill="#333">2024-11-04</text><text x="72" y="436" font-size="11" font-family="Malgun Gothic, Apple SD Gothic Neo, Noto Sans CJK KR, sans-serif" fill="#1e8449">S 시작 후보 2024-10-08 · 165,100 · 확정 2024-10-14</text><text x="72" y="449" font-size="11" font-family="Malgun Gothic, Apple SD Gothic Neo, Noto Sans CJK KR, sans-serif" fill="#b03a2e">H 눌림 시작 고점 2024-10-21 · 179,200 · 확정 2024-10-24</text><text x="72" y="462" font-size="11" font-family="Malgun Gothic, Apple SD Gothic Neo, Noto Sans CJK KR, sans-serif" fill="#1f618d">L 관찰 최저점·P 지지 후보 2024-10-29 · 166,700 · 확정 2024-11-01</text><text x="72" y="475" font-size="11" font-family="Malgun Gothic, Apple SD Gothic Neo, Noto Sans CJK KR, sans-serif" fill="#555">대안 S-a 09-09 · H-a 09-30 · P-a 10-08</text><text x="72" y="488" font-size="11" font-family="Malgun Gothic, Apple SD Gothic Neo, Noto Sans CJK KR, sans-serif" fill="#222">재상승 근거 일부 · 눌림 상태 끝났을 수 있음 · 모호함 중간  (●확정 ○관찰만 □대안)</text><text x="72" y="508" font-size="11" font-family="Malgun Gothic, Apple SD Gothic Neo, Noto Sans CJK KR, sans-serif" fill="#333">빨강 상승 · 파랑 하락 · 주황 MA20 · 보라 MA60(60개 이상이 있을 때) · 점선은 판정일. 거래량은 아래 칸. 눈금은 봉 날짜.</text></svg>