<svg xmlns="http://www.w3.org/2000/svg" width="960" height="520" viewBox="0 0 960 520"><!-- last_available_at=1776753000 bars=40 --><rect width="960" height="520" fill="#fff"/><text x="72" y="18" font-size="13" font-family="Malgun Gothic, Apple SD Gothic Neo, Noto Sans CJK KR, sans-serif">LS ELECTRIC 010120.KS · 판정일 2026-04-21 · 40거래일 · A 표시</text><text x="8" y="28" font-size="11" font-family="Malgun Gothic, Apple SD Gothic Neo, Noto Sans CJK KR, sans-serif">203,755</text><text x="8" y="314" font-size="11" font-family="Malgun Gothic, Apple SD Gothic Neo, Noto Sans CJK KR, sans-serif">102,360</text><line x1="82.9" y1="166.1" x2="82.9" y2="197.1" stroke="#c0392b"/><rect x="80.7" y="181.9" width="4.4" height="14.1" fill="#c0392b"/><rect x="80.7" y="373.5" width="4.4" height="28.5" fill="#c0392b"/><line x1="104.7" y1="163.8" x2="104.7" y2="180.8" stroke="#2471a3"/><rect x="102.5" y="166.6" width="4.4" height="11.3" fill="#2471a3"/><rect x="102.5" y="371.4" width="4.4" height="30.6" fill="#2471a3"/><line x1="126.5" y1="137.9" x2="126.5" y2="177.4" stroke="#c0392b"/><rect x="124.3" y="149.7" width="4.4" height="22.6" fill="#c0392b"/><rect x="124.3" y="364.0" width="4.4" height="38.0" fill="#c0392b"/><line x1="148.3" y1="144.6" x2="148.3" y2="162.1" stroke="#2471a3"/><rect x="146.1" y="152.5" width="4.4" height="6.2" fill="#2471a3"/><rect x="146.1" y="365.1" width="4.4" height="36.9" fill="#2471a3"/><line x1="170.1" y1="163.8" x2="170.1" y2="201.6" stroke="#2471a3"/><rect x="167.9" y="164.4" width="4.4" height="35.5" fill="#2471a3"/><rect x="167.9" y="361.0" width="4.4" height="41.0" fill="#2471a3"/><line x1="191.9" y1="205.6" x2="191.9" y2="264.2" stroke="#2471a3"/><rect x="189.7" y="216.9" width="4.4" height="32.7" fill="#2471a3"/><rect x="189.7" y="354.8" width="4.4" height="47.2" fill="#2471a3"/><line x1="213.7" y1="189.2" x2="213.7" y2="212.9" stroke="#2471a3"/><rect x="211.5" y="199.9" width="4.4" height="7.3" fill="#2471a3"/><rect x="211.5" y="371.4" width="4.4" height="30.6" fill="#2471a3"/><line x1="235.5" y1="198.8" x2="235.5" y2="226.4" stroke="#c0392b"/><rect x="233.3" y="205.6" width="4.4" height="11.3" fill="#c0392b"/><rect x="233.3" y="380.3" width="4.4" height="21.7" fill="#c0392b"/><line x1="257.3" y1="207.3" x2="257.3" y2="244.5" stroke="#c0392b"/><rect x="255.1" y="218.5" width="4.4" height="18.6" fill="#c0392b"/><rect x="255.1" y="381.7" width="4.4" height="20.3" fill="#c0392b"/><line x1="279.1" y1="182.4" x2="279.1" y2="204.4" stroke="#c0392b"/><rect x="276.9" y="194.3" width="4.4" height="1.0" fill="#c0392b"/><rect x="276.9" y="378.0" width="4.4" height="24.0" fill="#c0392b"/><line x1="300.9" y1="176.8" x2="300.9" y2="203.3" stroke="#2471a3"/><rect x="298.7" y="181.3" width="4.4" height="14.1" fill="#2471a3"/><rect x="298.7" y="386.0" width="4.4" height="16.0" fill="#2471a3"/><line x1="322.7" y1="179.6" x2="322.7" y2="197.7" stroke="#c0392b"/><rect x="320.5" y="185.3" width="4.4" height="10.7" fill="#c0392b"/><rect x="320.5" y="385.5" width="4.4" height="16.5" fill="#c0392b"/><line x1="344.5" y1="176.2" x2="344.5" y2="201.1" stroke="#c0392b"/><rect x="342.3" y="181.3" width="4.4" height="16.9" fill="#c0392b"/><rect x="342.3" y="383.2" width="4.4" height="18.8" fill="#c0392b"/><line x1="366.3" y1="180.8" x2="366.3" y2="197.7" stroke="#2471a3"/><rect x="364.1" y="182.4" width="4.4" height="6.8" fill="#2471a3"/><rect x="364.1" y="388.7" width="4.4" height="13.3" fill="#2471a3"/><line x1="388.1" y1="161.6" x2="388.1" y2="179.6" stroke="#c0392b"/><rect x="385.9" y="172.9" width="4.4" height="2.8" fill="#c0392b"/><rect x="385.9" y="386.2" width="4.4" height="15.8" fill="#c0392b"/><line x1="409.9" y1="129.4" x2="409.9" y2="160.4" stroke="#c0392b"/><rect x="407.7" y="132.8" width="4.4" height="25.9" fill="#c0392b"/><rect x="407.7" y="374.3" width="4.4" height="27.7" fill="#c0392b"/><line x1="431.7" y1="96.1" x2="431.7" y2="141.3" stroke="#c0392b"/><rect x="429.5" y="110.2" width="4.4" height="30.5" fill="#c0392b"/><rect x="429.5" y="375.1" width="4.4" height="26.9" fill="#c0392b"/><line x1="453.5" y1="91.1" x2="453.5" y2="114.2" stroke="#2471a3"/><rect x="451.3" y="94.4" width="4.4" height="8.5" fill="#2471a3"/><rect x="451.3" y="377.8" width="4.4" height="24.2" fill="#2471a3"/><line x1="475.3" y1="114.7" x2="475.3" y2="138.4" stroke="#2471a3"/><rect x="473.1" y="121.0" width="4.4" height="17.5" fill="#2471a3"/><rect x="473.1" y="380.3" width="4.4" height="21.7" fill="#2471a3"/><line x1="497.1" y1="112.5" x2="497.1" y2="150.9" stroke="#2471a3"/><rect x="494.9" y="116.4" width="4.4" height="27.6" fill="#2471a3"/><rect x="494.9" y="371.4" width="4.4" height="30.6" fill="#2471a3"/><line x1="518.9" y1="106.3" x2="518.9" y2="132.8" stroke="#2471a3"/><rect x="516.7" y="124.3" width="4.4" height="2.3" fill="#2471a3"/><rect x="516.7" y="380.5" width="4.4" height="21.5" fill="#2471a3"/><line x1="540.7" y1="117.0" x2="540.7" y2="136.2" stroke="#2471a3"/><rect x="538.5" y="121.0" width="4.4" height="11.3" fill="#2471a3"/><rect x="538.5" y="387.3" width="4.4" height="14.7" fill="#2471a3"/><line x1="562.5" y1="144.1" x2="562.5" y2="172.9" stroke="#2471a3"/><rect x="560.3" y="149.7" width="4.4" height="1.1" fill="#2471a3"/><rect x="560.3" y="375.3" width="4.4" height="26.7" fill="#2471a3"/><line x1="584.3" y1="158.8" x2="584.3" y2="181.3" stroke="#c0392b"/><rect x="582.1" y="165.5" width="4.4" height="14.7" fill="#c0392b"/><rect x="582.1" y="382.3" width="4.4" height="19.7" fill="#c0392b"/><line x1="606.1" y1="170.6" x2="606.1" y2="199.4" stroke="#2471a3"/><rect x="603.9" y="178.5" width="4.4" height="19.2" fill="#2471a3"/><rect x="603.9" y="368.9" width="4.4" height="33.1" fill="#2471a3"/><line x1="627.9" y1="145.8" x2="627.9" y2="175.1" stroke="#c0392b"/><rect x="625.7" y="154.8" width="4.4" height="13.5" fill="#c0392b"/><rect x="625.7" y="376.7" width="4.4" height="25.3" fill="#c0392b"/><line x1="649.7" y1="136.8" x2="649.7" y2="180.2" stroke="#2471a3"/><rect x="647.5" y="136.8" width="4.4" height="37.8" fill="#2471a3"/><rect x="647.5" y="372.2" width="4.4" height="29.8" fill="#2471a3"/><line x1="671.5" y1="156.5" x2="671.5" y2="186.4" stroke="#2471a3"/><rect x="669.3" y="156.5" width="4.4" height="12.4" fill="#2471a3"/><rect x="669.3" y="386.6" width="4.4" height="15.4" fill="#2471a3"/><line x1="693.3" y1="135.1" x2="693.3" y2="157.1" stroke="#c0392b"/><rect x="691.1" y="152.0" width="4.4" height="1.0" fill="#c0392b"/><rect x="691.1" y="383.7" width="4.4" height="18.3" fill="#c0392b"/><line x1="715.1" y1="139.6" x2="715.1" y2="170.0" stroke="#2471a3"/><rect x="712.9" y="140.1" width="4.4" height="18.1" fill="#2471a3"/><rect x="712.9" y="383.0" width="4.4" height="19.0" fill="#2471a3"/><line x1="736.9" y1="158.2" x2="736.9" y2="158.2" stroke="#c0392b"/><rect x="734.7" y="158.2" width="4.4" height="1.0" fill="#c0392b"/><rect x="734.7" y="401.0" width="4.4" height="1.0" fill="#c0392b"/><line x1="758.7" y1="158.2" x2="758.7" y2="158.2" stroke="#c0392b"/><rect x="756.5" y="158.2" width="4.4" height="1.0" fill="#c0392b"/><rect x="756.5" y="401.0" width="4.4" height="1.0" fill="#c0392b"/><line x1="780.5" y1="158.2" x2="780.5" y2="158.2" stroke="#c0392b"/><rect x="778.3" y="158.2" width="4.4" height="1.0" fill="#c0392b"/><rect x="778.3" y="401.0" width="4.4" height="1.0" fill="#c0392b"/><line x1="802.3" y1="71.6" x2="802.3" y2="119.8" stroke="#c0392b"/><rect x="800.1" y="97.3" width="4.4" height="22.6" fill="#c0392b"/><rect x="800.1" y="322.0" width="4.4" height="80.0" fill="#c0392b"/><line x1="824.1" y1="38.6" x2="824.1" y2="86.3" stroke="#2471a3"/><rect x="821.9" y="38.6" width="4.4" height="40.6" fill="#2471a3"/><rect x="821.9" y="335.2" width="4.4" height="66.8" fill="#2471a3"/><line x1="845.9" y1="63.4" x2="845.9" y2="82.6" stroke="#2471a3"/><rect x="843.7" y="63.4" width="4.4" height="12.4" fill="#2471a3"/><rect x="843.7" y="369.7" width="4.4" height="32.3" fill="#2471a3"/><line x1="867.7" y1="62.0" x2="867.7" y2="76.7" stroke="#2471a3"/><rect x="865.5" y="68.5" width="4.4" height="2.3" fill="#2471a3"/><rect x="865.5" y="378.8" width="4.4" height="23.2" fill="#2471a3"/><line x1="889.5" y1="65.4" x2="889.5" y2="78.4" stroke="#2471a3"/><rect x="887.3" y="70.2" width="4.4" height="6.5" fill="#2471a3"/><rect x="887.3" y="376.2" width="4.4" height="25.8" fill="#2471a3"/><line x1="911.3" y1="72.4" x2="911.3" y2="85.1" stroke="#2471a3"/><rect x="909.1" y="74.1" width="4.4" height="9.0" fill="#2471a3"/><rect x="909.1" y="380.5" width="4.4" height="21.5" fill="#2471a3"/><line x1="933.1" y1="75.8" x2="933.1" y2="87.7" stroke="#2471a3"/><rect x="930.9" y="79.5" width="4.4" height="2.3" fill="#2471a3"/><rect x="930.9" y="377.4" width="4.4" height="24.6" fill="#2471a3"/><polyline fill="none" stroke="#e67e22" stroke-width="1.4" points="82.9,254.4 104.7,247.5 126.5,239.0 148.3,231.9 170.1,227.9 191.9,226.0 213.7,222.2 235.5,217.1 257.3,215.2 279.1,212.8 300.9,209.9 322.7,205.8 344.5,203.0 366.3,200.2 388.1,197.6 409.9,193.0 431.7,187.0 453.5,181.1 475.3,177.4 497.1,174.8 518.9,172.0 540.7,169.8 562.5,169.8 584.3,170.1 606.1,170.0 627.9,165.3 649.7,163.7 671.5,161.8 693.3,158.5 715.1,156.7 736.9,154.8 758.7,153.5 780.5,152.3 802.3,147.7 824.1,143.0 845.9,140.2 867.7,138.2 889.5,136.9 911.3,134.1 933.1,131.0"/><polyline fill="none" stroke="#8e44ad" stroke-width="1.4" points="82.9,303.4 104.7,300.5 126.5,297.1 148.3,294.1 170.1,291.7 191.9,290.0 213.7,287.9 235.5,285.7 257.3,283.9 279.1,282.0 300.9,280.0 322.7,277.7 344.5,275.4 366.3,273.2 388.1,270.8 409.9,267.5 431.7,263.8 453.5,259.9 475.3,256.5 497.1,253.3 518.9,249.8 540.7,246.3 562.5,243.2 584.3,240.2 606.1,237.9 627.9,234.7 649.7,232.2 671.5,229.8 693.3,226.9 715.1,223.9 736.9,221.1 758.7,218.1 780.5,215.4 802.3,211.6 824.1,208.0 845.9,204.1 867.7,200.3 889.5,196.5 911.3,192.8 933.1,188.9"/><circle cx="606.1" cy="199.4" r="5" fill="#1e8449" stroke="#1e8449" stroke-width="2" data-code="S" data-date="2026-03-31" data-price="143000" data-field="low" data-confirmed="1" data-main="1"/><text x="606.1" y="216.4" text-anchor="middle" font-size="12" font-weight="bold" font-family="Malgun Gothic, Apple SD Gothic Neo, Noto Sans CJK KR, sans-serif" fill="#1e8449" stroke="#fff" stroke-width="3" paint-order="stroke">S</text><rect x="188.4" y="260.7" width="7" height="7" fill="#fff" stroke="#1e8449" stroke-width="1.6" data-code="S-a" data-date="2026-03-04" data-price="120000" data-field="low" data-confirmed="1" data-main="0"/><text x="191.9" y="281.2" text-anchor="middle" font-size="10" font-weight="normal" font-family="Malgun Gothic, Apple SD Gothic Neo, Noto Sans CJK KR, sans-serif" fill="#1e8449" stroke="#fff" stroke-width="3" paint-order="stroke">S-a</text><circle cx="824.1" cy="38.6" r="5" fill="#b03a2e" stroke="#b03a2e" stroke-width="2" data-code="H" data-date="2026-04-14" data-price="200000" data-field="high" data-confirmed="1" data-main="1"/><text x="824.1" y="29.6" text-anchor="middle" font-size="12" font-weight="bold" font-family="Malgun Gothic, Apple SD Gothic Neo, Noto Sans CJK KR, sans-serif" fill="#b03a2e" stroke="#fff" stroke-width="3" paint-order="stroke">H</text><rect x="450.0" y="87.6" width="7" height="7" fill="#fff" stroke="#b03a2e" stroke-width="1.6" data-code="H-a" data-date="2026-03-20" data-price="181400" data-field="high" data-confirmed="1" data-main="0"/><text x="453.5" y="82.1" text-anchor="middle" font-size="10" font-weight="normal" font-family="Malgun Gothic, Apple SD Gothic Neo, Noto Sans CJK KR, sans-serif" fill="#b03a2e" stroke="#fff" stroke-width="3" paint-order="stroke">H-a</text><circle cx="933.1" cy="87.7" r="5" fill="#fff" stroke="#1f618d" stroke-width="2" data-code="L·P" data-date="2026-04-21" data-price="182600" data-field="low" data-confirmed="0" data-main="1"/><text x="933.1" y="104.7" text-anchor="middle" font-size="12" font-weight="bold" font-family="Malgun Gothic, Apple SD Gothic Neo, Noto Sans CJK KR, sans-serif" fill="#1f618d" stroke="#fff" stroke-width="3" paint-order="stroke">L·P</text><line x1="933.1" y1="28" x2="933.1" y2="314" stroke="#222" stroke-dasharray="3 3"/><line x1="82.9" y1="404" x2="82.9" y2="414" stroke="#bbb"/><text x="82.9" y="418" text-anchor="start" font-size="10" font-family="Malgun Gothic, Apple SD Gothic Neo, Noto Sans CJK KR, sans-serif" fill="#333">2026-02-24</text><line x1="257.3" y1="404" x2="257.3" y2="414" stroke="#bbb"/><text x="257.3" y="418" text-anchor="middle" font-size="10" font-family="Malgun Gothic, Apple SD Gothic Neo, Noto Sans CJK KR, sans-serif" fill="#333">2026-03-09</text><line x1="431.7" y1="404" x2="431.7" y2="414" stroke="#bbb"/><text x="431.7" y="418" text-anchor="middle" font-size="10" font-family="Malgun Gothic, Apple SD Gothic Neo, Noto Sans CJK KR, sans-serif" fill="#333">2026-03-19</text><line x1="606.1" y1="404" x2="606.1" y2="414" stroke="#bbb"/><text x="606.1" y="418" text-anchor="middle" font-size="10" font-family="Malgun Gothic, Apple SD Gothic Neo, Noto Sans CJK KR, sans-serif" fill="#333">2026-03-31</text><line x1="780.5" y1="404" x2="780.5" y2="414" stroke="#bbb"/><text x="780.5" y="418" text-anchor="middle" font-size="10" font-family="Malgun Gothic, Apple SD Gothic Neo, Noto Sans CJK KR, sans-serif" fill="#333">2026-04-10</text><line x1="933.1" y1="404" x2="933.1" y2="414" stroke="#bbb"/><text x="933.1" y="418" text-anchor="end" font-size="10" font-family="Malgun Gothic, Apple SD Gothic Neo, Noto Sans CJK KR, sans-serif" fill="#333">2026-04-21</text><text x="72" y="436" font-size="11" font-family="Malgun Gothic, Apple SD Gothic Neo, Noto Sans CJK KR, sans-serif" fill="#1e8449">S 시작 후보 2026-03-31 · 143,000 · 확정 2026-04-03</text><text x="72" y="449" font-size="11" font-family="Malgun Gothic, Apple SD Gothic Neo, Noto Sans CJK KR, sans-serif" fill="#b03a2e">H 눌림 시작 고점 2026-04-14 · 200,000 · 확정 2026-04-17</text><text x="72" y="462" font-size="11" font-family="Malgun Gothic, Apple SD Gothic Neo, Noto Sans CJK KR, sans-serif" fill="#1f618d">L 관찰 최저점·P 지지 후보 2026-04-21 · 182,600 · 관찰만</text><text x="72" y="475" font-size="11" font-family="Malgun Gothic, Apple SD Gothic Neo, Noto Sans CJK KR, sans-serif" fill="#555">대안 S-a 03-04 · H-a 03-20 · P-a 03-31</text><text x="72" y="488" font-size="11" font-family="Malgun Gothic, Apple SD Gothic Neo, Noto Sans CJK KR, sans-serif" fill="#222">재상승 근거 확인 안 됨 · 눌림 상태 진행 중으로 봄 · 모호함 낮음  (●확정 ○관찰만 □대안)</text><text x="72" y="508" font-size="11" font-family="Malgun Gothic, Apple SD Gothic Neo, Noto Sans CJK KR, sans-serif" fill="#333">빨강 상승 · 파랑 하락 · 주황 MA20 · 보라 MA60(60개 이상이 있을 때) · 점선은 판정일. 거래량은 아래 칸. 눈금은 봉 날짜.</text></svg>