<svg xmlns="http://www.w3.org/2000/svg" width="960" height="520" viewBox="0 0 960 520"><!-- last_available_at=1753079400 bars=40 --><rect width="960" height="520" fill="#fff"/><text x="72" y="18" font-size="13" font-family="Malgun Gothic, Apple SD Gothic Neo, Noto Sans CJK KR, sans-serif">센서뷰 321370.KQ · 판정일 2025-07-21 · 40거래일 · A 표시</text><text x="8" y="28" font-size="11" font-family="Malgun Gothic, Apple SD Gothic Neo, Noto Sans CJK KR, sans-serif">9,070</text><text x="8" y="314" font-size="11" font-family="Malgun Gothic, Apple SD Gothic Neo, Noto Sans CJK KR, sans-serif">5,555</text><line x1="82.9" y1="284.7" x2="82.9" y2="303.4" stroke="#c0392b"/><rect x="80.7" y="292.4" width="4.4" height="1.6" fill="#c0392b"/><rect x="80.7" y="401.0" width="4.4" height="1.0" fill="#c0392b"/><line x1="104.7" y1="281.8" x2="104.7" y2="292.4" stroke="#c0392b"/><rect x="102.5" y="285.9" width="4.4" height="6.5" fill="#c0392b"/><rect x="102.5" y="401.0" width="4.4" height="1.0" fill="#c0392b"/><line x1="126.5" y1="283.1" x2="126.5" y2="301.4" stroke="#2471a3"/><rect x="124.3" y="290.0" width="4.4" height="4.9" fill="#2471a3"/><rect x="124.3" y="401.0" width="4.4" height="1.0" fill="#2471a3"/><line x1="148.3" y1="279.8" x2="148.3" y2="294.9" stroke="#c0392b"/><rect x="146.1" y="282.7" width="4.4" height="12.2" fill="#c0392b"/><rect x="146.1" y="401.0" width="4.4" height="1.0" fill="#c0392b"/><line x1="170.1" y1="277.4" x2="170.1" y2="287.9" stroke="#2471a3"/><rect x="167.9" y="280.6" width="4.4" height="1.2" fill="#2471a3"/><rect x="167.9" y="401.0" width="4.4" height="1.0" fill="#2471a3"/><line x1="191.9" y1="254.2" x2="191.9" y2="287.9" stroke="#c0392b"/><rect x="189.7" y="268.8" width="4.4" height="13.0" fill="#c0392b"/><rect x="189.7" y="400.7" width="4.4" height="1.3" fill="#c0392b"/><line x1="213.7" y1="261.9" x2="213.7" y2="273.7" stroke="#2471a3"/><rect x="211.5" y="268.4" width="4.4" height="2.0" fill="#2471a3"/><rect x="211.5" y="401.0" width="4.4" height="1.0" fill="#2471a3"/><line x1="235.5" y1="266.0" x2="235.5" y2="276.2" stroke="#c0392b"/><rect x="233.3" y="270.5" width="4.4" height="1.0" fill="#c0392b"/><rect x="233.3" y="401.0" width="4.4" height="1.0" fill="#c0392b"/><line x1="257.3" y1="265.6" x2="257.3" y2="272.9" stroke="#2471a3"/><rect x="255.1" y="265.6" width="4.4" height="5.7" fill="#2471a3"/><rect x="255.1" y="401.0" width="4.4" height="1.0" fill="#2471a3"/><line x1="279.1" y1="263.5" x2="279.1" y2="275.7" stroke="#2471a3"/><rect x="276.9" y="266.0" width="4.4" height="2.4" fill="#2471a3"/><rect x="276.9" y="401.0" width="4.4" height="1.0" fill="#2471a3"/><line x1="300.9" y1="259.5" x2="300.9" y2="274.1" stroke="#c0392b"/><rect x="298.7" y="261.5" width="4.4" height="6.9" fill="#c0392b"/><rect x="298.7" y="401.0" width="4.4" height="1.0" fill="#c0392b"/><line x1="322.7" y1="248.1" x2="322.7" y2="264.8" stroke="#c0392b"/><rect x="320.5" y="257.4" width="4.4" height="4.1" fill="#c0392b"/><rect x="320.5" y="401.0" width="4.4" height="1.0" fill="#c0392b"/><line x1="344.5" y1="254.2" x2="344.5" y2="263.5" stroke="#c0392b"/><rect x="342.3" y="257.4" width="4.4" height="1.2" fill="#c0392b"/><rect x="342.3" y="401.0" width="4.4" height="1.0" fill="#c0392b"/><line x1="366.3" y1="255.4" x2="366.3" y2="266.8" stroke="#c0392b"/><rect x="364.1" y="257.4" width="4.4" height="1.0" fill="#c0392b"/><rect x="364.1" y="401.0" width="4.4" height="1.0" fill="#c0392b"/><line x1="388.1" y1="229.0" x2="388.1" y2="297.7" stroke="#c0392b"/><rect x="385.9" y="253.8" width="4.4" height="3.7" fill="#c0392b"/><rect x="385.9" y="400.9" width="4.4" height="1.1" fill="#c0392b"/><line x1="409.9" y1="247.3" x2="409.9" y2="264.8" stroke="#2471a3"/><rect x="407.7" y="253.8" width="4.4" height="8.1" fill="#2471a3"/><rect x="407.7" y="401.0" width="4.4" height="1.0" fill="#2471a3"/><line x1="431.7" y1="248.5" x2="431.7" y2="266.4" stroke="#c0392b"/><rect x="429.5" y="255.4" width="4.4" height="8.1" fill="#c0392b"/><rect x="429.5" y="401.0" width="4.4" height="1.0" fill="#c0392b"/><line x1="453.5" y1="247.7" x2="453.5" y2="261.5" stroke="#c0392b"/><rect x="451.3" y="255.4" width="4.4" height="1.0" fill="#c0392b"/><rect x="451.3" y="401.0" width="4.4" height="1.0" fill="#c0392b"/><line x1="475.3" y1="251.3" x2="475.3" y2="262.7" stroke="#c0392b"/><rect x="473.1" y="254.2" width="4.4" height="1.2" fill="#c0392b"/><rect x="473.1" y="401.0" width="4.4" height="1.0" fill="#c0392b"/><line x1="497.1" y1="241.2" x2="497.1" y2="263.5" stroke="#c0392b"/><rect x="494.9" y="249.3" width="4.4" height="5.3" fill="#c0392b"/><rect x="494.9" y="401.0" width="4.4" height="1.0" fill="#c0392b"/><line x1="518.9" y1="244.0" x2="518.9" y2="259.5" stroke="#2471a3"/><rect x="516.7" y="244.0" width="4.4" height="10.2" fill="#2471a3"/><rect x="516.7" y="401.0" width="4.4" height="1.0" fill="#2471a3"/><line x1="540.7" y1="122.4" x2="540.7" y2="237.1" stroke="#c0392b"/><rect x="538.5" y="193.6" width="4.4" height="43.5" fill="#c0392b"/><rect x="538.5" y="368.0" width="4.4" height="34.0" fill="#c0392b"/><line x1="562.5" y1="38.6" x2="562.5" y2="204.6" stroke="#c0392b"/><rect x="560.3" y="124.0" width="4.4" height="69.6" fill="#c0392b"/><rect x="560.3" y="322.0" width="4.4" height="80.0" fill="#c0392b"/><line x1="584.3" y1="126.5" x2="584.3" y2="193.2" stroke="#2471a3"/><rect x="582.1" y="127.3" width="4.4" height="54.9" fill="#2471a3"/><rect x="582.1" y="390.0" width="4.4" height="12.0" fill="#2471a3"/><line x1="606.1" y1="135.4" x2="606.1" y2="203.7" stroke="#c0392b"/><rect x="603.9" y="165.1" width="4.4" height="9.8" fill="#c0392b"/><rect x="603.9" y="392.6" width="4.4" height="9.4" fill="#c0392b"/><line x1="627.9" y1="147.6" x2="627.9" y2="179.7" stroke="#c0392b"/><rect x="625.7" y="161.8" width="4.4" height="3.3" fill="#c0392b"/><rect x="625.7" y="397.5" width="4.4" height="4.5" fill="#c0392b"/><line x1="649.7" y1="149.6" x2="649.7" y2="194.0" stroke="#2471a3"/><rect x="647.5" y="161.8" width="4.4" height="5.3" fill="#2471a3"/><rect x="647.5" y="399.6" width="4.4" height="2.4" fill="#2471a3"/><line x1="671.5" y1="149.2" x2="671.5" y2="170.0" stroke="#2471a3"/><rect x="669.3" y="167.1" width="4.4" height="2.0" fill="#2471a3"/><rect x="669.3" y="399.5" width="4.4" height="2.5" fill="#2471a3"/><line x1="693.3" y1="155.7" x2="693.3" y2="179.7" stroke="#2471a3"/><rect x="691.1" y="163.9" width="4.4" height="4.5" fill="#2471a3"/><rect x="691.1" y="400.5" width="4.4" height="1.5" fill="#2471a3"/><line x1="715.1" y1="151.7" x2="715.1" y2="187.9" stroke="#2471a3"/><rect x="712.9" y="174.5" width="4.4" height="10.2" fill="#2471a3"/><rect x="712.9" y="400.2" width="4.4" height="1.8" fill="#2471a3"/><line x1="736.9" y1="164.3" x2="736.9" y2="183.8" stroke="#c0392b"/><rect x="734.7" y="165.9" width="4.4" height="14.6" fill="#c0392b"/><rect x="734.7" y="400.4" width="4.4" height="1.6" fill="#c0392b"/><line x1="758.7" y1="156.2" x2="758.7" y2="183.8" stroke="#2471a3"/><rect x="756.5" y="156.2" width="4.4" height="23.2" fill="#2471a3"/><rect x="756.5" y="400.7" width="4.4" height="1.3" fill="#2471a3"/><line x1="780.5" y1="170.0" x2="780.5" y2="184.6" stroke="#2471a3"/><rect x="778.3" y="170.0" width="4.4" height="13.4" fill="#2471a3"/><rect x="778.3" y="401.0" width="4.4" height="1.0" fill="#2471a3"/><line x1="802.3" y1="178.5" x2="802.3" y2="193.2" stroke="#c0392b"/><rect x="800.1" y="183.4" width="4.4" height="2.4" fill="#c0392b"/><rect x="800.1" y="400.9" width="4.4" height="1.1" fill="#c0392b"/><line x1="824.1" y1="176.5" x2="824.1" y2="190.7" stroke="#c0392b"/><rect x="821.9" y="176.5" width="4.4" height="6.9" fill="#c0392b"/><rect x="821.9" y="401.0" width="4.4" height="1.0" fill="#c0392b"/><line x1="845.9" y1="167.1" x2="845.9" y2="192.4" stroke="#2471a3"/><rect x="843.7" y="167.5" width="4.4" height="9.4" fill="#2471a3"/><rect x="843.7" y="401.0" width="4.4" height="1.0" fill="#2471a3"/><line x1="867.7" y1="176.1" x2="867.7" y2="194.0" stroke="#2471a3"/><rect x="865.5" y="181.8" width="4.4" height="2.8" fill="#2471a3"/><rect x="865.5" y="401.0" width="4.4" height="1.0" fill="#2471a3"/><line x1="889.5" y1="181.4" x2="889.5" y2="198.5" stroke="#2471a3"/><rect x="887.3" y="184.6" width="4.4" height="4.5" fill="#2471a3"/><rect x="887.3" y="400.8" width="4.4" height="1.2" fill="#2471a3"/><line x1="911.3" y1="179.3" x2="911.3" y2="193.2" stroke="#c0392b"/><rect x="909.1" y="188.7" width="4.4" height="3.7" fill="#c0392b"/><rect x="909.1" y="401.0" width="4.4" height="1.0" fill="#c0392b"/><line x1="933.1" y1="154.5" x2="933.1" y2="196.4" stroke="#c0392b"/><rect x="930.9" y="161.0" width="4.4" height="27.7" fill="#c0392b"/><rect x="930.9" y="399.9" width="4.4" height="2.1" fill="#c0392b"/><polyline fill="none" stroke="#e67e22" stroke-width="1.4" points="82.9,269.9 104.7,271.7 126.5,274.0 148.3,275.8 170.1,277.2 191.9,277.7 213.7,278.3 235.5,278.7 257.3,279.1 279.1,279.5 300.9,279.5 322.7,279.3 344.5,279.0 366.3,278.8 388.1,277.9 409.9,276.6 431.7,274.3 453.5,272.2 475.3,270.2 497.1,267.5 518.9,265.6 540.7,261.0 562.5,252.5 584.3,247.5 606.1,241.6 627.9,236.3 649.7,231.1 671.5,226.0 693.3,220.9 715.1,216.7 736.9,211.9 758.7,208.0 780.5,204.3 802.3,200.6 824.1,196.7 845.9,192.5 867.7,189.0 889.5,185.6 911.3,182.4 933.1,178.0"/><polyline fill="none" stroke="#8e44ad" stroke-width="1.4" points="82.9,249.4 104.7,251.2 126.5,253.1 148.3,254.6 170.1,256.2 191.9,257.5 213.7,258.5 235.5,259.5 257.3,260.7 279.1,261.4 300.9,262.0 322.7,262.6 344.5,263.1 366.3,263.4 388.1,266.4 409.9,267.5 431.7,267.9 453.5,268.4 475.3,268.6 497.1,268.7 518.9,268.8 540.7,268.0 562.5,266.3 584.3,265.1 606.1,263.4 627.9,261.9 649.7,260.4 671.5,258.8 693.3,257.1 715.1,255.3 736.9,252.9 758.7,250.6 780.5,248.7 802.3,247.0 824.1,245.3 845.9,243.8 867.7,242.2 889.5,240.8 911.3,239.5 933.1,238.0"/><circle cx="388.1" cy="297.7" r="5" fill="#1e8449" stroke="#1e8449" stroke-width="2" data-code="S" data-date="2025-06-16" data-price="5755" data-field="low" data-confirmed="1" data-main="1"/><text x="388.1" y="314.7" text-anchor="middle" font-size="12" font-weight="bold" font-family="Malgun Gothic, Apple SD Gothic Neo, Noto Sans CJK KR, sans-serif" fill="#1e8449" stroke="#fff" stroke-width="3" paint-order="stroke">S</text><circle cx="562.5" cy="38.6" r="5" fill="#b03a2e" stroke="#b03a2e" stroke-width="2" data-code="H" data-date="2025-06-26" data-price="8940" data-field="high" data-confirmed="1" data-main="1"/><text x="562.5" y="29.6" text-anchor="middle" font-size="12" font-weight="bold" font-family="Malgun Gothic, Apple SD Gothic Neo, Noto Sans CJK KR, sans-serif" fill="#b03a2e" stroke="#fff" stroke-width="3" paint-order="stroke">H</text><rect x="842.4" y="163.6" width="7" height="7" fill="#fff" stroke="#b03a2e" stroke-width="1.6" data-code="H-a" data-date="2025-07-15" data-price="7360" data-field="high" data-confirmed="1" data-main="0"/><text x="845.9" y="158.1" text-anchor="middle" font-size="10" font-weight="normal" font-family="Malgun Gothic, Apple SD Gothic Neo, Noto Sans CJK KR, sans-serif" fill="#b03a2e" stroke="#fff" stroke-width="3" paint-order="stroke">H-a</text><circle cx="606.1" cy="203.7" r="5" fill="#fff" stroke="#1f618d" stroke-width="2" data-code="L·P" data-date="2025-06-30" data-price="6910" data-field="low" data-confirmed="0" data-main="1"/><text x="606.1" y="220.7" text-anchor="middle" font-size="12" font-weight="bold" font-family="Malgun Gothic, Apple SD Gothic Neo, Noto Sans CJK KR, sans-serif" fill="#1f618d" stroke="#fff" stroke-width="3" paint-order="stroke">L·P</text><line x1="933.1" y1="28" x2="933.1" y2="314" stroke="#222" stroke-dasharray="3 3"/><line x1="82.9" y1="404" x2="82.9" y2="414" stroke="#bbb"/><text x="82.9" y="418" text-anchor="start" font-size="10" font-family="Malgun Gothic, Apple SD Gothic Neo, Noto Sans CJK KR, sans-serif" fill="#333">2025-05-23</text><line x1="257.3" y1="404" x2="257.3" y2="414" stroke="#bbb"/><text x="257.3" y="418" text-anchor="middle" font-size="10" font-family="Malgun Gothic, Apple SD Gothic Neo, Noto Sans CJK KR, sans-serif" fill="#333">2025-06-05</text><line x1="431.7" y1="404" x2="431.7" y2="414" stroke="#bbb"/><text x="431.7" y="418" text-anchor="middle" font-size="10" font-family="Malgun Gothic, Apple SD Gothic Neo, Noto Sans CJK KR, sans-serif" fill="#333">2025-06-18</text><line x1="606.1" y1="404" x2="606.1" y2="414" stroke="#bbb"/><text x="606.1" y="418" text-anchor="middle" font-size="10" font-family="Malgun Gothic, Apple SD Gothic Neo, Noto Sans CJK KR, sans-serif" fill="#333">2025-06-30</text><line x1="780.5" y1="404" x2="780.5" y2="414" stroke="#bbb"/><text x="780.5" y="418" text-anchor="middle" font-size="10" font-family="Malgun Gothic, Apple SD Gothic Neo, Noto Sans CJK KR, sans-serif" fill="#333">2025-07-10</text><line x1="933.1" y1="404" x2="933.1" y2="414" stroke="#bbb"/><text x="933.1" y="418" text-anchor="end" font-size="10" font-family="Malgun Gothic, Apple SD Gothic Neo, Noto Sans CJK KR, sans-serif" fill="#333">2025-07-21</text><text x="72" y="436" font-size="11" font-family="Malgun Gothic, Apple SD Gothic Neo, Noto Sans CJK KR, sans-serif" fill="#1e8449">S 시작 후보 2025-06-16 · 5,755 · 확정 2025-06-19</text><text x="72" y="449" font-size="11" font-family="Malgun Gothic, Apple SD Gothic Neo, Noto Sans CJK KR, sans-serif" fill="#b03a2e">H 눌림 시작 고점 2025-06-26 · 8,940 · 확정 2025-07-01</text><text x="72" y="462" font-size="11" font-family="Malgun Gothic, Apple SD Gothic Neo, Noto Sans CJK KR, sans-serif" fill="#1f618d">L 관찰 최저점·P 지지 후보 2025-06-30 · 6,910 · 관찰만</text><text x="72" y="475" font-size="11" font-family="Malgun Gothic, Apple SD Gothic Neo, Noto Sans CJK KR, sans-serif" fill="#555">대안 S-a 04-09(창 밖) · H-a 07-15 · P-a 06-16</text><text x="72" y="488" font-size="11" font-family="Malgun Gothic, Apple SD Gothic Neo, Noto Sans CJK KR, sans-serif" fill="#222">재상승 근거 일부 · 눌림 상태 끝났을 수 있음 · 모호함 높음  (●확정 ○관찰만 □대안)</text><text x="72" y="508" font-size="11" font-family="Malgun Gothic, Apple SD Gothic Neo, Noto Sans CJK KR, sans-serif" fill="#333">빨강 상승 · 파랑 하락 · 주황 MA20 · 보라 MA60(60개 이상이 있을 때) · 점선은 판정일. 거래량은 아래 칸. 눈금은 봉 날짜.</text></svg>