<svg xmlns="http://www.w3.org/2000/svg" width="960" height="520" viewBox="0 0 960 520"><!-- last_available_at=1741588200 bars=40 --><rect width="960" height="520" fill="#fff"/><text x="72" y="18" font-size="13" font-family="Malgun Gothic, Apple SD Gothic Neo, Noto Sans CJK KR, sans-serif">하나마이크론 067310.KQ · 판정일 2025-03-10 · 40거래일 · A 표시</text><text x="8" y="28" font-size="11" font-family="Malgun Gothic, Apple SD Gothic Neo, Noto Sans CJK KR, sans-serif">13,455</text><text x="8" y="314" font-size="11" font-family="Malgun Gothic, Apple SD Gothic Neo, Noto Sans CJK KR, sans-serif">9,275</text><line x1="82.9" y1="170.7" x2="82.9" y2="217.2" stroke="#2471a3"/><rect x="80.7" y="171.3" width="4.4" height="32.2" fill="#2471a3"/><rect x="80.7" y="388.0" width="4.4" height="14.0" fill="#2471a3"/><line x1="104.7" y1="137.8" x2="104.7" y2="230.2" stroke="#c0392b"/><rect x="102.5" y="163.8" width="4.4" height="54.1" fill="#c0392b"/><rect x="102.5" y="371.1" width="4.4" height="30.9" fill="#c0392b"/><line x1="126.5" y1="157.0" x2="126.5" y2="192.6" stroke="#2471a3"/><rect x="124.3" y="158.3" width="4.4" height="31.5" fill="#2471a3"/><rect x="124.3" y="388.7" width="4.4" height="13.3" fill="#2471a3"/><line x1="148.3" y1="178.9" x2="148.3" y2="209.0" stroke="#2471a3"/><rect x="146.1" y="189.8" width="4.4" height="13.7" fill="#2471a3"/><rect x="146.1" y="393.3" width="4.4" height="8.7" fill="#2471a3"/><line x1="170.1" y1="202.8" x2="170.1" y2="232.2" stroke="#2471a3"/><rect x="167.9" y="219.2" width="4.4" height="6.8" fill="#2471a3"/><rect x="167.9" y="395.0" width="4.4" height="7.0" fill="#2471a3"/><line x1="191.9" y1="210.3" x2="191.9" y2="238.4" stroke="#2471a3"/><rect x="189.7" y="219.9" width="4.4" height="1.4" fill="#2471a3"/><rect x="189.7" y="395.3" width="4.4" height="6.7" fill="#2471a3"/><line x1="213.7" y1="148.8" x2="213.7" y2="212.4" stroke="#c0392b"/><rect x="211.5" y="164.5" width="4.4" height="46.5" fill="#c0392b"/><rect x="211.5" y="362.1" width="4.4" height="39.9" fill="#c0392b"/><line x1="235.5" y1="61.2" x2="235.5" y2="148.8" stroke="#c0392b"/><rect x="233.3" y="105.7" width="4.4" height="33.5" fill="#c0392b"/><rect x="233.3" y="342.6" width="4.4" height="59.4" fill="#c0392b"/><line x1="257.3" y1="94.7" x2="257.3" y2="121.4" stroke="#c0392b"/><rect x="255.1" y="102.2" width="4.4" height="4.1" fill="#c0392b"/><rect x="255.1" y="386.4" width="4.4" height="15.6" fill="#c0392b"/><line x1="279.1" y1="142.6" x2="279.1" y2="241.8" stroke="#2471a3"/><rect x="276.9" y="149.4" width="4.4" height="69.8" fill="#2471a3"/><rect x="276.9" y="322.0" width="4.4" height="80.0" fill="#2471a3"/><line x1="300.9" y1="182.3" x2="300.9" y2="220.6" stroke="#c0392b"/><rect x="298.7" y="195.3" width="4.4" height="16.4" fill="#c0392b"/><rect x="298.7" y="368.6" width="4.4" height="33.4" fill="#c0392b"/><line x1="322.7" y1="167.9" x2="322.7" y2="215.1" stroke="#c0392b"/><rect x="320.5" y="191.2" width="4.4" height="4.8" fill="#c0392b"/><rect x="320.5" y="383.7" width="4.4" height="18.3" fill="#c0392b"/><line x1="344.5" y1="181.6" x2="344.5" y2="232.2" stroke="#2471a3"/><rect x="342.3" y="181.6" width="4.4" height="45.2" fill="#2471a3"/><rect x="342.3" y="385.6" width="4.4" height="16.4" fill="#2471a3"/><line x1="366.3" y1="172.0" x2="366.3" y2="226.1" stroke="#c0392b"/><rect x="364.1" y="189.1" width="4.4" height="37.0" fill="#c0392b"/><rect x="364.1" y="377.1" width="4.4" height="24.9" fill="#c0392b"/><line x1="388.1" y1="204.2" x2="388.1" y2="250.0" stroke="#2471a3"/><rect x="385.9" y="211.0" width="4.4" height="36.3" fill="#2471a3"/><rect x="385.9" y="383.7" width="4.4" height="18.3" fill="#2471a3"/><line x1="409.9" y1="264.4" x2="409.9" y2="303.4" stroke="#2471a3"/><rect x="407.7" y="265.1" width="4.4" height="33.5" fill="#2471a3"/><rect x="407.7" y="385.7" width="4.4" height="16.3" fill="#2471a3"/><line x1="431.7" y1="263.7" x2="431.7" y2="291.1" stroke="#c0392b"/><rect x="429.5" y="275.4" width="4.4" height="15.7" fill="#c0392b"/><rect x="429.5" y="392.4" width="4.4" height="9.6" fill="#c0392b"/><line x1="453.5" y1="252.8" x2="453.5" y2="268.5" stroke="#c0392b"/><rect x="451.3" y="262.4" width="4.4" height="4.1" fill="#c0392b"/><rect x="451.3" y="393.9" width="4.4" height="8.1" fill="#c0392b"/><line x1="475.3" y1="248.0" x2="475.3" y2="262.4" stroke="#c0392b"/><rect x="473.1" y="248.7" width="4.4" height="1.4" fill="#c0392b"/><rect x="473.1" y="394.9" width="4.4" height="7.1" fill="#c0392b"/><line x1="497.1" y1="168.6" x2="497.1" y2="261.0" stroke="#c0392b"/><rect x="494.9" y="190.5" width="4.4" height="60.9" fill="#c0392b"/><rect x="494.9" y="369.4" width="4.4" height="32.6" fill="#c0392b"/><line x1="518.9" y1="148.8" x2="518.9" y2="215.8" stroke="#c0392b"/><rect x="516.7" y="150.1" width="4.4" height="52.0" fill="#c0392b"/><rect x="516.7" y="378.4" width="4.4" height="23.6" fill="#c0392b"/><line x1="540.7" y1="144.7" x2="540.7" y2="174.8" stroke="#2471a3"/><rect x="538.5" y="148.8" width="4.4" height="13.0" fill="#2471a3"/><rect x="538.5" y="386.8" width="4.4" height="15.2" fill="#2471a3"/><line x1="562.5" y1="152.2" x2="562.5" y2="176.8" stroke="#2471a3"/><rect x="560.3" y="159.7" width="4.4" height="8.9" fill="#2471a3"/><rect x="560.3" y="392.2" width="4.4" height="9.8" fill="#2471a3"/><line x1="584.3" y1="142.6" x2="584.3" y2="174.1" stroke="#c0392b"/><rect x="582.1" y="152.2" width="4.4" height="9.6" fill="#c0392b"/><rect x="582.1" y="391.3" width="4.4" height="10.7" fill="#c0392b"/><line x1="606.1" y1="118.0" x2="606.1" y2="157.0" stroke="#c0392b"/><rect x="603.9" y="139.9" width="4.4" height="1.0" fill="#c0392b"/><rect x="603.9" y="376.9" width="4.4" height="25.1" fill="#c0392b"/><line x1="627.9" y1="118.7" x2="627.9" y2="144.7" stroke="#c0392b"/><rect x="625.7" y="132.3" width="4.4" height="4.1" fill="#c0392b"/><rect x="625.7" y="388.9" width="4.4" height="13.1" fill="#c0392b"/><line x1="649.7" y1="120.7" x2="649.7" y2="141.2" stroke="#c0392b"/><rect x="647.5" y="126.9" width="4.4" height="4.8" fill="#c0392b"/><rect x="647.5" y="390.7" width="4.4" height="11.3" fill="#c0392b"/><line x1="671.5" y1="38.6" x2="671.5" y2="119.3" stroke="#c0392b"/><rect x="669.3" y="88.5" width="4.4" height="28.7" fill="#c0392b"/><rect x="669.3" y="332.7" width="4.4" height="69.3" fill="#c0392b"/><line x1="693.3" y1="81.7" x2="693.3" y2="145.3" stroke="#2471a3"/><rect x="691.1" y="95.4" width="4.4" height="42.4" fill="#2471a3"/><rect x="691.1" y="381.6" width="4.4" height="20.4" fill="#2471a3"/><line x1="715.1" y1="135.8" x2="715.1" y2="157.0" stroke="#2471a3"/><rect x="712.9" y="137.8" width="4.4" height="4.1" fill="#2471a3"/><rect x="712.9" y="393.0" width="4.4" height="9.0" fill="#2471a3"/><line x1="736.9" y1="148.8" x2="736.9" y2="167.9" stroke="#c0392b"/><rect x="734.7" y="148.8" width="4.4" height="13.0" fill="#c0392b"/><rect x="734.7" y="395.9" width="4.4" height="6.1" fill="#c0392b"/><line x1="758.7" y1="141.9" x2="758.7" y2="170.0" stroke="#c0392b"/><rect x="756.5" y="151.5" width="4.4" height="9.6" fill="#c0392b"/><rect x="756.5" y="396.5" width="4.4" height="5.5" fill="#c0392b"/><line x1="780.5" y1="139.2" x2="780.5" y2="167.9" stroke="#c0392b"/><rect x="778.3" y="143.3" width="4.4" height="11.6" fill="#c0392b"/><rect x="778.3" y="395.8" width="4.4" height="6.2" fill="#c0392b"/><line x1="802.3" y1="114.5" x2="802.3" y2="157.0" stroke="#2471a3"/><rect x="800.1" y="127.5" width="4.4" height="28.7" fill="#2471a3"/><rect x="800.1" y="392.4" width="4.4" height="9.6" fill="#2471a3"/><line x1="824.1" y1="174.1" x2="824.1" y2="202.8" stroke="#2471a3"/><rect x="821.9" y="178.9" width="4.4" height="20.5" fill="#2471a3"/><rect x="821.9" y="391.1" width="4.4" height="10.9" fill="#2471a3"/><line x1="845.9" y1="201.5" x2="845.9" y2="228.8" stroke="#2471a3"/><rect x="843.7" y="216.5" width="4.4" height="3.4" fill="#2471a3"/><rect x="843.7" y="394.5" width="4.4" height="7.5" fill="#2471a3"/><line x1="867.7" y1="193.2" x2="867.7" y2="224.0" stroke="#c0392b"/><rect x="865.5" y="211.7" width="4.4" height="8.2" fill="#c0392b"/><rect x="865.5" y="394.9" width="4.4" height="7.1" fill="#c0392b"/><line x1="889.5" y1="202.1" x2="889.5" y2="247.3" stroke="#2471a3"/><rect x="887.3" y="206.9" width="4.4" height="32.8" fill="#2471a3"/><rect x="887.3" y="391.5" width="4.4" height="10.5" fill="#2471a3"/><line x1="911.3" y1="221.3" x2="911.3" y2="248.7" stroke="#c0392b"/><rect x="909.1" y="228.1" width="4.4" height="19.2" fill="#c0392b"/><rect x="909.1" y="396.6" width="4.4" height="5.4" fill="#c0392b"/><line x1="933.1" y1="178.9" x2="933.1" y2="230.2" stroke="#c0392b"/><rect x="930.9" y="204.2" width="4.4" height="22.6" fill="#c0392b"/><rect x="930.9" y="390.0" width="4.4" height="12.0" fill="#c0392b"/><polyline fill="none" stroke="#e67e22" stroke-width="1.4" points="82.9,293.7 104.7,285.0 126.5,275.5 148.3,268.2 170.1,263.1 191.9,258.7 213.7,252.5 235.5,243.5 257.3,235.1 279.1,232.9 300.9,228.6 322.7,222.9 344.5,220.9 366.3,216.1 388.1,213.2 409.9,212.4 431.7,210.3 453.5,207.6 475.3,206.2 497.1,206.2 518.9,203.6 540.7,203.5 562.5,202.4 584.3,199.8 606.1,195.5 627.9,191.1 649.7,189.2 671.5,188.3 693.3,190.1 715.1,186.3 736.9,183.9 758.7,181.9 780.5,177.8 802.3,176.1 824.1,173.7 845.9,169.8 867.7,166.6 889.5,165.5 911.3,164.5 933.1,165.1"/><polyline fill="none" stroke="#8e44ad" stroke-width="1.4" points="82.9,253.4 104.7,254.2 126.5,255.3 148.3,256.5 170.1,257.6 191.9,258.8 213.7,258.1 235.5,256.7 257.3,254.6 279.1,254.8 300.9,254.2 322.7,253.4 344.5,253.7 366.3,253.5 388.1,254.2 409.9,256.3 431.7,257.7 453.5,259.1 475.3,260.3 497.1,260.3 518.9,259.6 540.7,259.0 562.5,257.7 584.3,255.5 606.1,252.8 627.9,249.8 649.7,247.1 671.5,243.9 693.3,241.6 715.1,239.3 736.9,237.1 758.7,235.1 780.5,233.4 802.3,232.0 824.1,230.8 845.9,229.9 867.7,228.6 889.5,227.2 911.3,225.8 933.1,223.7"/><circle cx="409.9" cy="303.4" r="5" fill="#1e8449" stroke="#1e8449" stroke-width="2" data-code="S" data-date="2025-02-03" data-price="9430" data-field="low" data-confirmed="1" data-main="1"/><text x="409.9" y="320.4" text-anchor="middle" font-size="12" font-weight="bold" font-family="Malgun Gothic, Apple SD Gothic Neo, Noto Sans CJK KR, sans-serif" fill="#1e8449" stroke="#fff" stroke-width="3" paint-order="stroke">S</text><circle cx="671.5" cy="38.6" r="5" fill="#b03a2e" stroke="#b03a2e" stroke-width="2" data-code="H" data-date="2025-02-19" data-price="13300" data-field="high" data-confirmed="1" data-main="1"/><text x="671.5" y="29.6" text-anchor="middle" font-size="12" font-weight="bold" font-family="Malgun Gothic, Apple SD Gothic Neo, Noto Sans CJK KR, sans-serif" fill="#b03a2e" stroke="#fff" stroke-width="3" paint-order="stroke">H</text><rect x="798.8" y="111.0" width="7" height="7" fill="#fff" stroke="#b03a2e" stroke-width="1.6" data-code="H-a" data-date="2025-02-27" data-price="12190" data-field="high" data-confirmed="1" data-main="0"/><text x="802.3" y="105.5" text-anchor="middle" font-size="10" font-weight="normal" font-family="Malgun Gothic, Apple SD Gothic Neo, Noto Sans CJK KR, sans-serif" fill="#b03a2e" stroke="#fff" stroke-width="3" paint-order="stroke">H-a</text><circle cx="911.3" cy="248.7" r="5" fill="#fff" stroke="#1f618d" stroke-width="2" data-code="L·P" data-date="2025-03-07" data-price="10230" data-field="low" data-confirmed="0" data-main="1"/><text x="911.3" y="265.7" text-anchor="middle" font-size="12" font-weight="bold" font-family="Malgun Gothic, Apple SD Gothic Neo, Noto Sans CJK KR, sans-serif" fill="#1f618d" stroke="#fff" stroke-width="3" paint-order="stroke">L·P</text><line x1="933.1" y1="28" x2="933.1" y2="314" stroke="#222" stroke-dasharray="3 3"/><line x1="82.9" y1="404" x2="82.9" y2="414" stroke="#bbb"/><text x="82.9" y="418" text-anchor="start" font-size="10" font-family="Malgun Gothic, Apple SD Gothic Neo, Noto Sans CJK KR, sans-serif" fill="#333">2025-01-07</text><line x1="257.3" y1="404" x2="257.3" y2="414" stroke="#bbb"/><text x="257.3" y="418" text-anchor="middle" font-size="10" font-family="Malgun Gothic, Apple SD Gothic Neo, Noto Sans CJK KR, sans-serif" fill="#333">2025-01-17</text><line x1="431.7" y1="404" x2="431.7" y2="414" stroke="#bbb"/><text x="431.7" y="418" text-anchor="middle" font-size="10" font-family="Malgun Gothic, Apple SD Gothic Neo, Noto Sans CJK KR, sans-serif" fill="#333">2025-02-04</text><line x1="606.1" y1="404" x2="606.1" y2="414" stroke="#bbb"/><text x="606.1" y="418" text-anchor="middle" font-size="10" font-family="Malgun Gothic, Apple SD Gothic Neo, Noto Sans CJK KR, sans-serif" fill="#333">2025-02-14</text><line x1="780.5" y1="404" x2="780.5" y2="414" stroke="#bbb"/><text x="780.5" y="418" text-anchor="middle" font-size="10" font-family="Malgun Gothic, Apple SD Gothic Neo, Noto Sans CJK KR, sans-serif" fill="#333">2025-02-26</text><line x1="933.1" y1="404" x2="933.1" y2="414" stroke="#bbb"/><text x="933.1" y="418" text-anchor="end" font-size="10" font-family="Malgun Gothic, Apple SD Gothic Neo, Noto Sans CJK KR, sans-serif" fill="#333">2025-03-10</text><text x="72" y="436" font-size="11" font-family="Malgun Gothic, Apple SD Gothic Neo, Noto Sans CJK KR, sans-serif" fill="#1e8449">S 시작 후보 2025-02-03 · 9,430 · 확정 2025-02-06</text><text x="72" y="449" font-size="11" font-family="Malgun Gothic, Apple SD Gothic Neo, Noto Sans CJK KR, sans-serif" fill="#b03a2e">H 눌림 시작 고점 2025-02-19 · 13,300 · 확정 2025-02-24</text><text x="72" y="462" font-size="11" font-family="Malgun Gothic, Apple SD Gothic Neo, Noto Sans CJK KR, sans-serif" fill="#1f618d">L 관찰 최저점·P 지지 후보 2025-03-07 · 10,230 · 관찰만</text><text x="72" y="475" font-size="11" font-family="Malgun Gothic, Apple SD Gothic Neo, Noto Sans CJK KR, sans-serif" fill="#555">대안 S-a 01-02(창 밖) · H-a 02-27 · P-a 02-03</text><text x="72" y="488" font-size="11" font-family="Malgun Gothic, Apple SD Gothic Neo, Noto Sans CJK KR, sans-serif" fill="#222">재상승 근거 확인 안 됨 · 눌림 상태 진행 중으로 봄 · 모호함 낮음  (●확정 ○관찰만 □대안)</text><text x="72" y="508" font-size="11" font-family="Malgun Gothic, Apple SD Gothic Neo, Noto Sans CJK KR, sans-serif" fill="#333">빨강 상승 · 파랑 하락 · 주황 MA20 · 보라 MA60(60개 이상이 있을 때) · 점선은 판정일. 거래량은 아래 칸. 눈금은 봉 날짜.</text></svg>