<svg xmlns="http://www.w3.org/2000/svg" width="960" height="520" viewBox="0 0 960 520"><!-- last_available_at=1768372200 bars=120 --><rect width="960" height="520" fill="#fff"/><text x="72" y="18" font-size="13" font-family="Malgun Gothic, Apple SD Gothic Neo, Noto Sans CJK KR, sans-serif">성호전자 043260.KQ · 판정일 2026-01-14 · 120거래일 · 추가 검토(B 확인 뒤)</text><text x="8" y="28" font-size="11" font-family="Malgun Gothic, Apple SD Gothic Neo, Noto Sans CJK KR, sans-serif">17,119</text><text x="8" y="314" font-size="11" font-family="Malgun Gothic, Apple SD Gothic Neo, Noto Sans CJK KR, sans-serif">401.84</text><line x1="75.6" y1="301.0" x2="75.6" y2="301.3" stroke="#2471a3"/><rect x="73.4" y="301.1" width="4.4" height="1.0" fill="#2471a3"/><rect x="73.4" y="401.0" width="4.4" height="1.0" fill="#2471a3"/><line x1="82.9" y1="301.0" x2="82.9" y2="301.2" stroke="#c0392b"/><rect x="80.7" y="301.1" width="4.4" height="1.0" fill="#c0392b"/><rect x="80.7" y="401.0" width="4.4" height="1.0" fill="#c0392b"/><line x1="90.2" y1="300.8" x2="90.2" y2="301.1" stroke="#2471a3"/><rect x="88.0" y="300.9" width="4.4" height="1.0" fill="#2471a3"/><rect x="88.0" y="401.0" width="4.4" height="1.0" fill="#2471a3"/><line x1="97.4" y1="301.0" x2="97.4" y2="301.5" stroke="#2471a3"/><rect x="95.2" y="301.1" width="4.4" height="1.0" fill="#2471a3"/><rect x="95.2" y="401.0" width="4.4" height="1.0" fill="#2471a3"/><line x1="104.7" y1="301.3" x2="104.7" y2="301.7" stroke="#2471a3"/><rect x="102.5" y="301.4" width="4.4" height="1.0" fill="#2471a3"/><rect x="102.5" y="400.9" width="4.4" height="1.1" fill="#2471a3"/><line x1="112.0" y1="301.1" x2="112.0" y2="301.5" stroke="#2471a3"/><rect x="109.8" y="301.4" width="4.4" height="1.0" fill="#2471a3"/><rect x="109.8" y="401.0" width="4.4" height="1.0" fill="#2471a3"/><line x1="119.2" y1="301.5" x2="119.2" y2="301.8" stroke="#2471a3"/><rect x="117.0" y="301.5" width="4.4" height="1.0" fill="#2471a3"/><rect x="117.0" y="401.0" width="4.4" height="1.0" fill="#2471a3"/><line x1="126.5" y1="301.7" x2="126.5" y2="302.4" stroke="#2471a3"/><rect x="124.3" y="301.7" width="4.4" height="1.0" fill="#2471a3"/><rect x="124.3" y="401.0" width="4.4" height="1.0" fill="#2471a3"/><line x1="133.8" y1="302.1" x2="133.8" y2="302.6" stroke="#c0392b"/><rect x="131.6" y="302.3" width="4.4" height="1.0" fill="#c0392b"/><rect x="131.6" y="401.0" width="4.4" height="1.0" fill="#c0392b"/><line x1="141.0" y1="302.0" x2="141.0" y2="302.4" stroke="#c0392b"/><rect x="138.8" y="302.0" width="4.4" height="1.0" fill="#c0392b"/><rect x="138.8" y="401.0" width="4.4" height="1.0" fill="#c0392b"/><line x1="148.3" y1="301.9" x2="148.3" y2="302.1" stroke="#2471a3"/><rect x="146.1" y="301.9" width="4.4" height="1.0" fill="#2471a3"/><rect x="146.1" y="401.0" width="4.4" height="1.0" fill="#2471a3"/><line x1="155.6" y1="302.1" x2="155.6" y2="303.2" stroke="#2471a3"/><rect x="153.4" y="302.1" width="4.4" height="1.0" fill="#2471a3"/><rect x="153.4" y="401.0" width="4.4" height="1.0" fill="#2471a3"/><line x1="162.8" y1="302.7" x2="162.8" y2="303.3" stroke="#c0392b"/><rect x="160.6" y="302.8" width="4.4" height="1.0" fill="#c0392b"/><rect x="160.6" y="401.0" width="4.4" height="1.0" fill="#c0392b"/><line x1="170.1" y1="302.4" x2="170.1" y2="303.0" stroke="#c0392b"/><rect x="167.9" y="302.6" width="4.4" height="1.0" fill="#c0392b"/><rect x="167.9" y="401.0" width="4.4" height="1.0" fill="#c0392b"/><line x1="177.4" y1="302.4" x2="177.4" y2="302.8" stroke="#2471a3"/><rect x="175.2" y="302.4" width="4.4" height="1.0" fill="#2471a3"/><rect x="175.2" y="401.0" width="4.4" height="1.0" fill="#2471a3"/><line x1="184.6" y1="302.7" x2="184.6" y2="302.8" stroke="#c0392b"/><rect x="182.4" y="302.7" width="4.4" height="1.0" fill="#c0392b"/><rect x="182.4" y="401.0" width="4.4" height="1.0" fill="#c0392b"/><line x1="191.9" y1="302.3" x2="191.9" y2="302.9" stroke="#c0392b"/><rect x="189.7" y="302.4" width="4.4" height="1.0" fill="#c0392b"/><rect x="189.7" y="401.0" width="4.4" height="1.0" fill="#c0392b"/><line x1="199.2" y1="302.4" x2="199.2" y2="302.7" stroke="#2471a3"/><rect x="197.0" y="302.4" width="4.4" height="1.0" fill="#2471a3"/><rect x="197.0" y="401.0" width="4.4" height="1.0" fill="#2471a3"/><line x1="206.4" y1="302.4" x2="206.4" y2="302.8" stroke="#c0392b"/><rect x="204.2" y="302.7" width="4.4" height="1.0" fill="#c0392b"/><rect x="204.2" y="401.0" width="4.4" height="1.0" fill="#c0392b"/><line x1="213.7" y1="302.4" x2="213.7" y2="302.8" stroke="#c0392b"/><rect x="211.5" y="302.4" width="4.4" height="1.0" fill="#c0392b"/><rect x="211.5" y="401.0" width="4.4" height="1.0" fill="#c0392b"/><line x1="221.0" y1="302.1" x2="221.0" y2="302.6" stroke="#2471a3"/><rect x="218.8" y="302.4" width="4.4" height="1.0" fill="#2471a3"/><rect x="218.8" y="401.0" width="4.4" height="1.0" fill="#2471a3"/><line x1="228.2" y1="302.5" x2="228.2" y2="303.0" stroke="#2471a3"/><rect x="226.0" y="302.6" width="4.4" height="1.0" fill="#2471a3"/><rect x="226.0" y="401.0" width="4.4" height="1.0" fill="#2471a3"/><line x1="235.5" y1="302.0" x2="235.5" y2="303.0" stroke="#2471a3"/><rect x="233.3" y="302.1" width="4.4" height="1.0" fill="#2471a3"/><rect x="233.3" y="401.0" width="4.4" height="1.0" fill="#2471a3"/><line x1="242.8" y1="302.9" x2="242.8" y2="303.3" stroke="#2471a3"/><rect x="240.6" y="302.9" width="4.4" height="1.0" fill="#2471a3"/><rect x="240.6" y="401.0" width="4.4" height="1.0" fill="#2471a3"/><line x1="250.0" y1="303.0" x2="250.0" y2="303.3" stroke="#c0392b"/><rect x="247.8" y="303.1" width="4.4" height="1.0" fill="#c0392b"/><rect x="247.8" y="401.0" width="4.4" height="1.0" fill="#c0392b"/><line x1="257.3" y1="303.0" x2="257.3" y2="303.2" stroke="#c0392b"/><rect x="255.1" y="303.1" width="4.4" height="1.0" fill="#c0392b"/><rect x="255.1" y="401.0" width="4.4" height="1.0" fill="#c0392b"/><line x1="264.6" y1="302.9" x2="264.6" y2="303.1" stroke="#c0392b"/><rect x="262.4" y="302.9" width="4.4" height="1.0" fill="#c0392b"/><rect x="262.4" y="401.0" width="4.4" height="1.0" fill="#c0392b"/><line x1="271.8" y1="302.4" x2="271.8" y2="303.0" stroke="#2471a3"/><rect x="269.6" y="302.5" width="4.4" height="1.0" fill="#2471a3"/><rect x="269.6" y="401.0" width="4.4" height="1.0" fill="#2471a3"/><line x1="279.1" y1="302.7" x2="279.1" y2="303.0" stroke="#c0392b"/><rect x="276.9" y="302.9" width="4.4" height="1.0" fill="#c0392b"/><rect x="276.9" y="401.0" width="4.4" height="1.0" fill="#c0392b"/><line x1="286.4" y1="302.8" x2="286.4" y2="302.9" stroke="#c0392b"/><rect x="284.2" y="302.9" width="4.4" height="1.0" fill="#c0392b"/><rect x="284.2" y="401.0" width="4.4" height="1.0" fill="#c0392b"/><line x1="293.6" y1="302.8" x2="293.6" y2="303.0" stroke="#c0392b"/><rect x="291.4" y="302.9" width="4.4" height="1.0" fill="#c0392b"/><rect x="291.4" y="401.0" width="4.4" height="1.0" fill="#c0392b"/><line x1="300.9" y1="302.8" x2="300.9" y2="303.4" stroke="#2471a3"/><rect x="298.7" y="302.8" width="4.4" height="1.0" fill="#2471a3"/><rect x="298.7" y="401.0" width="4.4" height="1.0" fill="#2471a3"/><line x1="308.2" y1="300.4" x2="308.2" y2="303.1" stroke="#c0392b"/><rect x="306.0" y="302.8" width="4.4" height="1.0" fill="#c0392b"/><rect x="306.0" y="375.4" width="4.4" height="26.6" fill="#c0392b"/><line x1="315.4" y1="302.6" x2="315.4" y2="303.1" stroke="#c0392b"/><rect x="313.2" y="302.6" width="4.4" height="1.0" fill="#c0392b"/><rect x="313.2" y="400.4" width="4.4" height="1.6" fill="#c0392b"/><line x1="322.7" y1="302.4" x2="322.7" y2="302.8" stroke="#c0392b"/><rect x="320.5" y="302.5" width="4.4" height="1.0" fill="#c0392b"/><rect x="320.5" y="401.0" width="4.4" height="1.0" fill="#c0392b"/><line x1="330.0" y1="302.4" x2="330.0" y2="302.6" stroke="#c0392b"/><rect x="327.8" y="302.4" width="4.4" height="1.0" fill="#c0392b"/><rect x="327.8" y="401.0" width="4.4" height="1.0" fill="#c0392b"/><line x1="337.2" y1="302.1" x2="337.2" y2="302.4" stroke="#2471a3"/><rect x="335.0" y="302.3" width="4.4" height="1.0" fill="#2471a3"/><rect x="335.0" y="401.0" width="4.4" height="1.0" fill="#2471a3"/><line x1="344.5" y1="302.1" x2="344.5" y2="302.4" stroke="#2471a3"/><rect x="342.3" y="302.4" width="4.4" height="1.0" fill="#2471a3"/><rect x="342.3" y="401.0" width="4.4" height="1.0" fill="#2471a3"/><line x1="351.8" y1="302.2" x2="351.8" y2="302.5" stroke="#c0392b"/><rect x="349.6" y="302.3" width="4.4" height="1.0" fill="#c0392b"/><rect x="349.6" y="401.0" width="4.4" height="1.0" fill="#c0392b"/><line x1="359.0" y1="302.2" x2="359.0" y2="302.4" stroke="#c0392b"/><rect x="356.8" y="302.3" width="4.4" height="1.0" fill="#c0392b"/><rect x="356.8" y="401.0" width="4.4" height="1.0" fill="#c0392b"/><line x1="366.3" y1="302.0" x2="366.3" y2="302.3" stroke="#c0392b"/><rect x="364.1" y="302.2" width="4.4" height="1.0" fill="#c0392b"/><rect x="364.1" y="401.0" width="4.4" height="1.0" fill="#c0392b"/><line x1="373.6" y1="302.1" x2="373.6" y2="302.3" stroke="#2471a3"/><rect x="371.4" y="302.2" width="4.4" height="1.0" fill="#2471a3"/><rect x="371.4" y="401.0" width="4.4" height="1.0" fill="#2471a3"/><line x1="380.8" y1="302.2" x2="380.8" y2="302.5" stroke="#2471a3"/><rect x="378.6" y="302.4" width="4.4" height="1.0" fill="#2471a3"/><rect x="378.6" y="401.0" width="4.4" height="1.0" fill="#2471a3"/><line x1="388.1" y1="302.5" x2="388.1" y2="302.8" stroke="#2471a3"/><rect x="385.9" y="302.5" width="4.4" height="1.0" fill="#2471a3"/><rect x="385.9" y="401.0" width="4.4" height="1.0" fill="#2471a3"/><line x1="395.4" y1="302.4" x2="395.4" y2="302.8" stroke="#c0392b"/><rect x="393.2" y="302.5" width="4.4" height="1.0" fill="#c0392b"/><rect x="393.2" y="401.0" width="4.4" height="1.0" fill="#c0392b"/><line x1="402.6" y1="302.4" x2="402.6" y2="302.6" stroke="#c0392b"/><rect x="400.4" y="302.4" width="4.4" height="1.0" fill="#c0392b"/><rect x="400.4" y="401.0" width="4.4" height="1.0" fill="#c0392b"/><line x1="409.9" y1="302.3" x2="409.9" y2="302.6" stroke="#2471a3"/><rect x="407.7" y="302.4" width="4.4" height="1.0" fill="#2471a3"/><rect x="407.7" y="401.0" width="4.4" height="1.0" fill="#2471a3"/><line x1="417.2" y1="302.6" x2="417.2" y2="303.0" stroke="#2471a3"/><rect x="415.0" y="302.6" width="4.4" height="1.0" fill="#2471a3"/><rect x="415.0" y="401.0" width="4.4" height="1.0" fill="#2471a3"/><line x1="424.4" y1="302.9" x2="424.4" y2="303.1" stroke="#2471a3"/><rect x="422.2" y="302.9" width="4.4" height="1.0" fill="#2471a3"/><rect x="422.2" y="401.0" width="4.4" height="1.0" fill="#2471a3"/><line x1="431.7" y1="302.9" x2="431.7" y2="303.2" stroke="#c0392b"/><rect x="429.5" y="303.1" width="4.4" height="1.0" fill="#c0392b"/><rect x="429.5" y="401.0" width="4.4" height="1.0" fill="#c0392b"/><line x1="439.0" y1="303.0" x2="439.0" y2="303.2" stroke="#2471a3"/><rect x="436.8" y="303.0" width="4.4" height="1.0" fill="#2471a3"/><rect x="436.8" y="401.0" width="4.4" height="1.0" fill="#2471a3"/><line x1="446.2" y1="303.0" x2="446.2" y2="303.2" stroke="#c0392b"/><rect x="444.0" y="303.2" width="4.4" height="1.0" fill="#c0392b"/><rect x="444.0" y="401.0" width="4.4" height="1.0" fill="#c0392b"/><line x1="453.5" y1="303.1" x2="453.5" y2="303.3" stroke="#c0392b"/><rect x="451.3" y="303.1" width="4.4" height="1.0" fill="#c0392b"/><rect x="451.3" y="401.0" width="4.4" height="1.0" fill="#c0392b"/><line x1="460.8" y1="303.0" x2="460.8" y2="303.3" stroke="#c0392b"/><rect x="458.6" y="303.0" width="4.4" height="1.0" fill="#c0392b"/><rect x="458.6" y="401.0" width="4.4" height="1.0" fill="#c0392b"/><line x1="468.0" y1="299.9" x2="468.0" y2="303.0" stroke="#c0392b"/><rect x="465.8" y="301.3" width="4.4" height="1.7" fill="#c0392b"/><rect x="465.8" y="359.2" width="4.4" height="42.8" fill="#c0392b"/><line x1="475.3" y1="299.0" x2="475.3" y2="301.1" stroke="#c0392b"/><rect x="473.1" y="299.0" width="4.4" height="2.0" fill="#c0392b"/><rect x="473.1" y="373.2" width="4.4" height="28.8" fill="#c0392b"/><line x1="482.6" y1="293.7" x2="482.6" y2="299.6" stroke="#c0392b"/><rect x="480.4" y="295.4" width="4.4" height="3.3" fill="#c0392b"/><rect x="480.4" y="349.3" width="4.4" height="52.7" fill="#c0392b"/><line x1="489.8" y1="294.5" x2="489.8" y2="298.0" stroke="#c0392b"/><rect x="487.6" y="295.4" width="4.4" height="1.0" fill="#c0392b"/><rect x="487.6" y="391.4" width="4.4" height="10.6" fill="#c0392b"/><line x1="497.1" y1="295.4" x2="497.1" y2="296.9" stroke="#2471a3"/><rect x="494.9" y="295.4" width="4.4" height="1.0" fill="#2471a3"/><rect x="494.9" y="398.2" width="4.4" height="3.8" fill="#2471a3"/><line x1="504.4" y1="295.8" x2="504.4" y2="297.6" stroke="#c0392b"/><rect x="502.2" y="296.2" width="4.4" height="1.0" fill="#c0392b"/><rect x="502.2" y="397.9" width="4.4" height="4.1" fill="#c0392b"/><line x1="511.6" y1="296.3" x2="511.6" y2="298.4" stroke="#2471a3"/><rect x="509.4" y="296.3" width="4.4" height="1.0" fill="#2471a3"/><rect x="509.4" y="398.2" width="4.4" height="3.8" fill="#2471a3"/><line x1="518.9" y1="296.4" x2="518.9" y2="297.4" stroke="#c0392b"/><rect x="516.7" y="296.8" width="4.4" height="1.0" fill="#c0392b"/><rect x="516.7" y="400.0" width="4.4" height="2.0" fill="#c0392b"/><line x1="526.2" y1="293.4" x2="526.2" y2="297.4" stroke="#c0392b"/><rect x="524.0" y="294.0" width="4.4" height="3.1" fill="#c0392b"/><rect x="524.0" y="383.0" width="4.4" height="19.0" fill="#c0392b"/><line x1="533.4" y1="291.0" x2="533.4" y2="294.0" stroke="#c0392b"/><rect x="531.2" y="291.7" width="4.4" height="1.8" fill="#c0392b"/><rect x="531.2" y="383.7" width="4.4" height="18.3" fill="#c0392b"/><line x1="540.7" y1="290.1" x2="540.7" y2="292.2" stroke="#c0392b"/><rect x="538.5" y="290.4" width="4.4" height="1.2" fill="#c0392b"/><rect x="538.5" y="394.8" width="4.4" height="7.2" fill="#c0392b"/><line x1="548.0" y1="288.4" x2="548.0" y2="290.4" stroke="#c0392b"/><rect x="545.8" y="288.7" width="4.4" height="1.6" fill="#c0392b"/><rect x="545.8" y="393.8" width="4.4" height="8.2" fill="#c0392b"/><line x1="555.2" y1="288.4" x2="555.2" y2="290.3" stroke="#c0392b"/><rect x="553.0" y="288.6" width="4.4" height="1.0" fill="#c0392b"/><rect x="553.0" y="399.6" width="4.4" height="2.4" fill="#c0392b"/><line x1="562.5" y1="287.1" x2="562.5" y2="289.1" stroke="#c0392b"/><rect x="560.3" y="288.4" width="4.4" height="1.0" fill="#c0392b"/><rect x="560.3" y="396.3" width="4.4" height="5.7" fill="#c0392b"/><line x1="569.8" y1="287.8" x2="569.8" y2="289.2" stroke="#c0392b"/><rect x="567.6" y="288.3" width="4.4" height="1.0" fill="#c0392b"/><rect x="567.6" y="397.9" width="4.4" height="4.1" fill="#c0392b"/><line x1="577.0" y1="285.2" x2="577.0" y2="288.5" stroke="#c0392b"/><rect x="574.8" y="286.5" width="4.4" height="1.8" fill="#c0392b"/><rect x="574.8" y="395.3" width="4.4" height="6.7" fill="#c0392b"/><line x1="584.3" y1="285.0" x2="584.3" y2="286.8" stroke="#c0392b"/><rect x="582.1" y="285.2" width="4.4" height="1.2" fill="#c0392b"/><rect x="582.1" y="398.4" width="4.4" height="3.6" fill="#c0392b"/><line x1="591.6" y1="284.8" x2="591.6" y2="286.3" stroke="#c0392b"/><rect x="589.4" y="285.2" width="4.4" height="1.0" fill="#c0392b"/><rect x="589.4" y="399.3" width="4.4" height="2.7" fill="#c0392b"/><line x1="598.8" y1="285.2" x2="598.8" y2="288.1" stroke="#2471a3"/><rect x="596.6" y="285.2" width="4.4" height="1.9" fill="#2471a3"/><rect x="596.6" y="397.7" width="4.4" height="4.3" fill="#2471a3"/><line x1="606.1" y1="284.4" x2="606.1" y2="287.5" stroke="#c0392b"/><rect x="603.9" y="284.7" width="4.4" height="1.0" fill="#c0392b"/><rect x="603.9" y="398.1" width="4.4" height="3.9" fill="#c0392b"/><line x1="613.4" y1="284.3" x2="613.4" y2="286.7" stroke="#c0392b"/><rect x="611.2" y="284.6" width="4.4" height="1.0" fill="#c0392b"/><rect x="611.2" y="399.0" width="4.4" height="3.0" fill="#c0392b"/><line x1="620.6" y1="284.6" x2="620.6" y2="287.7" stroke="#c0392b"/><rect x="618.4" y="284.9" width="4.4" height="1.0" fill="#c0392b"/><rect x="618.4" y="398.2" width="4.4" height="3.8" fill="#c0392b"/><line x1="627.9" y1="284.4" x2="627.9" y2="286.7" stroke="#2471a3"/><rect x="625.7" y="284.9" width="4.4" height="1.0" fill="#2471a3"/><rect x="625.7" y="398.1" width="4.4" height="3.9" fill="#2471a3"/><line x1="635.2" y1="283.9" x2="635.2" y2="285.7" stroke="#c0392b"/><rect x="633.0" y="284.4" width="4.4" height="1.3" fill="#c0392b"/><rect x="633.0" y="398.4" width="4.4" height="3.6" fill="#c0392b"/><line x1="642.4" y1="282.5" x2="642.4" y2="284.7" stroke="#c0392b"/><rect x="640.2" y="283.1" width="4.4" height="1.1" fill="#c0392b"/><rect x="640.2" y="397.7" width="4.4" height="4.3" fill="#c0392b"/><line x1="649.7" y1="282.0" x2="649.7" y2="284.9" stroke="#c0392b"/><rect x="647.5" y="282.6" width="4.4" height="1.0" fill="#c0392b"/><rect x="647.5" y="398.9" width="4.4" height="3.1" fill="#c0392b"/><line x1="657.0" y1="280.8" x2="657.0" y2="282.6" stroke="#c0392b"/><rect x="654.8" y="280.8" width="4.4" height="1.5" fill="#c0392b"/><rect x="654.8" y="398.3" width="4.4" height="3.7" fill="#c0392b"/><line x1="664.2" y1="280.6" x2="664.2" y2="283.2" stroke="#2471a3"/><rect x="662.0" y="280.7" width="4.4" height="1.0" fill="#2471a3"/><rect x="662.0" y="398.3" width="4.4" height="3.7" fill="#2471a3"/><line x1="671.5" y1="281.3" x2="671.5" y2="284.4" stroke="#2471a3"/><rect x="669.3" y="281.3" width="4.4" height="1.6" fill="#2471a3"/><rect x="669.3" y="398.3" width="4.4" height="3.7" fill="#2471a3"/><line x1="678.8" y1="281.5" x2="678.8" y2="284.6" stroke="#c0392b"/><rect x="676.6" y="282.8" width="4.4" height="1.0" fill="#c0392b"/><rect x="676.6" y="399.6" width="4.4" height="2.4" fill="#c0392b"/><line x1="686.0" y1="283.4" x2="686.0" y2="287.1" stroke="#2471a3"/><rect x="683.8" y="283.4" width="4.4" height="3.1" fill="#2471a3"/><rect x="683.8" y="400.5" width="4.4" height="1.5" fill="#2471a3"/><line x1="693.3" y1="284.2" x2="693.3" y2="289.1" stroke="#c0392b"/><rect x="691.1" y="284.2" width="4.4" height="2.9" fill="#c0392b"/><rect x="691.1" y="395.9" width="4.4" height="6.1" fill="#c0392b"/><line x1="700.6" y1="282.0" x2="700.6" y2="284.6" stroke="#2471a3"/><rect x="698.4" y="283.2" width="4.4" height="1.0" fill="#2471a3"/><rect x="698.4" y="400.2" width="4.4" height="1.8" fill="#2471a3"/><line x1="707.8" y1="282.3" x2="707.8" y2="284.8" stroke="#c0392b"/><rect x="705.6" y="282.4" width="4.4" height="1.5" fill="#c0392b"/><rect x="705.6" y="399.1" width="4.4" height="2.9" fill="#c0392b"/><line x1="715.1" y1="278.4" x2="715.1" y2="282.9" stroke="#c0392b"/><rect x="712.9" y="280.3" width="4.4" height="1.2" fill="#c0392b"/><rect x="712.9" y="396.7" width="4.4" height="5.3" fill="#c0392b"/><line x1="722.4" y1="278.4" x2="722.4" y2="281.3" stroke="#c0392b"/><rect x="720.2" y="279.0" width="4.4" height="1.7" fill="#c0392b"/><rect x="720.2" y="399.0" width="4.4" height="3.0" fill="#c0392b"/><line x1="729.6" y1="275.0" x2="729.6" y2="280.1" stroke="#c0392b"/><rect x="727.4" y="275.9" width="4.4" height="2.7" fill="#c0392b"/><rect x="727.4" y="394.8" width="4.4" height="7.2" fill="#c0392b"/><line x1="736.9" y1="271.9" x2="736.9" y2="276.7" stroke="#c0392b"/><rect x="734.7" y="272.0" width="4.4" height="3.8" fill="#c0392b"/><rect x="734.7" y="397.5" width="4.4" height="4.5" fill="#c0392b"/><line x1="744.2" y1="270.8" x2="744.2" y2="273.5" stroke="#c0392b"/><rect x="742.0" y="271.2" width="4.4" height="1.0" fill="#c0392b"/><rect x="742.0" y="399.2" width="4.4" height="2.8" fill="#c0392b"/><line x1="751.4" y1="269.8" x2="751.4" y2="272.4" stroke="#c0392b"/><rect x="749.2" y="271.3" width="4.4" height="1.0" fill="#c0392b"/><rect x="749.2" y="398.6" width="4.4" height="3.4" fill="#c0392b"/><line x1="758.7" y1="270.0" x2="758.7" y2="273.2" stroke="#c0392b"/><rect x="756.5" y="270.1" width="4.4" height="1.4" fill="#c0392b"/><rect x="756.5" y="398.7" width="4.4" height="3.3" fill="#c0392b"/><line x1="766.0" y1="254.8" x2="766.0" y2="267.5" stroke="#c0392b"/><rect x="763.8" y="254.8" width="4.4" height="12.0" fill="#c0392b"/><rect x="763.8" y="345.2" width="4.4" height="56.8" fill="#c0392b"/><line x1="773.2" y1="235.2" x2="773.2" y2="246.5" stroke="#c0392b"/><rect x="771.0" y="235.2" width="4.4" height="8.7" fill="#c0392b"/><rect x="771.0" y="387.2" width="4.4" height="14.8" fill="#c0392b"/><line x1="780.5" y1="209.5" x2="780.5" y2="239.1" stroke="#c0392b"/><rect x="778.3" y="213.9" width="4.4" height="16.1" fill="#c0392b"/><rect x="778.3" y="322.0" width="4.4" height="80.0" fill="#c0392b"/><line x1="787.8" y1="214.8" x2="787.8" y2="231.4" stroke="#2471a3"/><rect x="785.6" y="214.8" width="4.4" height="16.6" fill="#2471a3"/><rect x="785.6" y="384.8" width="4.4" height="17.2" fill="#2471a3"/><line x1="795.0" y1="224.6" x2="795.0" y2="236.1" stroke="#c0392b"/><rect x="792.8" y="228.1" width="4.4" height="3.8" fill="#c0392b"/><rect x="792.8" y="389.6" width="4.4" height="12.4" fill="#c0392b"/><line x1="802.3" y1="219.8" x2="802.3" y2="237.0" stroke="#c0392b"/><rect x="800.1" y="226.6" width="4.4" height="4.4" fill="#c0392b"/><rect x="800.1" y="392.8" width="4.4" height="9.2" fill="#c0392b"/><line x1="809.6" y1="220.1" x2="809.6" y2="232.3" stroke="#c0392b"/><rect x="807.4" y="222.5" width="4.4" height="8.0" fill="#c0392b"/><rect x="807.4" y="395.8" width="4.4" height="6.2" fill="#c0392b"/><line x1="816.8" y1="205.6" x2="816.8" y2="220.8" stroke="#c0392b"/><rect x="814.6" y="210.5" width="4.4" height="8.6" fill="#c0392b"/><rect x="814.6" y="387.6" width="4.4" height="14.4" fill="#c0392b"/><line x1="824.1" y1="201.3" x2="824.1" y2="217.7" stroke="#c0392b"/><rect x="821.9" y="211.7" width="4.4" height="1.0" fill="#c0392b"/><rect x="821.9" y="392.8" width="4.4" height="9.2" fill="#c0392b"/><line x1="831.4" y1="186.4" x2="831.4" y2="211.0" stroke="#c0392b"/><rect x="829.2" y="195.3" width="4.4" height="13.3" fill="#c0392b"/><rect x="829.2" y="387.4" width="4.4" height="14.6" fill="#c0392b"/><line x1="838.6" y1="182.3" x2="838.6" y2="195.6" stroke="#c0392b"/><rect x="836.4" y="185.0" width="4.4" height="5.6" fill="#c0392b"/><rect x="836.4" y="389.5" width="4.4" height="12.5" fill="#c0392b"/><line x1="845.9" y1="175.8" x2="845.9" y2="194.4" stroke="#2471a3"/><rect x="843.7" y="180.4" width="4.4" height="1.7" fill="#2471a3"/><rect x="843.7" y="388.1" width="4.4" height="13.9" fill="#2471a3"/><line x1="853.2" y1="172.9" x2="853.2" y2="190.3" stroke="#2471a3"/><rect x="851.0" y="177.0" width="4.4" height="11.1" fill="#2471a3"/><rect x="851.0" y="396.1" width="4.4" height="5.9" fill="#2471a3"/><line x1="860.4" y1="179.0" x2="860.4" y2="196.0" stroke="#c0392b"/><rect x="858.2" y="186.6" width="4.4" height="1.0" fill="#c0392b"/><rect x="858.2" y="391.3" width="4.4" height="10.7" fill="#c0392b"/><line x1="867.7" y1="158.5" x2="867.7" y2="182.5" stroke="#c0392b"/><rect x="865.5" y="159.9" width="4.4" height="22.4" fill="#c0392b"/><rect x="865.5" y="380.0" width="4.4" height="22.0" fill="#c0392b"/><line x1="875.0" y1="135.1" x2="875.0" y2="172.5" stroke="#c0392b"/><rect x="872.8" y="162.8" width="4.4" height="5.8" fill="#c0392b"/><rect x="872.8" y="383.6" width="4.4" height="18.4" fill="#c0392b"/><line x1="882.2" y1="136.1" x2="882.2" y2="153.0" stroke="#c0392b"/><rect x="880.0" y="136.1" width="4.4" height="13.0" fill="#c0392b"/><rect x="880.0" y="395.4" width="4.4" height="6.6" fill="#c0392b"/><line x1="889.5" y1="99.2" x2="889.5" y2="131.0" stroke="#c0392b"/><rect x="887.3" y="107.2" width="4.4" height="18.6" fill="#c0392b"/><rect x="887.3" y="390.4" width="4.4" height="11.6" fill="#c0392b"/><line x1="896.8" y1="100.2" x2="896.8" y2="126.9" stroke="#c0392b"/><rect x="894.6" y="106.2" width="4.4" height="4.3" fill="#c0392b"/><rect x="894.6" y="394.7" width="4.4" height="7.3" fill="#c0392b"/><line x1="904.0" y1="106.0" x2="904.0" y2="137.8" stroke="#2471a3"/><rect x="901.8" y="106.2" width="4.4" height="23.3" fill="#2471a3"/><rect x="901.8" y="394.0" width="4.4" height="8.0" fill="#2471a3"/><line x1="911.3" y1="116.8" x2="911.3" y2="145.5" stroke="#c0392b"/><rect x="909.1" y="128.2" width="4.4" height="2.6" fill="#c0392b"/><rect x="909.1" y="394.0" width="4.4" height="8.0" fill="#c0392b"/><line x1="918.6" y1="128.2" x2="918.6" y2="142.4" stroke="#2471a3"/><rect x="916.4" y="128.2" width="4.4" height="1.5" fill="#2471a3"/><rect x="916.4" y="397.8" width="4.4" height="4.2" fill="#2471a3"/><line x1="925.8" y1="74.5" x2="925.8" y2="128.9" stroke="#c0392b"/><rect x="923.6" y="84.8" width="4.4" height="44.1" fill="#c0392b"/><rect x="923.6" y="387.3" width="4.4" height="14.7" fill="#c0392b"/><line x1="933.1" y1="72.0" x2="933.1" y2="104.6" stroke="#2471a3"/><rect x="930.9" y="72.1" width="4.4" height="15.1" fill="#2471a3"/><rect x="930.9" y="393.7" width="4.4" height="8.3" fill="#2471a3"/><line x1="940.4" y1="38.6" x2="940.4" y2="87.2" stroke="#c0392b"/><rect x="938.2" y="64.6" width="4.4" height="22.6" fill="#c0392b"/><rect x="938.2" y="381.6" width="4.4" height="20.4" fill="#c0392b"/><polyline fill="none" stroke="#e67e22" stroke-width="1.4" points="75.6,300.9 82.9,300.9 90.2,300.9 97.4,301.0 104.7,301.0 112.0,301.0 119.2,301.0 126.5,301.1 133.8,301.2 141.0,301.2 148.3,301.3 155.6,301.4 162.8,301.5 170.1,301.6 177.4,301.7 184.6,301.8 191.9,301.8 199.2,301.9 206.4,302.0 213.7,302.1 221.0,302.1 228.2,302.2 235.5,302.3 242.8,302.4 250.0,302.5 257.3,302.6 264.6,302.6 271.8,302.7 279.1,302.7 286.4,302.7 293.6,302.8 300.9,302.8 308.2,302.8 315.4,302.8 322.7,302.8 330.0,302.8 337.2,302.8 344.5,302.8 351.8,302.7 359.0,302.7 366.3,302.7 373.6,302.7 380.8,302.7 388.1,302.7 395.4,302.6 402.6,302.6 409.9,302.6 417.2,302.6 424.4,302.6 431.7,302.6 439.0,302.6 446.2,302.6 453.5,302.6 460.8,302.6 468.0,302.6 475.3,302.4 482.6,302.1 489.8,301.7 497.1,301.4 504.4,301.1 511.6,300.9 518.9,300.6 526.2,300.2 533.4,299.6 540.7,299.0 548.0,298.3 555.2,297.6 562.5,296.9 569.8,296.2 577.0,295.3 584.3,294.4 591.6,293.5 598.8,292.7 606.1,291.8 613.4,291.0 620.6,290.3 627.9,289.8 635.2,289.2 642.4,288.6 649.7,287.9 657.0,287.1 664.2,286.3 671.5,285.7 678.8,285.3 686.0,285.1 693.3,284.9 700.6,284.6 707.8,284.3 715.1,283.9 722.4,283.6 729.6,283.1 736.9,282.4 744.2,281.6 751.4,281.0 758.7,280.2 766.0,278.7 773.2,276.2 780.5,272.7 787.8,270.1 795.0,267.4 802.3,264.7 809.6,261.7 816.8,258.1 824.1,254.6 831.4,250.0 838.6,245.1 845.9,240.0 853.2,235.3 860.4,230.6 867.7,224.6 875.0,219.0 882.2,212.2 889.5,204.0 896.8,195.7 904.0,188.7 911.3,182.4 918.6,177.1 925.8,170.6 933.1,163.4 940.4,155.2"/><polyline fill="none" stroke="#8e44ad" stroke-width="1.4" points="75.6,300.9 82.9,300.9 90.2,300.8 97.4,300.8 104.7,300.8 112.0,300.8 119.2,300.8 126.5,300.8 133.8,300.9 141.0,300.9 148.3,300.9 155.6,301.0 162.8,301.0 170.1,301.1 177.4,301.1 184.6,301.1 191.9,301.2 199.2,301.2 206.4,301.2 213.7,301.3 221.0,301.3 228.2,301.3 235.5,301.4 242.8,301.4 250.0,301.4 257.3,301.4 264.6,301.5 271.8,301.5 279.1,301.5 286.4,301.6 293.6,301.6 300.9,301.7 308.2,301.7 315.4,301.7 322.7,301.8 330.0,301.8 337.2,301.8 344.5,301.8 351.8,301.9 359.0,301.9 366.3,301.9 373.6,302.0 380.8,302.0 388.1,302.0 395.4,302.0 402.6,302.1 409.9,302.1 417.2,302.1 424.4,302.2 431.7,302.2 439.0,302.2 446.2,302.3 453.5,302.3 460.8,302.3 468.0,302.3 475.3,302.3 482.6,302.2 489.8,302.1 497.1,302.1 504.4,302.0 511.6,301.9 518.9,301.8 526.2,301.7 533.4,301.6 540.7,301.4 548.0,301.2 555.2,300.9 562.5,300.7 569.8,300.5 577.0,300.2 584.3,299.9 591.6,299.6 598.8,299.4 606.1,299.1 613.4,298.8 620.6,298.5 627.9,298.2 635.2,297.9 642.4,297.6 649.7,297.2 657.0,296.9 664.2,296.5 671.5,296.2 678.8,295.9 686.0,295.6 693.3,295.3 700.6,295.0 707.8,294.6 715.1,294.2 722.4,293.8 729.6,293.4 736.9,292.9 744.2,292.3 751.4,291.8 758.7,291.3 766.0,290.5 773.2,289.4 780.5,287.9 787.8,286.7 795.0,285.5 802.3,284.2 809.6,282.9 816.8,281.3 824.1,279.8 831.4,278.0 838.6,276.1 845.9,274.1 853.2,272.2 860.4,270.2 867.7,267.8 875.0,265.5 882.2,262.7 889.5,259.5 896.8,256.2 904.0,253.3 911.3,250.5 918.6,247.7 925.8,244.2 933.1,240.7 940.4,236.8"/><circle cx="889.5" cy="99.2" r="5" fill="#d35400" stroke="#d35400" stroke-width="2" data-code="Hr" data-date="2026-01-05" data-price="12960" data-field="high" data-confirmed="1" data-main="1"/><text x="889.5" y="90.2" text-anchor="middle" font-size="12" font-weight="bold" font-family="Malgun Gothic, Apple SD Gothic Neo, Noto Sans CJK KR, sans-serif" fill="#d35400" stroke="#fff" stroke-width="3" paint-order="stroke">Hr</text><circle cx="911.3" cy="145.5" r="5" fill="#117a65" stroke="#117a65" stroke-width="2" data-code="Lr" data-date="2026-01-08" data-price="10250" data-field="low" data-confirmed="1" data-main="1"/><text x="911.3" y="162.5" text-anchor="middle" font-size="12" font-weight="bold" font-family="Malgun Gothic, Apple SD Gothic Neo, Noto Sans CJK KR, sans-serif" fill="#117a65" stroke="#fff" stroke-width="3" paint-order="stroke">Lr</text><rect x="871.5" y="169.0" width="7" height="7" fill="#fff" stroke="#566573" stroke-width="1.6" data-code="Cs" data-date="2025-12-30" data-price="8670" data-field="low" data-confirmed="0" data-main="0"/><text x="875.0" y="189.5" text-anchor="middle" font-size="10" font-weight="normal" font-family="Malgun Gothic, Apple SD Gothic Neo, Noto Sans CJK KR, sans-serif" fill="#566573" stroke="#fff" stroke-width="3" paint-order="stroke">Cs</text><line x1="940.4" y1="28" x2="940.4" y2="314" stroke="#222" stroke-dasharray="3 3"/><line x1="75.6" y1="404" x2="75.6" y2="414" stroke="#bbb"/><text x="75.6" y="418" text-anchor="start" font-size="10" font-family="Malgun Gothic, Apple SD Gothic Neo, Noto Sans CJK KR, sans-serif" fill="#333">2025-07-17</text><line x1="250.0" y1="404" x2="250.0" y2="414" stroke="#bbb"/><text x="250.0" y="418" text-anchor="middle" font-size="10" font-family="Malgun Gothic, Apple SD Gothic Neo, Noto Sans CJK KR, sans-serif" fill="#333">2025-08-21</text><line x1="424.4" y1="404" x2="424.4" y2="414" stroke="#bbb"/><text x="424.4" y="418" text-anchor="middle" font-size="10" font-family="Malgun Gothic, Apple SD Gothic Neo, Noto Sans CJK KR, sans-serif" fill="#333">2025-09-25</text><line x1="598.8" y1="404" x2="598.8" y2="414" stroke="#bbb"/><text x="598.8" y="418" text-anchor="middle" font-size="10" font-family="Malgun Gothic, Apple SD Gothic Neo, Noto Sans CJK KR, sans-serif" fill="#333">2025-11-05</text><line x1="773.2" y1="404" x2="773.2" y2="414" stroke="#bbb"/><text x="773.2" y="418" text-anchor="middle" font-size="10" font-family="Malgun Gothic, Apple SD Gothic Neo, Noto Sans CJK KR, sans-serif" fill="#333">2025-12-09</text><line x1="940.4" y1="404" x2="940.4" y2="414" stroke="#bbb"/><text x="940.4" y="418" text-anchor="end" font-size="10" font-family="Malgun Gothic, Apple SD Gothic Neo, Noto Sans CJK KR, sans-serif" fill="#333">2026-01-14</text><text x="72" y="436" font-size="11" font-family="Malgun Gothic, Apple SD Gothic Neo, Noto Sans CJK KR, sans-serif" fill="#922b21">큰 조정 시작 고점 없음 (판정일 고가가 창 최고)</text><text x="72" y="449" font-size="11" font-family="Malgun Gothic, Apple SD Gothic Neo, Noto Sans CJK KR, sans-serif" fill="#d35400">최근 재하락 시작 고점 2026-01-05 · 12,960 · 확정 2026-01-08</text><text x="72" y="462" font-size="11" font-family="Malgun Gothic, Apple SD Gothic Neo, Noto Sans CJK KR, sans-serif" fill="#117a65">최근 재하락 시작 고점 뒤 최저점 2026-01-08 · 10,250 · 확정 2026-01-13</text><text x="72" y="475" font-size="11" font-family="Malgun Gothic, Apple SD Gothic Neo, Noto Sans CJK KR, sans-serif" fill="#566573">코드 손절 기준 저점(B에서 계산) 2025-12-30 · 8,670 · 관찰만</text><text x="72" y="508" font-size="11" font-family="Malgun Gothic, Apple SD Gothic Neo, Noto Sans CJK KR, sans-serif" fill="#333">빨강 상승 · 파랑 하락 · 주황 MA20 · 보라 MA60(60개 이상이 있을 때) · 점선은 판정일. 거래량은 아래 칸. 눈금은 봉 날짜.</text></svg>