<svg xmlns="http://www.w3.org/2000/svg" width="960" height="520" viewBox="0 0 960 520"><!-- last_available_at=1730356200 bars=120 --><rect width="960" height="520" fill="#fff"/><text x="72" y="18" font-size="13" font-family="Malgun Gothic, Apple SD Gothic Neo, Noto Sans CJK KR, sans-serif">테크윙 089030.KQ · 판정일 2024-10-31 · 120거래일 · 추가 검토(B 확인 뒤)</text><text x="8" y="28" font-size="11" font-family="Malgun Gothic, Apple SD Gothic Neo, Noto Sans CJK KR, sans-serif">72,499</text><text x="8" y="314" font-size="11" font-family="Malgun Gothic, Apple SD Gothic Neo, Noto Sans CJK KR, sans-serif">26,628</text><line x1="75.6" y1="256.5" x2="75.6" y2="267.1" stroke="#c0392b"/><rect x="73.4" y="257.1" width="4.4" height="3.7" fill="#c0392b"/><rect x="73.4" y="389.4" width="4.4" height="12.6" fill="#c0392b"/><line x1="82.9" y1="237.5" x2="82.9" y2="268.0" stroke="#2471a3"/><rect x="80.7" y="247.5" width="4.4" height="15.0" fill="#2471a3"/><rect x="80.7" y="370.3" width="4.4" height="31.7" fill="#2471a3"/><line x1="90.2" y1="259.6" x2="90.2" y2="279.9" stroke="#2471a3"/><rect x="88.0" y="260.6" width="4.4" height="14.0" fill="#2471a3"/><rect x="88.0" y="371.8" width="4.4" height="30.2" fill="#2471a3"/><line x1="97.4" y1="271.8" x2="97.4" y2="279.9" stroke="#2471a3"/><rect x="95.2" y="272.4" width="4.4" height="2.2" fill="#2471a3"/><rect x="95.2" y="385.5" width="4.4" height="16.5" fill="#2471a3"/><line x1="104.7" y1="271.2" x2="104.7" y2="289.9" stroke="#2471a3"/><rect x="102.5" y="271.2" width="4.4" height="15.6" fill="#2471a3"/><rect x="102.5" y="371.9" width="4.4" height="30.1" fill="#2471a3"/><line x1="112.0" y1="277.4" x2="112.0" y2="285.2" stroke="#c0392b"/><rect x="109.8" y="279.3" width="4.4" height="5.0" fill="#c0392b"/><rect x="109.8" y="385.3" width="4.4" height="16.7" fill="#c0392b"/><line x1="119.2" y1="259.3" x2="119.2" y2="276.8" stroke="#c0392b"/><rect x="117.0" y="261.5" width="4.4" height="14.3" fill="#c0392b"/><rect x="117.0" y="360.4" width="4.4" height="41.6" fill="#c0392b"/><line x1="126.5" y1="236.2" x2="126.5" y2="267.1" stroke="#c0392b"/><rect x="124.3" y="249.6" width="4.4" height="1.6" fill="#c0392b"/><rect x="124.3" y="343.5" width="4.4" height="58.5" fill="#c0392b"/><line x1="133.8" y1="246.2" x2="133.8" y2="261.2" stroke="#c0392b"/><rect x="131.6" y="248.1" width="4.4" height="3.4" fill="#c0392b"/><rect x="131.6" y="385.2" width="4.4" height="16.8" fill="#c0392b"/><line x1="141.0" y1="219.4" x2="141.0" y2="258.1" stroke="#c0392b"/><rect x="138.8" y="224.4" width="4.4" height="23.4" fill="#c0392b"/><rect x="138.8" y="358.4" width="4.4" height="43.6" fill="#c0392b"/><line x1="148.3" y1="214.1" x2="148.3" y2="237.2" stroke="#2471a3"/><rect x="146.1" y="225.6" width="4.4" height="8.4" fill="#2471a3"/><rect x="146.1" y="372.5" width="4.4" height="29.5" fill="#2471a3"/><line x1="155.6" y1="220.3" x2="155.6" y2="240.0" stroke="#c0392b"/><rect x="153.4" y="232.5" width="4.4" height="2.2" fill="#c0392b"/><rect x="153.4" y="380.2" width="4.4" height="21.8" fill="#c0392b"/><line x1="162.8" y1="219.4" x2="162.8" y2="236.6" stroke="#2471a3"/><rect x="160.6" y="223.1" width="4.4" height="9.4" fill="#2471a3"/><rect x="160.6" y="373.6" width="4.4" height="28.4" fill="#2471a3"/><line x1="170.1" y1="227.8" x2="170.1" y2="242.8" stroke="#2471a3"/><rect x="167.9" y="234.4" width="4.4" height="2.8" fill="#2471a3"/><rect x="167.9" y="380.7" width="4.4" height="21.3" fill="#2471a3"/><line x1="177.4" y1="225.0" x2="177.4" y2="239.7" stroke="#c0392b"/><rect x="175.2" y="225.0" width="4.4" height="12.2" fill="#c0392b"/><rect x="175.2" y="379.4" width="4.4" height="22.6" fill="#c0392b"/><line x1="184.6" y1="198.2" x2="184.6" y2="227.2" stroke="#c0392b"/><rect x="182.4" y="208.8" width="4.4" height="16.2" fill="#c0392b"/><rect x="182.4" y="363.0" width="4.4" height="39.0" fill="#c0392b"/><line x1="191.9" y1="200.4" x2="191.9" y2="221.3" stroke="#2471a3"/><rect x="189.7" y="206.6" width="4.4" height="13.1" fill="#2471a3"/><rect x="189.7" y="384.7" width="4.4" height="17.3" fill="#2471a3"/><line x1="199.2" y1="219.7" x2="199.2" y2="230.9" stroke="#2471a3"/><rect x="197.0" y="224.1" width="4.4" height="4.1" fill="#2471a3"/><rect x="197.0" y="390.2" width="4.4" height="11.8" fill="#2471a3"/><line x1="206.4" y1="207.6" x2="206.4" y2="246.2" stroke="#c0392b"/><rect x="204.2" y="210.1" width="4.4" height="17.1" fill="#c0392b"/><rect x="204.2" y="348.7" width="4.4" height="53.3" fill="#c0392b"/><line x1="213.7" y1="206.0" x2="213.7" y2="225.3" stroke="#c0392b"/><rect x="211.5" y="209.7" width="4.4" height="2.8" fill="#c0392b"/><rect x="211.5" y="380.4" width="4.4" height="21.6" fill="#c0392b"/><line x1="221.0" y1="199.5" x2="221.0" y2="216.0" stroke="#2471a3"/><rect x="218.8" y="208.8" width="4.4" height="5.9" fill="#2471a3"/><rect x="218.8" y="386.5" width="4.4" height="15.5" fill="#2471a3"/><line x1="228.2" y1="200.1" x2="228.2" y2="220.7" stroke="#c0392b"/><rect x="226.0" y="203.2" width="4.4" height="4.4" fill="#c0392b"/><rect x="226.0" y="377.0" width="4.4" height="25.0" fill="#c0392b"/><line x1="235.5" y1="184.5" x2="235.5" y2="214.7" stroke="#c0392b"/><rect x="233.3" y="204.4" width="4.4" height="5.6" fill="#c0392b"/><rect x="233.3" y="371.1" width="4.4" height="30.9" fill="#c0392b"/><line x1="242.8" y1="185.7" x2="242.8" y2="210.1" stroke="#c0392b"/><rect x="240.6" y="190.4" width="4.4" height="16.8" fill="#c0392b"/><rect x="240.6" y="381.7" width="4.4" height="20.3" fill="#c0392b"/><line x1="250.0" y1="190.7" x2="250.0" y2="210.1" stroke="#2471a3"/><rect x="247.8" y="190.7" width="4.4" height="16.5" fill="#2471a3"/><rect x="247.8" y="386.5" width="4.4" height="15.5" fill="#2471a3"/><line x1="257.3" y1="203.5" x2="257.3" y2="220.3" stroke="#c0392b"/><rect x="255.1" y="205.4" width="4.4" height="1.9" fill="#c0392b"/><rect x="255.1" y="390.0" width="4.4" height="12.0" fill="#c0392b"/><line x1="264.6" y1="194.5" x2="264.6" y2="211.0" stroke="#2471a3"/><rect x="262.4" y="194.5" width="4.4" height="11.8" fill="#2471a3"/><rect x="262.4" y="377.4" width="4.4" height="24.6" fill="#2471a3"/><line x1="271.8" y1="202.6" x2="271.8" y2="216.3" stroke="#2471a3"/><rect x="269.6" y="206.9" width="4.4" height="1.9" fill="#2471a3"/><rect x="269.6" y="387.9" width="4.4" height="14.1" fill="#2471a3"/><line x1="279.1" y1="193.5" x2="279.1" y2="212.5" stroke="#c0392b"/><rect x="276.9" y="195.1" width="4.4" height="13.7" fill="#c0392b"/><rect x="276.9" y="384.4" width="4.4" height="17.6" fill="#c0392b"/><line x1="286.4" y1="170.1" x2="286.4" y2="196.6" stroke="#c0392b"/><rect x="284.2" y="170.1" width="4.4" height="25.9" fill="#c0392b"/><rect x="284.2" y="379.7" width="4.4" height="22.3" fill="#c0392b"/><line x1="293.6" y1="149.6" x2="293.6" y2="178.6" stroke="#c0392b"/><rect x="291.4" y="158.3" width="4.4" height="11.2" fill="#c0392b"/><rect x="291.4" y="378.5" width="4.4" height="23.5" fill="#c0392b"/><line x1="300.9" y1="150.8" x2="300.9" y2="168.3" stroke="#c0392b"/><rect x="298.7" y="156.4" width="4.4" height="8.7" fill="#c0392b"/><rect x="298.7" y="390.5" width="4.4" height="11.5" fill="#c0392b"/><line x1="308.2" y1="158.3" x2="308.2" y2="174.8" stroke="#c0392b"/><rect x="306.0" y="160.8" width="4.4" height="7.5" fill="#c0392b"/><rect x="306.0" y="389.8" width="4.4" height="12.2" fill="#c0392b"/><line x1="315.4" y1="145.2" x2="315.4" y2="169.5" stroke="#c0392b"/><rect x="313.2" y="145.8" width="4.4" height="17.5" fill="#c0392b"/><rect x="313.2" y="386.3" width="4.4" height="15.7" fill="#c0392b"/><line x1="322.7" y1="143.3" x2="322.7" y2="158.3" stroke="#c0392b"/><rect x="320.5" y="153.3" width="4.4" height="4.4" fill="#c0392b"/><rect x="320.5" y="393.5" width="4.4" height="8.5" fill="#c0392b"/><line x1="330.0" y1="134.6" x2="330.0" y2="153.9" stroke="#c0392b"/><rect x="327.8" y="140.2" width="4.4" height="5.6" fill="#c0392b"/><rect x="327.8" y="385.4" width="4.4" height="16.6" fill="#c0392b"/><line x1="337.2" y1="107.2" x2="337.2" y2="147.7" stroke="#c0392b"/><rect x="335.0" y="111.5" width="4.4" height="31.8" fill="#c0392b"/><rect x="335.0" y="375.0" width="4.4" height="27.0" fill="#c0392b"/><line x1="344.5" y1="79.1" x2="344.5" y2="109.7" stroke="#c0392b"/><rect x="342.3" y="82.2" width="4.4" height="26.8" fill="#c0392b"/><rect x="342.3" y="370.6" width="4.4" height="31.4" fill="#c0392b"/><line x1="351.8" y1="76.0" x2="351.8" y2="124.6" stroke="#2471a3"/><rect x="349.6" y="87.8" width="4.4" height="32.4" fill="#2471a3"/><rect x="349.6" y="370.4" width="4.4" height="31.6" fill="#2471a3"/><line x1="359.0" y1="99.7" x2="359.0" y2="132.1" stroke="#c0392b"/><rect x="356.8" y="101.6" width="4.4" height="23.1" fill="#c0392b"/><rect x="356.8" y="372.0" width="4.4" height="30.0" fill="#c0392b"/><line x1="366.3" y1="56.7" x2="366.3" y2="94.7" stroke="#c0392b"/><rect x="364.1" y="60.4" width="4.4" height="26.8" fill="#c0392b"/><rect x="364.1" y="371.4" width="4.4" height="30.6" fill="#c0392b"/><line x1="373.6" y1="46.7" x2="373.6" y2="87.8" stroke="#2471a3"/><rect x="371.4" y="54.8" width="4.4" height="8.7" fill="#2471a3"/><rect x="371.4" y="371.2" width="4.4" height="30.8" fill="#2471a3"/><line x1="380.8" y1="52.9" x2="380.8" y2="77.9" stroke="#2471a3"/><rect x="378.6" y="63.5" width="4.4" height="8.1" fill="#2471a3"/><rect x="378.6" y="387.8" width="4.4" height="14.2" fill="#2471a3"/><line x1="388.1" y1="49.2" x2="388.1" y2="72.3" stroke="#c0392b"/><rect x="385.9" y="61.0" width="4.4" height="10.6" fill="#c0392b"/><rect x="385.9" y="388.9" width="4.4" height="13.1" fill="#c0392b"/><line x1="395.4" y1="51.7" x2="395.4" y2="70.4" stroke="#c0392b"/><rect x="393.2" y="53.6" width="4.4" height="2.5" fill="#c0392b"/><rect x="393.2" y="388.9" width="4.4" height="13.1" fill="#c0392b"/><line x1="402.6" y1="52.3" x2="402.6" y2="63.5" stroke="#2471a3"/><rect x="400.4" y="57.9" width="4.4" height="2.5" fill="#2471a3"/><rect x="400.4" y="392.1" width="4.4" height="9.9" fill="#2471a3"/><line x1="409.9" y1="38.6" x2="409.9" y2="61.0" stroke="#c0392b"/><rect x="407.7" y="51.7" width="4.4" height="5.6" fill="#c0392b"/><rect x="407.7" y="384.2" width="4.4" height="17.8" fill="#c0392b"/><line x1="417.2" y1="61.0" x2="417.2" y2="90.3" stroke="#c0392b"/><rect x="415.0" y="70.4" width="4.4" height="1.0" fill="#c0392b"/><rect x="415.0" y="377.1" width="4.4" height="24.9" fill="#c0392b"/><line x1="424.4" y1="65.4" x2="424.4" y2="91.6" stroke="#2471a3"/><rect x="422.2" y="69.8" width="4.4" height="13.7" fill="#2471a3"/><rect x="422.2" y="385.9" width="4.4" height="16.1" fill="#2471a3"/><line x1="431.7" y1="84.7" x2="431.7" y2="102.2" stroke="#2471a3"/><rect x="429.5" y="87.2" width="4.4" height="7.5" fill="#2471a3"/><rect x="429.5" y="381.4" width="4.4" height="20.6" fill="#2471a3"/><line x1="439.0" y1="93.5" x2="439.0" y2="155.8" stroke="#2471a3"/><rect x="436.8" y="93.5" width="4.4" height="58.0" fill="#2471a3"/><rect x="436.8" y="322.0" width="4.4" height="80.0" fill="#2471a3"/><line x1="446.2" y1="146.5" x2="446.2" y2="177.6" stroke="#c0392b"/><rect x="444.0" y="146.5" width="4.4" height="24.6" fill="#c0392b"/><rect x="444.0" y="345.5" width="4.4" height="56.5" fill="#c0392b"/><line x1="453.5" y1="136.5" x2="453.5" y2="158.3" stroke="#2471a3"/><rect x="451.3" y="143.3" width="4.4" height="9.4" fill="#2471a3"/><rect x="451.3" y="368.7" width="4.4" height="33.3" fill="#2471a3"/><line x1="460.8" y1="154.6" x2="460.8" y2="171.1" stroke="#2471a3"/><rect x="458.6" y="155.8" width="4.4" height="3.1" fill="#2471a3"/><rect x="458.6" y="380.4" width="4.4" height="21.6" fill="#2471a3"/><line x1="468.0" y1="140.2" x2="468.0" y2="169.5" stroke="#2471a3"/><rect x="465.8" y="149.6" width="4.4" height="18.1" fill="#2471a3"/><rect x="465.8" y="374.6" width="4.4" height="27.4" fill="#2471a3"/><line x1="475.3" y1="127.1" x2="475.3" y2="176.7" stroke="#c0392b"/><rect x="473.1" y="140.2" width="4.4" height="31.2" fill="#c0392b"/><rect x="473.1" y="347.5" width="4.4" height="54.5" fill="#c0392b"/><line x1="482.6" y1="161.4" x2="482.6" y2="184.2" stroke="#2471a3"/><rect x="480.4" y="166.4" width="4.4" height="6.5" fill="#2471a3"/><rect x="480.4" y="357.0" width="4.4" height="45.0" fill="#2471a3"/><line x1="489.8" y1="155.8" x2="489.8" y2="183.9" stroke="#c0392b"/><rect x="487.6" y="158.3" width="4.4" height="15.0" fill="#c0392b"/><rect x="487.6" y="374.2" width="4.4" height="27.8" fill="#c0392b"/><line x1="497.1" y1="142.1" x2="497.1" y2="160.8" stroke="#c0392b"/><rect x="494.9" y="146.5" width="4.4" height="5.6" fill="#c0392b"/><rect x="494.9" y="380.5" width="4.4" height="21.5" fill="#c0392b"/><line x1="504.4" y1="145.2" x2="504.4" y2="173.0" stroke="#c0392b"/><rect x="502.2" y="149.6" width="4.4" height="11.2" fill="#c0392b"/><rect x="502.2" y="377.6" width="4.4" height="24.4" fill="#c0392b"/><line x1="511.6" y1="139.0" x2="511.6" y2="165.2" stroke="#c0392b"/><rect x="509.4" y="140.2" width="4.4" height="13.1" fill="#c0392b"/><rect x="509.4" y="367.5" width="4.4" height="34.5" fill="#c0392b"/><line x1="518.9" y1="127.1" x2="518.9" y2="159.5" stroke="#2471a3"/><rect x="516.7" y="127.8" width="4.4" height="31.8" fill="#2471a3"/><rect x="516.7" y="375.2" width="4.4" height="26.8" fill="#2471a3"/><line x1="526.2" y1="177.9" x2="526.2" y2="211.9" stroke="#2471a3"/><rect x="524.0" y="180.7" width="4.4" height="25.9" fill="#2471a3"/><rect x="524.0" y="339.1" width="4.4" height="62.9" fill="#2471a3"/><line x1="533.4" y1="207.6" x2="533.4" y2="248.1" stroke="#2471a3"/><rect x="531.2" y="221.6" width="4.4" height="14.3" fill="#2471a3"/><rect x="531.2" y="350.8" width="4.4" height="51.2" fill="#2471a3"/><line x1="540.7" y1="208.2" x2="540.7" y2="230.6" stroke="#2471a3"/><rect x="538.5" y="218.8" width="4.4" height="7.8" fill="#2471a3"/><rect x="538.5" y="361.6" width="4.4" height="40.4" fill="#2471a3"/><line x1="548.0" y1="203.8" x2="548.0" y2="237.8" stroke="#c0392b"/><rect x="545.8" y="212.2" width="4.4" height="14.3" fill="#c0392b"/><rect x="545.8" y="345.8" width="4.4" height="56.2" fill="#c0392b"/><line x1="555.2" y1="222.5" x2="555.2" y2="234.1" stroke="#2471a3"/><rect x="553.0" y="226.9" width="4.4" height="2.8" fill="#2471a3"/><rect x="553.0" y="369.5" width="4.4" height="32.5" fill="#2471a3"/><line x1="562.5" y1="208.8" x2="562.5" y2="226.0" stroke="#2471a3"/><rect x="560.3" y="209.4" width="4.4" height="11.8" fill="#2471a3"/><rect x="560.3" y="367.3" width="4.4" height="34.7" fill="#2471a3"/><line x1="569.8" y1="202.6" x2="569.8" y2="224.4" stroke="#c0392b"/><rect x="567.6" y="213.2" width="4.4" height="7.8" fill="#c0392b"/><rect x="567.6" y="375.0" width="4.4" height="27.0" fill="#c0392b"/><line x1="577.0" y1="207.2" x2="577.0" y2="224.1" stroke="#2471a3"/><rect x="574.8" y="208.2" width="4.4" height="10.3" fill="#2471a3"/><rect x="574.8" y="383.6" width="4.4" height="18.4" fill="#2471a3"/><line x1="584.3" y1="197.9" x2="584.3" y2="213.2" stroke="#2471a3"/><rect x="582.1" y="207.6" width="4.4" height="4.1" fill="#2471a3"/><rect x="582.1" y="374.0" width="4.4" height="28.0" fill="#2471a3"/><line x1="591.6" y1="170.5" x2="591.6" y2="196.3" stroke="#c0392b"/><rect x="589.4" y="175.1" width="4.4" height="19.3" fill="#c0392b"/><rect x="589.4" y="354.7" width="4.4" height="47.3" fill="#c0392b"/><line x1="598.8" y1="171.4" x2="598.8" y2="186.7" stroke="#2471a3"/><rect x="596.6" y="172.6" width="4.4" height="11.2" fill="#2471a3"/><rect x="596.6" y="384.8" width="4.4" height="17.2" fill="#2471a3"/><line x1="606.1" y1="170.5" x2="606.1" y2="194.5" stroke="#2471a3"/><rect x="603.9" y="172.3" width="4.4" height="15.9" fill="#2471a3"/><rect x="603.9" y="372.2" width="4.4" height="29.8" fill="#2471a3"/><line x1="613.4" y1="185.7" x2="613.4" y2="203.8" stroke="#c0392b"/><rect x="611.2" y="189.5" width="4.4" height="5.6" fill="#c0392b"/><rect x="611.2" y="388.6" width="4.4" height="13.4" fill="#c0392b"/><line x1="620.6" y1="186.7" x2="620.6" y2="201.6" stroke="#2471a3"/><rect x="618.4" y="187.9" width="4.4" height="10.3" fill="#2471a3"/><rect x="618.4" y="390.1" width="4.4" height="11.9" fill="#2471a3"/><line x1="627.9" y1="189.5" x2="627.9" y2="211.6" stroke="#c0392b"/><rect x="625.7" y="193.8" width="4.4" height="15.3" fill="#c0392b"/><rect x="625.7" y="387.2" width="4.4" height="14.8" fill="#c0392b"/><line x1="635.2" y1="188.5" x2="635.2" y2="215.4" stroke="#2471a3"/><rect x="633.0" y="190.1" width="4.4" height="23.4" fill="#2471a3"/><rect x="633.0" y="383.7" width="4.4" height="18.3" fill="#2471a3"/><line x1="642.4" y1="214.1" x2="642.4" y2="227.8" stroke="#2471a3"/><rect x="640.2" y="217.5" width="4.4" height="1.2" fill="#2471a3"/><rect x="640.2" y="386.8" width="4.4" height="15.2" fill="#2471a3"/><line x1="649.7" y1="203.8" x2="649.7" y2="221.0" stroke="#c0392b"/><rect x="647.5" y="206.0" width="4.4" height="12.8" fill="#c0392b"/><rect x="647.5" y="382.1" width="4.4" height="19.9" fill="#c0392b"/><line x1="657.0" y1="226.6" x2="657.0" y2="239.0" stroke="#c0392b"/><rect x="654.8" y="230.6" width="4.4" height="1.9" fill="#c0392b"/><rect x="654.8" y="356.4" width="4.4" height="45.6" fill="#c0392b"/><line x1="664.2" y1="220.7" x2="664.2" y2="232.8" stroke="#c0392b"/><rect x="662.0" y="224.7" width="4.4" height="4.1" fill="#c0392b"/><rect x="662.0" y="383.5" width="4.4" height="18.5" fill="#c0392b"/><line x1="671.5" y1="225.3" x2="671.5" y2="239.4" stroke="#2471a3"/><rect x="669.3" y="225.3" width="4.4" height="14.0" fill="#2471a3"/><rect x="669.3" y="382.5" width="4.4" height="19.5" fill="#2471a3"/><line x1="678.8" y1="239.7" x2="678.8" y2="252.4" stroke="#2471a3"/><rect x="676.6" y="239.7" width="4.4" height="11.5" fill="#2471a3"/><rect x="676.6" y="376.9" width="4.4" height="25.1" fill="#2471a3"/><line x1="686.0" y1="264.6" x2="686.0" y2="274.3" stroke="#2471a3"/><rect x="683.8" y="271.2" width="4.4" height="1.0" fill="#2471a3"/><rect x="683.8" y="356.9" width="4.4" height="45.1" fill="#2471a3"/><line x1="693.3" y1="265.2" x2="693.3" y2="277.7" stroke="#2471a3"/><rect x="691.1" y="269.9" width="4.4" height="3.1" fill="#2471a3"/><rect x="691.1" y="379.6" width="4.4" height="22.4" fill="#2471a3"/><line x1="700.6" y1="274.3" x2="700.6" y2="287.4" stroke="#2471a3"/><rect x="698.4" y="276.1" width="4.4" height="6.2" fill="#2471a3"/><rect x="698.4" y="381.1" width="4.4" height="20.9" fill="#2471a3"/><line x1="707.8" y1="271.5" x2="707.8" y2="293.0" stroke="#c0392b"/><rect x="705.6" y="273.6" width="4.4" height="16.2" fill="#c0392b"/><rect x="705.6" y="381.4" width="4.4" height="20.6" fill="#c0392b"/><line x1="715.1" y1="262.1" x2="715.1" y2="272.4" stroke="#c0392b"/><rect x="712.9" y="270.2" width="4.4" height="1.0" fill="#c0392b"/><rect x="712.9" y="378.8" width="4.4" height="23.2" fill="#c0392b"/><line x1="722.4" y1="260.9" x2="722.4" y2="271.8" stroke="#c0392b"/><rect x="720.2" y="266.5" width="4.4" height="1.2" fill="#c0392b"/><rect x="720.2" y="385.9" width="4.4" height="16.1" fill="#c0392b"/><line x1="729.6" y1="242.2" x2="729.6" y2="257.1" stroke="#2471a3"/><rect x="727.4" y="247.5" width="4.4" height="1.6" fill="#2471a3"/><rect x="727.4" y="360.3" width="4.4" height="41.7" fill="#2471a3"/><line x1="736.9" y1="250.6" x2="736.9" y2="264.6" stroke="#2471a3"/><rect x="734.7" y="252.4" width="4.4" height="5.9" fill="#2471a3"/><rect x="734.7" y="385.8" width="4.4" height="16.2" fill="#2471a3"/><line x1="744.2" y1="261.8" x2="744.2" y2="276.1" stroke="#c0392b"/><rect x="742.0" y="263.7" width="4.4" height="2.5" fill="#c0392b"/><rect x="742.0" y="384.9" width="4.4" height="17.1" fill="#c0392b"/><line x1="751.4" y1="246.5" x2="751.4" y2="261.8" stroke="#2471a3"/><rect x="749.2" y="254.3" width="4.4" height="6.2" fill="#2471a3"/><rect x="749.2" y="363.2" width="4.4" height="38.8" fill="#2471a3"/><line x1="758.7" y1="248.4" x2="758.7" y2="266.2" stroke="#c0392b"/><rect x="756.5" y="252.1" width="4.4" height="8.4" fill="#c0392b"/><rect x="756.5" y="383.8" width="4.4" height="18.2" fill="#c0392b"/><line x1="766.0" y1="248.7" x2="766.0" y2="257.1" stroke="#c0392b"/><rect x="763.8" y="249.0" width="4.4" height="1.0" fill="#c0392b"/><rect x="763.8" y="392.3" width="4.4" height="9.7" fill="#c0392b"/><line x1="773.2" y1="242.2" x2="773.2" y2="257.1" stroke="#2471a3"/><rect x="771.0" y="243.7" width="4.4" height="12.5" fill="#2471a3"/><rect x="771.0" y="385.3" width="4.4" height="16.7" fill="#2471a3"/><line x1="780.5" y1="226.9" x2="780.5" y2="240.6" stroke="#c0392b"/><rect x="778.3" y="234.7" width="4.4" height="5.6" fill="#c0392b"/><rect x="778.3" y="336.1" width="4.4" height="65.9" fill="#c0392b"/><line x1="787.8" y1="233.7" x2="787.8" y2="257.4" stroke="#2471a3"/><rect x="785.6" y="238.7" width="4.4" height="17.8" fill="#2471a3"/><rect x="785.6" y="369.0" width="4.4" height="33.0" fill="#2471a3"/><line x1="795.0" y1="245.6" x2="795.0" y2="262.1" stroke="#c0392b"/><rect x="792.8" y="247.8" width="4.4" height="14.3" fill="#c0392b"/><rect x="792.8" y="384.0" width="4.4" height="18.0" fill="#c0392b"/><line x1="802.3" y1="246.2" x2="802.3" y2="259.0" stroke="#c0392b"/><rect x="800.1" y="252.4" width="4.4" height="3.4" fill="#c0392b"/><rect x="800.1" y="389.5" width="4.4" height="12.5" fill="#c0392b"/><line x1="809.6" y1="241.2" x2="809.6" y2="248.4" stroke="#c0392b"/><rect x="807.4" y="245.0" width="4.4" height="3.4" fill="#c0392b"/><rect x="807.4" y="390.5" width="4.4" height="11.5" fill="#c0392b"/><line x1="816.8" y1="225.3" x2="816.8" y2="248.1" stroke="#c0392b"/><rect x="814.6" y="228.8" width="4.4" height="14.0" fill="#c0392b"/><rect x="814.6" y="382.5" width="4.4" height="19.5" fill="#c0392b"/><line x1="824.1" y1="231.9" x2="824.1" y2="240.6" stroke="#c0392b"/><rect x="821.9" y="235.6" width="4.4" height="1.0" fill="#c0392b"/><rect x="821.9" y="393.9" width="4.4" height="8.1" fill="#c0392b"/><line x1="831.4" y1="226.6" x2="831.4" y2="236.6" stroke="#2471a3"/><rect x="829.2" y="230.9" width="4.4" height="4.1" fill="#2471a3"/><rect x="829.2" y="394.5" width="4.4" height="7.5" fill="#2471a3"/><line x1="838.6" y1="231.9" x2="838.6" y2="254.6" stroke="#2471a3"/><rect x="836.4" y="232.5" width="4.4" height="21.2" fill="#2471a3"/><rect x="836.4" y="389.2" width="4.4" height="12.8" fill="#2471a3"/><line x1="845.9" y1="234.4" x2="845.9" y2="254.3" stroke="#c0392b"/><rect x="843.7" y="253.7" width="4.4" height="1.0" fill="#c0392b"/><rect x="843.7" y="391.8" width="4.4" height="10.2" fill="#c0392b"/><line x1="853.2" y1="228.1" x2="853.2" y2="250.6" stroke="#2471a3"/><rect x="851.0" y="229.7" width="4.4" height="16.5" fill="#2471a3"/><rect x="851.0" y="388.3" width="4.4" height="13.7" fill="#2471a3"/><line x1="860.4" y1="255.3" x2="860.4" y2="266.2" stroke="#2471a3"/><rect x="858.2" y="257.1" width="4.4" height="2.8" fill="#2471a3"/><rect x="858.2" y="389.0" width="4.4" height="13.0" fill="#2471a3"/><line x1="867.7" y1="257.1" x2="867.7" y2="273.3" stroke="#2471a3"/><rect x="865.5" y="257.1" width="4.4" height="6.2" fill="#2471a3"/><rect x="865.5" y="389.2" width="4.4" height="12.8" fill="#2471a3"/><line x1="875.0" y1="248.7" x2="875.0" y2="270.5" stroke="#c0392b"/><rect x="872.8" y="256.8" width="4.4" height="5.3" fill="#c0392b"/><rect x="872.8" y="385.7" width="4.4" height="16.3" fill="#c0392b"/><line x1="882.2" y1="243.4" x2="882.2" y2="261.8" stroke="#c0392b"/><rect x="880.0" y="245.3" width="4.4" height="14.3" fill="#c0392b"/><rect x="880.0" y="392.4" width="4.4" height="9.6" fill="#c0392b"/><line x1="889.5" y1="238.1" x2="889.5" y2="247.5" stroke="#c0392b"/><rect x="887.3" y="241.2" width="4.4" height="1.9" fill="#c0392b"/><rect x="887.3" y="393.9" width="4.4" height="8.1" fill="#c0392b"/><line x1="896.8" y1="220.3" x2="896.8" y2="240.6" stroke="#c0392b"/><rect x="894.6" y="224.7" width="4.4" height="12.8" fill="#c0392b"/><rect x="894.6" y="371.8" width="4.4" height="30.2" fill="#c0392b"/><line x1="904.0" y1="211.9" x2="904.0" y2="231.9" stroke="#c0392b"/><rect x="901.8" y="218.8" width="4.4" height="7.5" fill="#c0392b"/><rect x="901.8" y="373.8" width="4.4" height="28.2" fill="#c0392b"/><line x1="911.3" y1="208.8" x2="911.3" y2="222.5" stroke="#2471a3"/><rect x="909.1" y="213.5" width="4.4" height="2.2" fill="#2471a3"/><rect x="909.1" y="381.2" width="4.4" height="20.8" fill="#2471a3"/><line x1="918.6" y1="211.0" x2="918.6" y2="226.3" stroke="#2471a3"/><rect x="916.4" y="215.7" width="4.4" height="6.5" fill="#2471a3"/><rect x="916.4" y="388.3" width="4.4" height="13.7" fill="#2471a3"/><line x1="925.8" y1="220.0" x2="925.8" y2="232.8" stroke="#c0392b"/><rect x="923.6" y="221.6" width="4.4" height="1.9" fill="#c0392b"/><rect x="923.6" y="386.5" width="4.4" height="15.5" fill="#c0392b"/><line x1="933.1" y1="209.1" x2="933.1" y2="225.6" stroke="#c0392b"/><rect x="930.9" y="220.7" width="4.4" height="3.4" fill="#c0392b"/><rect x="930.9" y="383.4" width="4.4" height="18.6" fill="#c0392b"/><line x1="940.4" y1="196.3" x2="940.4" y2="227.5" stroke="#c0392b"/><rect x="938.2" y="201.9" width="4.4" height="24.6" fill="#c0392b"/><rect x="938.2" y="352.5" width="4.4" height="49.5" fill="#c0392b"/><polyline fill="none" stroke="#e67e22" stroke-width="1.4" points="75.6,261.1 82.9,261.2 90.2,261.8 97.4,261.9 104.7,262.8 112.0,264.8 119.2,265.9 126.5,266.4 133.8,266.1 141.0,264.9 148.3,264.7 155.6,263.3 162.8,261.6 170.1,259.3 177.4,257.3 184.6,253.5 191.9,250.5 199.2,248.4 206.4,245.7 213.7,242.8 221.0,240.7 228.2,237.7 235.5,234.2 242.8,230.0 250.0,226.0 257.3,222.3 264.6,219.6 271.8,217.5 279.1,214.9 286.4,212.2 293.6,208.4 300.9,204.6 308.2,201.0 315.4,196.4 322.7,192.8 330.0,189.4 337.2,184.0 344.5,176.7 351.8,172.2 359.0,166.8 366.3,159.1 373.6,152.1 380.8,145.5 388.1,139.0 395.4,131.3 402.6,124.1 409.9,116.3 417.2,109.4 424.4,103.8 431.7,100.1 439.0,99.7 446.2,99.2 453.5,98.8 460.8,99.5 468.0,100.2 475.3,100.2 482.6,103.3 489.8,107.1 497.1,108.4 504.4,110.8 511.6,114.8 518.9,119.6 526.2,126.3 533.4,135.1 540.7,143.7 548.0,151.3 555.2,160.2 562.5,167.7 569.8,174.2 577.0,180.4 584.3,183.4 591.6,184.9 598.8,186.4 606.1,187.9 613.4,189.0 620.6,191.9 627.9,192.9 635.2,195.7 642.4,199.3 649.7,202.1 657.0,206.6 664.2,209.9 671.5,211.5 678.8,212.3 686.0,214.6 693.3,217.6 700.6,220.2 707.8,222.8 715.1,225.7 722.4,228.1 729.6,230.0 736.9,234.1 744.2,238.1 751.4,241.7 758.7,244.9 766.0,247.4 773.2,250.5 780.5,251.6 787.8,253.5 795.0,255.6 802.3,256.7 809.6,257.7 816.8,257.1 824.1,256.4 831.4,254.5 838.6,253.6 845.9,252.1 853.2,250.8 860.4,250.2 867.7,250.1 875.0,250.5 882.2,249.8 889.5,248.7 896.8,246.9 904.0,245.2 911.3,243.6 918.6,241.9 925.8,241.2 933.1,239.4 940.4,237.1"/><polyline fill="none" stroke="#8e44ad" stroke-width="1.4" points="75.6,303.4 82.9,301.4 90.2,299.6 97.4,297.8 104.7,296.3 112.0,294.9 119.2,293.3 126.5,291.3 133.8,289.4 141.0,287.3 148.3,285.4 155.6,283.4 162.8,281.6 170.1,279.7 177.4,277.6 184.6,275.3 191.9,273.1 199.2,271.1 206.4,268.8 213.7,266.6 221.0,264.6 228.2,262.5 235.5,260.4 242.8,258.1 250.0,256.3 257.3,254.6 264.6,253.1 271.8,251.7 279.1,250.1 286.4,247.9 293.6,245.6 300.9,243.4 308.2,241.3 315.4,238.9 322.7,236.9 330.0,234.9 337.2,232.4 344.5,229.4 351.8,226.9 359.0,223.9 366.3,220.3 373.6,217.0 380.8,213.8 388.1,210.3 395.4,206.7 402.6,203.7 409.9,200.6 417.2,197.8 424.4,194.9 431.7,192.4 439.0,190.9 446.2,189.1 453.5,187.1 460.8,185.1 468.0,183.4 475.3,181.0 482.6,179.3 489.8,177.4 497.1,175.4 504.4,173.5 511.6,171.5 518.9,169.8 526.2,168.7 533.4,168.0 540.7,167.0 548.0,165.9 555.2,165.4 562.5,164.9 569.8,164.3 577.0,164.2 584.3,163.8 591.6,162.9 598.8,162.1 606.1,161.3 613.4,160.7 620.6,160.5 627.9,160.1 635.2,159.8 642.4,160.0 649.7,159.9 657.0,160.2 664.2,160.5 671.5,161.1 678.8,162.1 686.0,163.2 693.3,164.3 700.6,165.6 707.8,166.7 715.1,167.9 722.4,169.5 729.6,171.0 736.9,172.7 744.2,174.5 751.4,176.4 758.7,178.0 766.0,179.8 773.2,182.2 780.5,184.8 787.8,187.1 795.0,189.5 802.3,192.7 809.6,195.7 816.8,198.3 824.1,201.2 831.4,204.3 838.6,207.5 845.9,210.9 853.2,213.8 860.4,216.7 867.7,219.5 875.0,221.3 882.2,222.9 889.5,224.4 896.8,225.5 904.0,226.4 911.3,227.6 918.6,228.4 925.8,229.5 933.1,230.7 940.4,231.6"/><circle cx="409.9" cy="38.6" r="5" fill="#922b21" stroke="#922b21" stroke-width="2" data-code="Hb" data-date="2024-07-11" data-price="70800" data-field="high" data-confirmed="1" data-main="1"/><text x="409.9" y="29.6" text-anchor="middle" font-size="12" font-weight="bold" font-family="Malgun Gothic, Apple SD Gothic Neo, Noto Sans CJK KR, sans-serif" fill="#922b21" stroke="#fff" stroke-width="3" paint-order="stroke">Hb</text><circle cx="911.3" cy="208.8" r="5" fill="#d35400" stroke="#d35400" stroke-width="2" data-code="Hr" data-date="2024-10-25" data-price="43500" data-field="high" data-confirmed="1" data-main="1"/><text x="911.3" y="199.8" text-anchor="middle" font-size="12" font-weight="bold" font-family="Malgun Gothic, Apple SD Gothic Neo, Noto Sans CJK KR, sans-serif" fill="#d35400" stroke="#fff" stroke-width="3" paint-order="stroke">Hr</text><circle cx="707.8" cy="293.0" r="5" fill="#1f618d" stroke="#1f618d" stroke-width="2" data-code="Lb" data-date="2024-09-09" data-price="30000" data-field="low" data-confirmed="1" data-main="1"/><text x="707.8" y="310.0" text-anchor="middle" font-size="12" font-weight="bold" font-family="Malgun Gothic, Apple SD Gothic Neo, Noto Sans CJK KR, sans-serif" fill="#1f618d" stroke="#fff" stroke-width="3" paint-order="stroke">Lb</text><circle cx="925.8" cy="232.8" r="5" fill="#fff" stroke="#117a65" stroke-width="2" data-code="Lr" data-date="2024-10-29" data-price="39650" data-field="low" data-confirmed="0" data-main="1"/><text x="925.8" y="249.8" text-anchor="middle" font-size="12" font-weight="bold" font-family="Malgun Gothic, Apple SD Gothic Neo, Noto Sans CJK KR, sans-serif" fill="#117a65" stroke="#fff" stroke-width="3" paint-order="stroke">Lr</text><rect x="871.5" y="267.0" width="7" height="7" fill="#fff" stroke="#566573" stroke-width="1.6" data-code="Cs" data-date="2024-10-18" data-price="33600" data-field="low" data-confirmed="0" data-main="0"/><text x="875.0" y="287.5" text-anchor="middle" font-size="10" font-weight="normal" font-family="Malgun Gothic, Apple SD Gothic Neo, Noto Sans CJK KR, sans-serif" fill="#566573" stroke="#fff" stroke-width="3" paint-order="stroke">Cs</text><line x1="940.4" y1="28" x2="940.4" y2="314" stroke="#222" stroke-dasharray="3 3"/><line x1="75.6" y1="404" x2="75.6" y2="414" stroke="#bbb"/><text x="75.6" y="418" text-anchor="start" font-size="10" font-family="Malgun Gothic, Apple SD Gothic Neo, Noto Sans CJK KR, sans-serif" fill="#333">2024-05-03</text><line x1="250.0" y1="404" x2="250.0" y2="414" stroke="#bbb"/><text x="250.0" y="418" text-anchor="middle" font-size="10" font-family="Malgun Gothic, Apple SD Gothic Neo, Noto Sans CJK KR, sans-serif" fill="#333">2024-06-11</text><line x1="424.4" y1="404" x2="424.4" y2="414" stroke="#bbb"/><text x="424.4" y="418" text-anchor="middle" font-size="10" font-family="Malgun Gothic, Apple SD Gothic Neo, Noto Sans CJK KR, sans-serif" fill="#333">2024-07-15</text><line x1="598.8" y1="404" x2="598.8" y2="414" stroke="#bbb"/><text x="598.8" y="418" text-anchor="middle" font-size="10" font-family="Malgun Gothic, Apple SD Gothic Neo, Noto Sans CJK KR, sans-serif" fill="#333">2024-08-19</text><line x1="773.2" y1="404" x2="773.2" y2="414" stroke="#bbb"/><text x="773.2" y="418" text-anchor="middle" font-size="10" font-family="Malgun Gothic, Apple SD Gothic Neo, Noto Sans CJK KR, sans-serif" fill="#333">2024-09-25</text><line x1="940.4" y1="404" x2="940.4" y2="414" stroke="#bbb"/><text x="940.4" y="418" text-anchor="end" font-size="10" font-family="Malgun Gothic, Apple SD Gothic Neo, Noto Sans CJK KR, sans-serif" fill="#333">2024-10-31</text><text x="72" y="436" font-size="11" font-family="Malgun Gothic, Apple SD Gothic Neo, Noto Sans CJK KR, sans-serif" fill="#922b21">큰 조정 시작 고점 2024-07-11 · 70,800 · 확정 2024-07-16</text><text x="72" y="449" font-size="11" font-family="Malgun Gothic, Apple SD Gothic Neo, Noto Sans CJK KR, sans-serif" fill="#d35400">최근 재하락 시작 고점 2024-10-25 · 43,500 · 확정 2024-10-30</text><text x="72" y="462" font-size="11" font-family="Malgun Gothic, Apple SD Gothic Neo, Noto Sans CJK KR, sans-serif" fill="#1f618d">큰 조정 시작 고점 뒤 최저점 2024-09-09 · 30,000 · 확정 2024-09-12</text><text x="72" y="475" font-size="11" font-family="Malgun Gothic, Apple SD Gothic Neo, Noto Sans CJK KR, sans-serif" fill="#117a65">최근 재하락 시작 고점 뒤 최저점 2024-10-29 · 39,650 · 관찰만</text><text x="72" y="488" font-size="11" font-family="Malgun Gothic, Apple SD Gothic Neo, Noto Sans CJK KR, sans-serif" fill="#566573">코드 손절 기준 저점(B에서 계산) 2024-10-18 · 33,600 · 관찰만</text><text x="72" y="508" font-size="11" font-family="Malgun Gothic, Apple SD Gothic Neo, Noto Sans CJK KR, sans-serif" fill="#333">빨강 상승 · 파랑 하락 · 주황 MA20 · 보라 MA60(60개 이상이 있을 때) · 점선은 판정일. 거래량은 아래 칸. 눈금은 봉 날짜.</text></svg>