<svg xmlns="http://www.w3.org/2000/svg" width="960" height="520" viewBox="0 0 960 520"><!-- last_available_at=1776753000 bars=120 --><rect width="960" height="520" fill="#fff"/><text x="72" y="18" font-size="13" font-family="Malgun Gothic, Apple SD Gothic Neo, Noto Sans CJK KR, sans-serif">LS ELECTRIC 010120.KS · 판정일 2026-04-21 · 120거래일 · 추가 검토(B 확인 뒤)</text><text x="8" y="28" font-size="11" font-family="Malgun Gothic, Apple SD Gothic Neo, Noto Sans CJK KR, sans-serif">205,598</text><text x="8" y="314" font-size="11" font-family="Malgun Gothic, Apple SD Gothic Neo, Noto Sans CJK KR, sans-serif">54,450</text><line x1="75.6" y1="267.5" x2="75.6" y2="277.0" stroke="#2471a3"/><rect x="73.4" y="272.8" width="4.4" height="2.3" fill="#2471a3"/><rect x="73.4" y="366.9" width="4.4" height="35.1" fill="#2471a3"/><line x1="82.9" y1="270.0" x2="82.9" y2="276.3" stroke="#c0392b"/><rect x="80.7" y="271.5" width="4.4" height="2.3" fill="#c0392b"/><rect x="80.7" y="377.9" width="4.4" height="24.1" fill="#c0392b"/><line x1="90.2" y1="257.7" x2="90.2" y2="270.2" stroke="#c0392b"/><rect x="88.0" y="258.1" width="4.4" height="10.6" fill="#c0392b"/><rect x="88.0" y="362.5" width="4.4" height="39.5" fill="#c0392b"/><line x1="97.4" y1="246.7" x2="97.4" y2="256.2" stroke="#c0392b"/><rect x="95.2" y="250.7" width="4.4" height="3.2" fill="#c0392b"/><rect x="95.2" y="367.5" width="4.4" height="34.5" fill="#c0392b"/><line x1="104.7" y1="245.2" x2="104.7" y2="253.9" stroke="#2471a3"/><rect x="102.5" y="247.1" width="4.4" height="5.3" fill="#2471a3"/><rect x="102.5" y="376.4" width="4.4" height="25.6" fill="#2471a3"/><line x1="112.0" y1="224.0" x2="112.0" y2="247.5" stroke="#c0392b"/><rect x="109.8" y="232.2" width="4.4" height="14.9" fill="#c0392b"/><rect x="109.8" y="348.9" width="4.4" height="53.1" fill="#c0392b"/><line x1="119.2" y1="225.2" x2="119.2" y2="237.8" stroke="#2471a3"/><rect x="117.0" y="226.7" width="4.4" height="8.7" fill="#2471a3"/><rect x="117.0" y="367.6" width="4.4" height="34.4" fill="#2471a3"/><line x1="126.5" y1="239.7" x2="126.5" y2="257.9" stroke="#2471a3"/><rect x="124.3" y="242.6" width="4.4" height="3.6" fill="#2471a3"/><rect x="124.3" y="322.0" width="4.4" height="80.0" fill="#2471a3"/><line x1="133.8" y1="236.3" x2="133.8" y2="246.4" stroke="#2471a3"/><rect x="131.6" y="237.3" width="4.4" height="4.7" fill="#2471a3"/><rect x="131.6" y="369.0" width="4.4" height="33.0" fill="#2471a3"/><line x1="141.0" y1="239.5" x2="141.0" y2="254.3" stroke="#c0392b"/><rect x="138.8" y="250.5" width="4.4" height="1.0" fill="#c0392b"/><rect x="138.8" y="370.9" width="4.4" height="31.1" fill="#c0392b"/><line x1="148.3" y1="233.7" x2="148.3" y2="253.0" stroke="#c0392b"/><rect x="146.1" y="236.1" width="4.4" height="15.5" fill="#c0392b"/><rect x="146.1" y="363.8" width="4.4" height="38.2" fill="#c0392b"/><line x1="155.6" y1="224.4" x2="155.6" y2="234.6" stroke="#2471a3"/><rect x="153.4" y="228.9" width="4.4" height="2.1" fill="#2471a3"/><rect x="153.4" y="368.4" width="4.4" height="33.6" fill="#2471a3"/><line x1="162.8" y1="222.9" x2="162.8" y2="235.2" stroke="#2471a3"/><rect x="160.6" y="229.7" width="4.4" height="2.3" fill="#2471a3"/><rect x="160.6" y="375.1" width="4.4" height="26.9" fill="#2471a3"/><line x1="170.1" y1="229.7" x2="170.1" y2="235.2" stroke="#2471a3"/><rect x="167.9" y="232.2" width="4.4" height="1.9" fill="#2471a3"/><rect x="167.9" y="381.9" width="4.4" height="20.1" fill="#2471a3"/><line x1="177.4" y1="242.2" x2="177.4" y2="246.7" stroke="#2471a3"/><rect x="175.2" y="242.6" width="4.4" height="3.0" fill="#2471a3"/><rect x="175.2" y="378.6" width="4.4" height="23.4" fill="#2471a3"/><line x1="184.6" y1="236.9" x2="184.6" y2="242.9" stroke="#c0392b"/><rect x="182.4" y="239.2" width="4.4" height="1.0" fill="#c0392b"/><rect x="182.4" y="386.8" width="4.4" height="15.2" fill="#c0392b"/><line x1="191.9" y1="234.2" x2="191.9" y2="244.5" stroke="#c0392b"/><rect x="189.7" y="243.3" width="4.4" height="1.0" fill="#c0392b"/><rect x="189.7" y="382.0" width="4.4" height="20.0" fill="#c0392b"/><line x1="199.2" y1="235.2" x2="199.2" y2="248.6" stroke="#c0392b"/><rect x="197.0" y="237.3" width="4.4" height="5.1" fill="#c0392b"/><rect x="197.0" y="374.7" width="4.4" height="27.3" fill="#c0392b"/><line x1="206.4" y1="213.1" x2="206.4" y2="228.9" stroke="#2471a3"/><rect x="204.2" y="224.0" width="4.4" height="1.5" fill="#2471a3"/><rect x="204.2" y="359.2" width="4.4" height="42.8" fill="#2471a3"/><line x1="213.7" y1="238.2" x2="213.7" y2="251.1" stroke="#2471a3"/><rect x="211.5" y="238.4" width="4.4" height="11.7" fill="#2471a3"/><rect x="211.5" y="351.6" width="4.4" height="50.4" fill="#2471a3"/><line x1="221.0" y1="245.8" x2="221.0" y2="253.7" stroke="#2471a3"/><rect x="218.8" y="246.0" width="4.4" height="6.1" fill="#2471a3"/><rect x="218.8" y="381.2" width="4.4" height="20.8" fill="#2471a3"/><line x1="228.2" y1="243.7" x2="228.2" y2="251.5" stroke="#2471a3"/><rect x="226.0" y="245.2" width="4.4" height="5.3" fill="#2471a3"/><rect x="226.0" y="383.6" width="4.4" height="18.4" fill="#2471a3"/><line x1="235.5" y1="243.5" x2="235.5" y2="255.1" stroke="#c0392b"/><rect x="233.3" y="247.3" width="4.4" height="1.0" fill="#c0392b"/><rect x="233.3" y="382.4" width="4.4" height="19.6" fill="#c0392b"/><line x1="242.8" y1="235.6" x2="242.8" y2="244.1" stroke="#c0392b"/><rect x="240.6" y="240.3" width="4.4" height="3.8" fill="#c0392b"/><rect x="240.6" y="380.7" width="4.4" height="21.3" fill="#c0392b"/><line x1="250.0" y1="239.0" x2="250.0" y2="244.8" stroke="#2471a3"/><rect x="247.8" y="239.4" width="4.4" height="3.6" fill="#2471a3"/><rect x="247.8" y="389.6" width="4.4" height="12.4" fill="#2471a3"/><line x1="257.3" y1="238.6" x2="257.3" y2="251.5" stroke="#2471a3"/><rect x="255.1" y="239.2" width="4.4" height="10.2" fill="#2471a3"/><rect x="255.1" y="385.0" width="4.4" height="17.0" fill="#2471a3"/><line x1="264.6" y1="238.0" x2="264.6" y2="249.0" stroke="#c0392b"/><rect x="262.4" y="238.2" width="4.4" height="9.8" fill="#c0392b"/><rect x="262.4" y="382.1" width="4.4" height="19.9" fill="#c0392b"/><line x1="271.8" y1="234.2" x2="271.8" y2="241.2" stroke="#2471a3"/><rect x="269.6" y="235.4" width="4.4" height="1.0" fill="#2471a3"/><rect x="269.6" y="388.1" width="4.4" height="13.9" fill="#2471a3"/><line x1="279.1" y1="228.2" x2="279.1" y2="236.1" stroke="#c0392b"/><rect x="276.9" y="232.9" width="4.4" height="2.8" fill="#c0392b"/><rect x="276.9" y="383.5" width="4.4" height="18.5" fill="#c0392b"/><line x1="286.4" y1="221.8" x2="286.4" y2="230.6" stroke="#c0392b"/><rect x="284.2" y="222.1" width="4.4" height="7.6" fill="#c0392b"/><rect x="284.2" y="374.9" width="4.4" height="27.1" fill="#c0392b"/><line x1="293.6" y1="216.5" x2="293.6" y2="225.9" stroke="#c0392b"/><rect x="291.4" y="221.0" width="4.4" height="3.8" fill="#c0392b"/><rect x="291.4" y="384.4" width="4.4" height="17.6" fill="#c0392b"/><line x1="300.9" y1="226.3" x2="300.9" y2="232.2" stroke="#2471a3"/><rect x="298.7" y="226.7" width="4.4" height="4.2" fill="#2471a3"/><rect x="298.7" y="385.2" width="4.4" height="16.8" fill="#2471a3"/><line x1="308.2" y1="226.3" x2="308.2" y2="232.0" stroke="#c0392b"/><rect x="306.0" y="227.4" width="4.4" height="1.7" fill="#c0392b"/><rect x="306.0" y="390.5" width="4.4" height="11.5" fill="#c0392b"/><line x1="315.4" y1="219.5" x2="315.4" y2="228.9" stroke="#2471a3"/><rect x="313.2" y="223.6" width="4.4" height="5.3" fill="#2471a3"/><rect x="313.2" y="382.5" width="4.4" height="19.5" fill="#2471a3"/><line x1="322.7" y1="223.3" x2="322.7" y2="228.8" stroke="#c0392b"/><rect x="320.5" y="225.5" width="4.4" height="1.0" fill="#c0392b"/><rect x="320.5" y="389.6" width="4.4" height="12.4" fill="#c0392b"/><line x1="330.0" y1="232.5" x2="330.0" y2="237.7" stroke="#2471a3"/><rect x="327.8" y="233.1" width="4.4" height="1.1" fill="#2471a3"/><rect x="327.8" y="381.9" width="4.4" height="20.1" fill="#2471a3"/><line x1="337.2" y1="226.3" x2="337.2" y2="237.5" stroke="#2471a3"/><rect x="335.0" y="233.9" width="4.4" height="1.9" fill="#2471a3"/><rect x="335.0" y="376.0" width="4.4" height="26.0" fill="#2471a3"/><line x1="344.5" y1="232.5" x2="344.5" y2="238.6" stroke="#2471a3"/><rect x="342.3" y="232.7" width="4.4" height="4.9" fill="#2471a3"/><rect x="342.3" y="388.2" width="4.4" height="13.8" fill="#2471a3"/><line x1="351.8" y1="239.5" x2="351.8" y2="245.8" stroke="#c0392b"/><rect x="349.6" y="242.4" width="4.4" height="2.8" fill="#c0392b"/><rect x="349.6" y="387.8" width="4.4" height="14.2" fill="#c0392b"/><line x1="359.0" y1="237.7" x2="359.0" y2="242.9" stroke="#2471a3"/><rect x="356.8" y="238.6" width="4.4" height="1.0" fill="#2471a3"/><rect x="356.8" y="388.6" width="4.4" height="13.4" fill="#2471a3"/><line x1="366.3" y1="231.6" x2="366.3" y2="239.2" stroke="#2471a3"/><rect x="364.1" y="234.4" width="4.4" height="2.8" fill="#2471a3"/><rect x="364.1" y="392.1" width="4.4" height="9.9" fill="#2471a3"/><line x1="373.6" y1="235.8" x2="373.6" y2="242.2" stroke="#2471a3"/><rect x="371.4" y="235.8" width="4.4" height="5.7" fill="#2471a3"/><rect x="371.4" y="389.7" width="4.4" height="12.3" fill="#2471a3"/><line x1="380.8" y1="239.2" x2="380.8" y2="242.9" stroke="#2471a3"/><rect x="378.6" y="240.1" width="4.4" height="1.1" fill="#2471a3"/><rect x="378.6" y="395.3" width="4.4" height="6.7" fill="#2471a3"/><line x1="388.1" y1="241.1" x2="388.1" y2="246.4" stroke="#2471a3"/><rect x="385.9" y="241.2" width="4.4" height="3.6" fill="#2471a3"/><rect x="385.9" y="392.0" width="4.4" height="10.0" fill="#2471a3"/><line x1="395.4" y1="237.3" x2="395.4" y2="246.7" stroke="#c0392b"/><rect x="393.2" y="237.5" width="4.4" height="9.1" fill="#c0392b"/><rect x="393.2" y="388.0" width="4.4" height="14.0" fill="#c0392b"/><line x1="402.6" y1="236.9" x2="402.6" y2="242.9" stroke="#2471a3"/><rect x="400.4" y="238.8" width="4.4" height="4.2" fill="#2471a3"/><rect x="400.4" y="391.7" width="4.4" height="10.3" fill="#2471a3"/><line x1="409.9" y1="228.2" x2="409.9" y2="246.2" stroke="#c0392b"/><rect x="407.7" y="230.6" width="4.4" height="10.2" fill="#c0392b"/><rect x="407.7" y="380.3" width="4.4" height="21.7" fill="#c0392b"/><line x1="417.2" y1="224.0" x2="417.2" y2="233.1" stroke="#c0392b"/><rect x="415.0" y="224.8" width="4.4" height="6.2" fill="#c0392b"/><rect x="415.0" y="382.4" width="4.4" height="19.6" fill="#c0392b"/><line x1="424.4" y1="225.2" x2="424.4" y2="239.9" stroke="#2471a3"/><rect x="422.2" y="225.5" width="4.4" height="5.3" fill="#2471a3"/><rect x="422.2" y="369.6" width="4.4" height="32.4" fill="#2471a3"/><line x1="431.7" y1="231.0" x2="431.7" y2="238.4" stroke="#2471a3"/><rect x="429.5" y="232.4" width="4.4" height="4.7" fill="#2471a3"/><rect x="429.5" y="382.5" width="4.4" height="19.5" fill="#2471a3"/><line x1="439.0" y1="232.9" x2="439.0" y2="238.4" stroke="#c0392b"/><rect x="436.8" y="234.4" width="4.4" height="2.6" fill="#c0392b"/><rect x="436.8" y="382.0" width="4.4" height="20.0" fill="#c0392b"/><line x1="446.2" y1="234.1" x2="446.2" y2="237.8" stroke="#2471a3"/><rect x="444.0" y="234.1" width="4.4" height="2.8" fill="#2471a3"/><rect x="444.0" y="389.9" width="4.4" height="12.1" fill="#2471a3"/><line x1="453.5" y1="222.9" x2="453.5" y2="232.7" stroke="#c0392b"/><rect x="451.3" y="229.3" width="4.4" height="1.9" fill="#c0392b"/><rect x="451.3" y="371.0" width="4.4" height="31.0" fill="#c0392b"/><line x1="460.8" y1="224.8" x2="460.8" y2="234.4" stroke="#2471a3"/><rect x="458.6" y="225.2" width="4.4" height="4.0" fill="#2471a3"/><rect x="458.6" y="381.5" width="4.4" height="20.5" fill="#2471a3"/><line x1="468.0" y1="207.4" x2="468.0" y2="228.8" stroke="#c0392b"/><rect x="465.8" y="213.1" width="4.4" height="14.0" fill="#c0392b"/><rect x="465.8" y="336.8" width="4.4" height="65.2" fill="#c0392b"/><line x1="475.3" y1="208.1" x2="475.3" y2="221.4" stroke="#2471a3"/><rect x="473.1" y="214.2" width="4.4" height="3.8" fill="#2471a3"/><rect x="473.1" y="370.1" width="4.4" height="31.9" fill="#2471a3"/><line x1="482.6" y1="213.1" x2="482.6" y2="221.0" stroke="#2471a3"/><rect x="480.4" y="214.2" width="4.4" height="1.1" fill="#2471a3"/><rect x="480.4" y="382.2" width="4.4" height="19.8" fill="#2471a3"/><line x1="489.8" y1="210.8" x2="489.8" y2="217.6" stroke="#c0392b"/><rect x="487.6" y="215.3" width="4.4" height="1.0" fill="#c0392b"/><rect x="487.6" y="384.8" width="4.4" height="17.2" fill="#c0392b"/><line x1="497.1" y1="215.7" x2="497.1" y2="225.5" stroke="#2471a3"/><rect x="494.9" y="217.2" width="4.4" height="1.1" fill="#2471a3"/><rect x="494.9" y="377.2" width="4.4" height="24.8" fill="#2471a3"/><line x1="504.4" y1="221.8" x2="504.4" y2="229.5" stroke="#2471a3"/><rect x="502.2" y="225.2" width="4.4" height="1.0" fill="#2471a3"/><rect x="502.2" y="378.8" width="4.4" height="23.2" fill="#2471a3"/><line x1="511.6" y1="213.4" x2="511.6" y2="222.9" stroke="#2471a3"/><rect x="509.4" y="219.5" width="4.4" height="1.9" fill="#2471a3"/><rect x="509.4" y="379.3" width="4.4" height="22.7" fill="#2471a3"/><line x1="518.9" y1="218.7" x2="518.9" y2="227.1" stroke="#2471a3"/><rect x="516.7" y="220.6" width="4.4" height="3.8" fill="#2471a3"/><rect x="516.7" y="384.0" width="4.4" height="18.0" fill="#2471a3"/><line x1="526.2" y1="223.6" x2="526.2" y2="230.8" stroke="#2471a3"/><rect x="524.0" y="225.5" width="4.4" height="1.9" fill="#2471a3"/><rect x="524.0" y="381.9" width="4.4" height="20.1" fill="#2471a3"/><line x1="533.4" y1="206.2" x2="533.4" y2="233.3" stroke="#c0392b"/><rect x="531.2" y="213.8" width="4.4" height="12.9" fill="#c0392b"/><rect x="531.2" y="331.9" width="4.4" height="70.1" fill="#c0392b"/><line x1="540.7" y1="196.8" x2="540.7" y2="213.8" stroke="#c0392b"/><rect x="538.5" y="200.6" width="4.4" height="4.5" fill="#c0392b"/><rect x="538.5" y="350.1" width="4.4" height="51.9" fill="#c0392b"/><line x1="548.0" y1="199.8" x2="548.0" y2="212.3" stroke="#2471a3"/><rect x="545.8" y="201.7" width="4.4" height="4.5" fill="#2471a3"/><rect x="545.8" y="376.5" width="4.4" height="25.5" fill="#2471a3"/><line x1="555.2" y1="198.3" x2="555.2" y2="210.4" stroke="#c0392b"/><rect x="553.0" y="202.8" width="4.4" height="4.2" fill="#c0392b"/><rect x="553.0" y="378.9" width="4.4" height="23.1" fill="#c0392b"/><line x1="562.5" y1="198.3" x2="562.5" y2="219.9" stroke="#2471a3"/><rect x="560.3" y="208.9" width="4.4" height="9.1" fill="#2471a3"/><rect x="560.3" y="375.4" width="4.4" height="26.6" fill="#2471a3"/><line x1="569.8" y1="184.3" x2="569.8" y2="211.2" stroke="#c0392b"/><rect x="567.6" y="185.4" width="4.4" height="25.0" fill="#c0392b"/><rect x="567.6" y="354.1" width="4.4" height="47.9" fill="#c0392b"/><line x1="577.0" y1="168.0" x2="577.0" y2="188.1" stroke="#c0392b"/><rect x="574.8" y="175.2" width="4.4" height="10.6" fill="#c0392b"/><rect x="574.8" y="369.2" width="4.4" height="32.8" fill="#c0392b"/><line x1="584.3" y1="175.6" x2="584.3" y2="191.9" stroke="#2471a3"/><rect x="582.1" y="182.0" width="4.4" height="1.0" fill="#2471a3"/><rect x="582.1" y="377.0" width="4.4" height="25.0" fill="#2471a3"/><line x1="591.6" y1="190.7" x2="591.6" y2="205.9" stroke="#c0392b"/><rect x="589.4" y="191.9" width="4.4" height="1.0" fill="#c0392b"/><rect x="589.4" y="378.2" width="4.4" height="23.8" fill="#c0392b"/><line x1="598.8" y1="165.7" x2="598.8" y2="182.0" stroke="#c0392b"/><rect x="596.6" y="172.6" width="4.4" height="5.7" fill="#c0392b"/><rect x="596.6" y="374.7" width="4.4" height="27.3" fill="#c0392b"/><line x1="606.1" y1="163.9" x2="606.1" y2="177.5" stroke="#2471a3"/><rect x="603.9" y="171.4" width="4.4" height="4.5" fill="#2471a3"/><rect x="603.9" y="383.7" width="4.4" height="18.3" fill="#2471a3"/><line x1="613.4" y1="161.6" x2="613.4" y2="178.2" stroke="#c0392b"/><rect x="611.2" y="164.6" width="4.4" height="8.3" fill="#c0392b"/><rect x="611.2" y="383.5" width="4.4" height="18.5" fill="#c0392b"/><line x1="620.6" y1="157.8" x2="620.6" y2="166.1" stroke="#2471a3"/><rect x="618.4" y="158.6" width="4.4" height="4.5" fill="#2471a3"/><rect x="618.4" y="384.1" width="4.4" height="17.9" fill="#2471a3"/><line x1="627.9" y1="163.5" x2="627.9" y2="171.0" stroke="#c0392b"/><rect x="625.7" y="166.9" width="4.4" height="1.5" fill="#c0392b"/><rect x="625.7" y="385.9" width="4.4" height="16.1" fill="#c0392b"/><line x1="635.2" y1="159.7" x2="635.2" y2="165.0" stroke="#c0392b"/><rect x="633.0" y="161.2" width="4.4" height="1.0" fill="#c0392b"/><rect x="633.0" y="392.3" width="4.4" height="9.7" fill="#c0392b"/><line x1="642.4" y1="154.4" x2="642.4" y2="163.9" stroke="#c0392b"/><rect x="640.2" y="155.5" width="4.4" height="7.6" fill="#c0392b"/><rect x="640.2" y="390.1" width="4.4" height="11.9" fill="#c0392b"/><line x1="649.7" y1="139.3" x2="649.7" y2="155.2" stroke="#c0392b"/><rect x="647.5" y="143.8" width="4.4" height="7.9" fill="#c0392b"/><rect x="647.5" y="384.2" width="4.4" height="17.8" fill="#c0392b"/><line x1="657.0" y1="124.1" x2="657.0" y2="144.9" stroke="#c0392b"/><rect x="654.8" y="134.7" width="4.4" height="9.5" fill="#c0392b"/><rect x="654.8" y="382.3" width="4.4" height="19.7" fill="#c0392b"/><line x1="664.2" y1="122.6" x2="664.2" y2="134.0" stroke="#2471a3"/><rect x="662.0" y="124.5" width="4.4" height="7.6" fill="#2471a3"/><rect x="662.0" y="380.8" width="4.4" height="21.2" fill="#2471a3"/><line x1="671.5" y1="105.2" x2="671.5" y2="131.7" stroke="#c0392b"/><rect x="669.3" y="113.1" width="4.4" height="15.1" fill="#c0392b"/><rect x="669.3" y="375.7" width="4.4" height="26.3" fill="#c0392b"/><line x1="678.8" y1="109.7" x2="678.8" y2="121.5" stroke="#2471a3"/><rect x="676.6" y="115.0" width="4.4" height="4.2" fill="#2471a3"/><rect x="676.6" y="376.5" width="4.4" height="25.5" fill="#2471a3"/><line x1="686.0" y1="122.6" x2="686.0" y2="148.0" stroke="#2471a3"/><rect x="683.8" y="123.0" width="4.4" height="23.8" fill="#2471a3"/><rect x="683.8" y="373.6" width="4.4" height="28.4" fill="#2471a3"/><line x1="693.3" y1="150.6" x2="693.3" y2="190.0" stroke="#2471a3"/><rect x="691.1" y="158.2" width="4.4" height="21.9" fill="#2471a3"/><rect x="691.1" y="369.3" width="4.4" height="32.7" fill="#2471a3"/><line x1="700.6" y1="139.6" x2="700.6" y2="155.5" stroke="#2471a3"/><rect x="698.4" y="146.8" width="4.4" height="4.9" fill="#2471a3"/><rect x="698.4" y="380.8" width="4.4" height="21.2" fill="#2471a3"/><line x1="707.8" y1="146.1" x2="707.8" y2="164.6" stroke="#c0392b"/><rect x="705.6" y="150.6" width="4.4" height="7.6" fill="#c0392b"/><rect x="705.6" y="387.0" width="4.4" height="15.0" fill="#c0392b"/><line x1="715.1" y1="151.7" x2="715.1" y2="176.7" stroke="#c0392b"/><rect x="712.9" y="159.3" width="4.4" height="12.5" fill="#c0392b"/><rect x="712.9" y="387.9" width="4.4" height="14.1" fill="#c0392b"/><line x1="722.4" y1="135.1" x2="722.4" y2="149.9" stroke="#c0392b"/><rect x="720.2" y="143.0" width="4.4" height="1.0" fill="#c0392b"/><rect x="720.2" y="385.4" width="4.4" height="16.6" fill="#c0392b"/><line x1="729.6" y1="131.3" x2="729.6" y2="149.1" stroke="#2471a3"/><rect x="727.4" y="134.3" width="4.4" height="9.5" fill="#2471a3"/><rect x="727.4" y="391.0" width="4.4" height="11.0" fill="#2471a3"/><line x1="736.9" y1="133.2" x2="736.9" y2="145.3" stroke="#c0392b"/><rect x="734.7" y="137.0" width="4.4" height="7.2" fill="#c0392b"/><rect x="734.7" y="390.6" width="4.4" height="11.4" fill="#c0392b"/><line x1="744.2" y1="130.9" x2="744.2" y2="147.6" stroke="#c0392b"/><rect x="742.0" y="134.3" width="4.4" height="11.4" fill="#c0392b"/><rect x="742.0" y="388.9" width="4.4" height="13.1" fill="#c0392b"/><line x1="751.4" y1="134.0" x2="751.4" y2="145.3" stroke="#2471a3"/><rect x="749.2" y="135.1" width="4.4" height="4.5" fill="#2471a3"/><rect x="749.2" y="392.8" width="4.4" height="9.2" fill="#2471a3"/><line x1="758.7" y1="121.1" x2="758.7" y2="133.2" stroke="#c0392b"/><rect x="756.5" y="128.7" width="4.4" height="1.9" fill="#c0392b"/><rect x="756.5" y="391.1" width="4.4" height="10.9" fill="#c0392b"/><line x1="766.0" y1="99.5" x2="766.0" y2="120.3" stroke="#c0392b"/><rect x="763.8" y="101.8" width="4.4" height="17.4" fill="#c0392b"/><rect x="763.8" y="382.8" width="4.4" height="19.2" fill="#c0392b"/><line x1="773.2" y1="77.2" x2="773.2" y2="107.5" stroke="#c0392b"/><rect x="771.0" y="86.7" width="4.4" height="20.4" fill="#c0392b"/><rect x="771.0" y="383.4" width="4.4" height="18.6" fill="#c0392b"/><line x1="780.5" y1="73.8" x2="780.5" y2="89.3" stroke="#2471a3"/><rect x="778.3" y="76.1" width="4.4" height="5.7" fill="#2471a3"/><rect x="778.3" y="385.3" width="4.4" height="16.7" fill="#2471a3"/><line x1="787.8" y1="89.7" x2="787.8" y2="105.6" stroke="#2471a3"/><rect x="785.6" y="93.8" width="4.4" height="11.7" fill="#2471a3"/><rect x="785.6" y="387.0" width="4.4" height="15.0" fill="#2471a3"/><line x1="795.0" y1="88.2" x2="795.0" y2="113.9" stroke="#2471a3"/><rect x="792.8" y="90.8" width="4.4" height="18.5" fill="#2471a3"/><rect x="792.8" y="380.8" width="4.4" height="21.2" fill="#2471a3"/><line x1="802.3" y1="84.0" x2="802.3" y2="101.8" stroke="#2471a3"/><rect x="800.1" y="96.1" width="4.4" height="1.5" fill="#2471a3"/><rect x="800.1" y="387.1" width="4.4" height="14.9" fill="#2471a3"/><line x1="809.6" y1="91.2" x2="809.6" y2="104.1" stroke="#2471a3"/><rect x="807.4" y="93.8" width="4.4" height="7.6" fill="#2471a3"/><rect x="807.4" y="391.8" width="4.4" height="10.2" fill="#2471a3"/><line x1="816.8" y1="109.4" x2="816.8" y2="128.7" stroke="#2471a3"/><rect x="814.6" y="113.1" width="4.4" height="1.0" fill="#2471a3"/><rect x="814.6" y="383.5" width="4.4" height="18.5" fill="#2471a3"/><line x1="824.1" y1="119.2" x2="824.1" y2="134.3" stroke="#c0392b"/><rect x="821.9" y="123.7" width="4.4" height="9.8" fill="#c0392b"/><rect x="821.9" y="388.4" width="4.4" height="13.6" fill="#c0392b"/><line x1="831.4" y1="127.1" x2="831.4" y2="146.4" stroke="#2471a3"/><rect x="829.2" y="132.4" width="4.4" height="12.9" fill="#2471a3"/><rect x="829.2" y="379.0" width="4.4" height="23.0" fill="#2471a3"/><line x1="838.6" y1="110.5" x2="838.6" y2="130.2" stroke="#c0392b"/><rect x="836.4" y="116.6" width="4.4" height="9.1" fill="#c0392b"/><rect x="836.4" y="384.5" width="4.4" height="17.5" fill="#c0392b"/><line x1="845.9" y1="104.4" x2="845.9" y2="133.6" stroke="#2471a3"/><rect x="843.7" y="104.4" width="4.4" height="25.4" fill="#2471a3"/><rect x="843.7" y="381.4" width="4.4" height="20.6" fill="#2471a3"/><line x1="853.2" y1="117.7" x2="853.2" y2="137.7" stroke="#2471a3"/><rect x="851.0" y="117.7" width="4.4" height="8.3" fill="#2471a3"/><rect x="851.0" y="391.3" width="4.4" height="10.7" fill="#2471a3"/><line x1="860.4" y1="103.3" x2="860.4" y2="118.1" stroke="#c0392b"/><rect x="858.2" y="114.7" width="4.4" height="1.0" fill="#c0392b"/><rect x="858.2" y="389.3" width="4.4" height="12.7" fill="#c0392b"/><line x1="867.7" y1="106.3" x2="867.7" y2="126.8" stroke="#2471a3"/><rect x="865.5" y="106.7" width="4.4" height="12.1" fill="#2471a3"/><rect x="865.5" y="388.8" width="4.4" height="13.2" fill="#2471a3"/><line x1="875.0" y1="118.8" x2="875.0" y2="118.8" stroke="#c0392b"/><rect x="872.8" y="118.8" width="4.4" height="1.0" fill="#c0392b"/><rect x="872.8" y="401.0" width="4.4" height="1.0" fill="#c0392b"/><line x1="882.2" y1="118.8" x2="882.2" y2="118.8" stroke="#c0392b"/><rect x="880.0" y="118.8" width="4.4" height="1.0" fill="#c0392b"/><rect x="880.0" y="401.0" width="4.4" height="1.0" fill="#c0392b"/><line x1="889.5" y1="118.8" x2="889.5" y2="118.8" stroke="#c0392b"/><rect x="887.3" y="118.8" width="4.4" height="1.0" fill="#c0392b"/><rect x="887.3" y="401.0" width="4.4" height="1.0" fill="#c0392b"/><line x1="896.8" y1="60.7" x2="896.8" y2="93.1" stroke="#c0392b"/><rect x="894.6" y="78.0" width="4.4" height="15.1" fill="#c0392b"/><rect x="894.6" y="346.6" width="4.4" height="55.4" fill="#c0392b"/><line x1="904.0" y1="38.6" x2="904.0" y2="70.6" stroke="#2471a3"/><rect x="901.8" y="38.6" width="4.4" height="27.2" fill="#2471a3"/><rect x="901.8" y="355.7" width="4.4" height="46.3" fill="#2471a3"/><line x1="911.3" y1="55.2" x2="911.3" y2="68.1" stroke="#2471a3"/><rect x="909.1" y="55.2" width="4.4" height="8.3" fill="#2471a3"/><rect x="909.1" y="379.6" width="4.4" height="22.4" fill="#2471a3"/><line x1="918.6" y1="54.3" x2="918.6" y2="64.1" stroke="#2471a3"/><rect x="916.4" y="58.6" width="4.4" height="1.5" fill="#2471a3"/><rect x="916.4" y="386.0" width="4.4" height="16.0" fill="#2471a3"/><line x1="925.8" y1="56.6" x2="925.8" y2="65.3" stroke="#2471a3"/><rect x="923.6" y="59.8" width="4.4" height="4.4" fill="#2471a3"/><rect x="923.6" y="384.1" width="4.4" height="17.9" fill="#2471a3"/><line x1="933.1" y1="61.3" x2="933.1" y2="69.8" stroke="#2471a3"/><rect x="930.9" y="62.4" width="4.4" height="6.1" fill="#2471a3"/><rect x="930.9" y="387.1" width="4.4" height="14.9" fill="#2471a3"/><line x1="940.4" y1="63.6" x2="940.4" y2="71.5" stroke="#2471a3"/><rect x="938.2" y="66.0" width="4.4" height="1.5" fill="#2471a3"/><rect x="938.2" y="385.0" width="4.4" height="17.0" fill="#2471a3"/><polyline fill="none" stroke="#e67e22" stroke-width="1.4" points="75.6,300.9 82.9,299.2 90.2,296.7 97.4,293.6 104.7,290.6 112.0,286.5 119.2,282.8 126.5,279.7 133.8,276.5 141.0,273.9 148.3,270.4 155.6,266.7 162.8,263.2 170.1,259.9 177.4,257.0 184.6,254.2 191.9,251.4 199.2,248.4 206.4,245.8 213.7,244.4 221.0,243.3 228.2,242.2 235.5,241.7 242.8,241.2 250.0,240.7 257.3,241.5 264.6,241.7 271.8,241.2 279.1,240.7 286.4,239.3 293.6,238.5 300.9,238.5 308.2,238.3 315.4,238.0 322.7,237.0 330.0,236.8 337.2,236.4 344.5,236.4 351.8,237.3 359.0,236.7 366.3,236.0 373.6,235.5 380.8,235.2 388.1,235.4 395.4,235.2 402.6,234.9 409.9,234.5 417.2,233.9 424.4,233.8 431.7,234.6 439.0,235.2 446.2,235.5 453.5,235.6 460.8,235.6 468.0,235.0 475.3,234.2 482.6,233.2 489.8,232.1 497.1,230.9 504.4,230.2 511.6,229.4 518.9,228.5 526.2,227.9 533.4,226.3 540.7,224.5 548.0,222.6 555.2,221.2 562.5,220.9 569.8,218.6 577.0,215.5 584.3,212.9 591.6,210.7 598.8,207.9 606.1,205.2 613.4,202.8 620.6,200.0 627.9,197.6 635.2,194.9 642.4,191.8 649.7,187.7 657.0,183.3 664.2,178.7 671.5,173.0 678.8,168.3 686.0,165.6 693.3,164.3 700.6,161.7 707.8,158.4 715.1,157.1 722.4,155.5 729.6,153.5 736.9,150.8 744.2,148.9 751.4,147.0 758.7,145.2 766.0,142.2 773.2,138.2 780.5,134.2 787.8,131.7 795.0,130.0 802.3,128.1 809.6,126.6 816.8,126.6 824.1,126.8 831.4,126.8 838.6,123.6 845.9,122.5 853.2,121.3 860.4,119.0 867.7,117.8 875.0,116.6 882.2,115.7 889.5,114.9 896.8,111.8 904.0,108.7 911.3,106.7 918.6,105.4 925.8,104.5 933.1,102.7 940.4,100.6"/><polyline fill="none" stroke="#8e44ad" stroke-width="1.4" points="75.6,303.4 82.9,302.8 90.2,302.0 97.4,301.1 104.7,300.3 112.0,299.1 119.2,298.0 126.5,297.0 133.8,296.2 141.0,295.5 148.3,294.5 155.6,293.4 162.8,292.3 170.1,291.2 177.4,290.3 184.6,289.2 191.9,288.1 199.2,286.9 206.4,285.3 213.7,284.2 221.0,283.2 228.2,282.3 235.5,281.2 242.8,280.1 250.0,279.0 257.3,278.0 264.6,276.7 271.8,275.5 279.1,274.2 286.4,272.8 293.6,271.4 300.9,270.1 308.2,268.8 315.4,267.6 322.7,266.4 330.0,265.3 337.2,264.3 344.5,263.3 351.8,262.3 359.0,261.2 366.3,260.1 373.6,259.0 380.8,257.9 388.1,256.7 395.4,255.5 402.6,254.3 409.9,253.0 417.2,251.6 424.4,250.3 431.7,249.2 439.0,248.1 446.2,246.9 453.5,245.7 460.8,244.5 468.0,243.0 475.3,241.7 482.6,240.3 489.8,239.0 497.1,238.0 504.4,237.1 511.6,236.2 518.9,235.4 526.2,234.9 533.4,234.3 540.7,233.4 548.0,233.0 555.2,232.5 562.5,232.0 569.8,231.1 577.0,229.8 584.3,228.9 591.6,228.3 598.8,227.3 606.1,226.3 613.4,224.9 620.6,223.7 627.9,222.4 635.2,221.1 642.4,220.0 649.7,218.2 657.0,216.2 664.2,214.3 671.5,212.0 678.8,210.0 686.0,208.4 693.3,207.3 700.6,205.8 707.8,204.4 715.1,203.2 722.4,201.8 729.6,200.6 736.9,199.0 744.2,197.4 751.4,196.0 758.7,194.3 766.0,192.1 773.2,189.6 780.5,187.1 787.8,184.8 795.0,182.6 802.3,180.3 809.6,178.0 816.8,175.8 824.1,173.8 831.4,172.3 838.6,170.2 845.9,168.5 853.2,166.8 860.4,164.9 867.7,162.9 875.0,161.0 882.2,159.0 889.5,157.2 896.8,154.7 904.0,152.2 911.3,149.7 918.6,147.1 925.8,144.5 933.1,142.0 940.4,139.4"/><circle cx="904.0" cy="38.6" r="5" fill="#922b21" stroke="#922b21" stroke-width="2" data-code="Hb·Hr" data-date="2026-04-14" data-price="200000" data-field="high" data-confirmed="1" data-main="1"/><text x="904.0" y="29.6" text-anchor="middle" font-size="12" font-weight="bold" font-family="Malgun Gothic, Apple SD Gothic Neo, Noto Sans CJK KR, sans-serif" fill="#922b21" stroke="#fff" stroke-width="3" paint-order="stroke">Hb·Hr</text><circle cx="940.4" cy="71.5" r="5" fill="#fff" stroke="#1f618d" stroke-width="2" data-code="Lb·Lr" data-date="2026-04-21" data-price="182600" data-field="low" data-confirmed="0" data-main="1"/><text x="940.4" y="88.5" text-anchor="middle" font-size="12" font-weight="bold" font-family="Malgun Gothic, Apple SD Gothic Neo, Noto Sans CJK KR, sans-serif" fill="#1f618d" stroke="#fff" stroke-width="3" paint-order="stroke">Lb·Lr</text><rect x="871.5" y="115.3" width="7" height="7" fill="#fff" stroke="#566573" stroke-width="1.6" data-code="Cs" data-date="2026-04-08" data-price="157600" data-field="low" data-confirmed="0" data-main="0"/><text x="875.0" y="135.8" text-anchor="middle" font-size="10" font-weight="normal" font-family="Malgun Gothic, Apple SD Gothic Neo, Noto Sans CJK KR, sans-serif" fill="#566573" stroke="#fff" stroke-width="3" paint-order="stroke">Cs</text><line x1="940.4" y1="28" x2="940.4" y2="314" stroke="#222" stroke-dasharray="3 3"/><line x1="75.6" y1="404" x2="75.6" y2="414" stroke="#bbb"/><text x="75.6" y="418" text-anchor="start" font-size="10" font-family="Malgun Gothic, Apple SD Gothic Neo, Noto Sans CJK KR, sans-serif" fill="#333">2025-10-27</text><line x1="250.0" y1="404" x2="250.0" y2="414" stroke="#bbb"/><text x="250.0" y="418" text-anchor="middle" font-size="10" font-family="Malgun Gothic, Apple SD Gothic Neo, Noto Sans CJK KR, sans-serif" fill="#333">2025-11-28</text><line x1="424.4" y1="404" x2="424.4" y2="414" stroke="#bbb"/><text x="424.4" y="418" text-anchor="middle" font-size="10" font-family="Malgun Gothic, Apple SD Gothic Neo, Noto Sans CJK KR, sans-serif" fill="#333">2026-01-06</text><line x1="598.8" y1="404" x2="598.8" y2="414" stroke="#bbb"/><text x="598.8" y="418" text-anchor="middle" font-size="10" font-family="Malgun Gothic, Apple SD Gothic Neo, Noto Sans CJK KR, sans-serif" fill="#333">2026-02-09</text><line x1="773.2" y1="404" x2="773.2" y2="414" stroke="#bbb"/><text x="773.2" y="418" text-anchor="middle" font-size="10" font-family="Malgun Gothic, Apple SD Gothic Neo, Noto Sans CJK KR, sans-serif" fill="#333">2026-03-19</text><line x1="940.4" y1="404" x2="940.4" y2="414" stroke="#bbb"/><text x="940.4" y="418" text-anchor="end" font-size="10" font-family="Malgun Gothic, Apple SD Gothic Neo, Noto Sans CJK KR, sans-serif" fill="#333">2026-04-21</text><text x="72" y="436" font-size="11" font-family="Malgun Gothic, Apple SD Gothic Neo, Noto Sans CJK KR, sans-serif" fill="#922b21">큰 조정 시작 고점 2026-04-14 · 200,000 · 확정 2026-04-17</text><text x="72" y="449" font-size="11" font-family="Malgun Gothic, Apple SD Gothic Neo, Noto Sans CJK KR, sans-serif" fill="#d35400">최근 재하락 시작 고점 · 큰 조정 시작 고점과 같음 2026-04-14 · 200,000 · 확정 2026-04-17</text><text x="72" y="462" font-size="11" font-family="Malgun Gothic, Apple SD Gothic Neo, Noto Sans CJK KR, sans-serif" fill="#1f618d">큰 조정 시작 고점 뒤 최저점 2026-04-21 · 182,600 · 관찰만</text><text x="72" y="475" font-size="11" font-family="Malgun Gothic, Apple SD Gothic Neo, Noto Sans CJK KR, sans-serif" fill="#117a65">최근 재하락 시작 고점 뒤 최저점 2026-04-21 · 182,600 · 관찰만</text><text x="72" y="488" font-size="11" font-family="Malgun Gothic, Apple SD Gothic Neo, Noto Sans CJK KR, sans-serif" fill="#566573">코드 손절 기준 저점(B에서 계산) 2026-04-08 · 157,600 · 관찰만</text><text x="72" y="508" font-size="11" font-family="Malgun Gothic, Apple SD Gothic Neo, Noto Sans CJK KR, sans-serif" fill="#333">빨강 상승 · 파랑 하락 · 주황 MA20 · 보라 MA60(60개 이상이 있을 때) · 점선은 판정일. 거래량은 아래 칸. 눈금은 봉 날짜.</text></svg>