<svg xmlns="http://www.w3.org/2000/svg" width="960" height="520" viewBox="0 0 960 520"><!-- last_available_at=1788849000 bars=120 --><rect width="960" height="520" fill="#fff"/><text x="72" y="18" font-size="13" font-family="Malgun Gothic, Apple SD Gothic Neo, Noto Sans CJK KR, sans-serif">엑스게이트 356680.KQ · 판정일 2026-09-08 · 120거래일 · 추가 검토(B 확인 뒤)</text><text x="8" y="28" font-size="11" font-family="Malgun Gothic, Apple SD Gothic Neo, Noto Sans CJK KR, sans-serif">31,516</text><text x="8" y="314" font-size="11" font-family="Malgun Gothic, Apple SD Gothic Neo, Noto Sans CJK KR, sans-serif">5,444</text><line x1="75.6" y1="295.6" x2="75.6" y2="297.4" stroke="#2471a3"/><rect x="73.4" y="295.6" width="4.4" height="1.4" fill="#2471a3"/><rect x="73.4" y="401.0" width="4.4" height="1.0" fill="#2471a3"/><line x1="82.9" y1="295.6" x2="82.9" y2="297.8" stroke="#c0392b"/><rect x="80.7" y="296.7" width="4.4" height="1.0" fill="#c0392b"/><rect x="80.7" y="401.0" width="4.4" height="1.0" fill="#c0392b"/><line x1="90.2" y1="296.1" x2="90.2" y2="299.2" stroke="#c0392b"/><rect x="88.0" y="298.0" width="4.4" height="1.0" fill="#c0392b"/><rect x="88.0" y="401.0" width="4.4" height="1.0" fill="#c0392b"/><line x1="97.4" y1="296.5" x2="97.4" y2="297.9" stroke="#c0392b"/><rect x="95.2" y="297.7" width="4.4" height="1.0" fill="#c0392b"/><rect x="95.2" y="401.0" width="4.4" height="1.0" fill="#c0392b"/><line x1="104.7" y1="297.7" x2="104.7" y2="301.9" stroke="#2471a3"/><rect x="102.5" y="300.2" width="4.4" height="1.6" fill="#2471a3"/><rect x="102.5" y="401.0" width="4.4" height="1.0" fill="#2471a3"/><line x1="112.0" y1="297.5" x2="112.0" y2="303.4" stroke="#c0392b"/><rect x="109.8" y="297.6" width="4.4" height="1.0" fill="#c0392b"/><rect x="109.8" y="401.0" width="4.4" height="1.0" fill="#c0392b"/><line x1="119.2" y1="294.0" x2="119.2" y2="299.8" stroke="#c0392b"/><rect x="117.0" y="295.6" width="4.4" height="1.3" fill="#c0392b"/><rect x="117.0" y="401.0" width="4.4" height="1.0" fill="#c0392b"/><line x1="126.5" y1="296.3" x2="126.5" y2="299.9" stroke="#2471a3"/><rect x="124.3" y="296.3" width="4.4" height="3.1" fill="#2471a3"/><rect x="124.3" y="401.0" width="4.4" height="1.0" fill="#2471a3"/><line x1="133.8" y1="292.8" x2="133.8" y2="301.5" stroke="#c0392b"/><rect x="131.6" y="295.0" width="4.4" height="5.8" fill="#c0392b"/><rect x="131.6" y="400.4" width="4.4" height="1.6" fill="#c0392b"/><line x1="141.0" y1="297.3" x2="141.0" y2="300.0" stroke="#2471a3"/><rect x="138.8" y="297.4" width="4.4" height="1.2" fill="#2471a3"/><rect x="138.8" y="401.0" width="4.4" height="1.0" fill="#2471a3"/><line x1="148.3" y1="298.6" x2="148.3" y2="301.3" stroke="#2471a3"/><rect x="146.1" y="299.6" width="4.4" height="1.5" fill="#2471a3"/><rect x="146.1" y="401.0" width="4.4" height="1.0" fill="#2471a3"/><line x1="155.6" y1="296.2" x2="155.6" y2="298.5" stroke="#c0392b"/><rect x="153.4" y="296.8" width="4.4" height="1.6" fill="#c0392b"/><rect x="153.4" y="401.0" width="4.4" height="1.0" fill="#c0392b"/><line x1="162.8" y1="295.3" x2="162.8" y2="301.7" stroke="#2471a3"/><rect x="160.6" y="295.9" width="4.4" height="4.8" fill="#2471a3"/><rect x="160.6" y="401.0" width="4.4" height="1.0" fill="#2471a3"/><line x1="170.1" y1="296.5" x2="170.1" y2="299.8" stroke="#c0392b"/><rect x="167.9" y="298.4" width="4.4" height="1.0" fill="#c0392b"/><rect x="167.9" y="401.0" width="4.4" height="1.0" fill="#c0392b"/><line x1="177.4" y1="288.0" x2="177.4" y2="295.5" stroke="#2471a3"/><rect x="175.2" y="288.0" width="4.4" height="3.9" fill="#2471a3"/><rect x="175.2" y="399.2" width="4.4" height="2.8" fill="#2471a3"/><line x1="184.6" y1="293.4" x2="184.6" y2="297.5" stroke="#2471a3"/><rect x="182.4" y="293.4" width="4.4" height="3.5" fill="#2471a3"/><rect x="182.4" y="401.0" width="4.4" height="1.0" fill="#2471a3"/><line x1="191.9" y1="293.6" x2="191.9" y2="295.8" stroke="#c0392b"/><rect x="189.7" y="293.6" width="4.4" height="1.1" fill="#c0392b"/><rect x="189.7" y="401.0" width="4.4" height="1.0" fill="#c0392b"/><line x1="199.2" y1="294.7" x2="199.2" y2="296.2" stroke="#2471a3"/><rect x="197.0" y="295.2" width="4.4" height="1.0" fill="#2471a3"/><rect x="197.0" y="401.0" width="4.4" height="1.0" fill="#2471a3"/><line x1="206.4" y1="291.7" x2="206.4" y2="294.7" stroke="#c0392b"/><rect x="204.2" y="292.2" width="4.4" height="2.3" fill="#c0392b"/><rect x="204.2" y="401.0" width="4.4" height="1.0" fill="#c0392b"/><line x1="213.7" y1="287.6" x2="213.7" y2="294.9" stroke="#c0392b"/><rect x="211.5" y="289.4" width="4.4" height="4.5" fill="#c0392b"/><rect x="211.5" y="400.3" width="4.4" height="1.7" fill="#c0392b"/><line x1="221.0" y1="264.1" x2="221.0" y2="275.2" stroke="#c0392b"/><rect x="218.8" y="264.1" width="4.4" height="5.4" fill="#c0392b"/><rect x="218.8" y="379.9" width="4.4" height="22.1" fill="#c0392b"/><line x1="228.2" y1="231.3" x2="228.2" y2="231.3" stroke="#c0392b"/><rect x="226.0" y="231.3" width="4.4" height="1.0" fill="#c0392b"/><rect x="226.0" y="401.0" width="4.4" height="1.0" fill="#c0392b"/><line x1="235.5" y1="188.7" x2="235.5" y2="202.6" stroke="#c0392b"/><rect x="233.3" y="188.7" width="4.4" height="1.0" fill="#c0392b"/><rect x="233.3" y="399.3" width="4.4" height="2.7" fill="#c0392b"/><line x1="242.8" y1="183.6" x2="242.8" y2="217.3" stroke="#2471a3"/><rect x="240.6" y="183.9" width="4.4" height="25.3" fill="#2471a3"/><rect x="240.6" y="340.8" width="4.4" height="61.2" fill="#2471a3"/><line x1="250.0" y1="164.0" x2="250.0" y2="216.9" stroke="#c0392b"/><rect x="247.8" y="193.4" width="4.4" height="16.3" fill="#c0392b"/><rect x="247.8" y="322.0" width="4.4" height="80.0" fill="#c0392b"/><line x1="257.3" y1="183.5" x2="257.3" y2="222.3" stroke="#2471a3"/><rect x="255.1" y="191.2" width="4.4" height="20.6" fill="#2471a3"/><rect x="255.1" y="379.7" width="4.4" height="22.3" fill="#2471a3"/><line x1="264.6" y1="211.9" x2="264.6" y2="226.4" stroke="#2471a3"/><rect x="262.4" y="211.9" width="4.4" height="10.9" fill="#2471a3"/><rect x="262.4" y="394.2" width="4.4" height="7.8" fill="#2471a3"/><line x1="271.8" y1="206.1" x2="271.8" y2="229.7" stroke="#c0392b"/><rect x="269.6" y="218.6" width="4.4" height="4.4" fill="#c0392b"/><rect x="269.6" y="383.4" width="4.4" height="18.6" fill="#c0392b"/><line x1="279.1" y1="222.3" x2="279.1" y2="234.6" stroke="#2471a3"/><rect x="276.9" y="224.5" width="4.4" height="7.3" fill="#2471a3"/><rect x="276.9" y="395.3" width="4.4" height="6.7" fill="#2471a3"/><line x1="286.4" y1="224.3" x2="286.4" y2="236.5" stroke="#c0392b"/><rect x="284.2" y="226.0" width="4.4" height="5.9" fill="#c0392b"/><rect x="284.2" y="396.6" width="4.4" height="5.4" fill="#c0392b"/><line x1="293.6" y1="221.5" x2="293.6" y2="232.8" stroke="#c0392b"/><rect x="291.4" y="224.5" width="4.4" height="2.2" fill="#c0392b"/><rect x="291.4" y="397.1" width="4.4" height="4.9" fill="#c0392b"/><line x1="300.9" y1="224.8" x2="300.9" y2="230.6" stroke="#2471a3"/><rect x="298.7" y="224.8" width="4.4" height="2.6" fill="#2471a3"/><rect x="298.7" y="399.5" width="4.4" height="2.5" fill="#2471a3"/><line x1="308.2" y1="214.6" x2="308.2" y2="230.3" stroke="#c0392b"/><rect x="306.0" y="219.2" width="4.4" height="9.8" fill="#c0392b"/><rect x="306.0" y="392.6" width="4.4" height="9.4" fill="#c0392b"/><line x1="315.4" y1="204.7" x2="315.4" y2="216.1" stroke="#2471a3"/><rect x="313.2" y="204.7" width="4.4" height="4.4" fill="#2471a3"/><rect x="313.2" y="397.3" width="4.4" height="4.7" fill="#2471a3"/><line x1="322.7" y1="163.4" x2="322.7" y2="218.7" stroke="#c0392b"/><rect x="320.5" y="171.1" width="4.4" height="39.6" fill="#c0392b"/><rect x="320.5" y="357.2" width="4.4" height="44.8" fill="#c0392b"/><line x1="330.0" y1="177.0" x2="330.0" y2="192.7" stroke="#2471a3"/><rect x="327.8" y="185.0" width="4.4" height="5.8" fill="#2471a3"/><rect x="327.8" y="390.2" width="4.4" height="11.8" fill="#2471a3"/><line x1="337.2" y1="195.7" x2="337.2" y2="206.3" stroke="#2471a3"/><rect x="335.0" y="198.9" width="4.4" height="1.1" fill="#2471a3"/><rect x="335.0" y="398.6" width="4.4" height="3.4" fill="#2471a3"/><line x1="344.5" y1="192.2" x2="344.5" y2="206.7" stroke="#2471a3"/><rect x="342.3" y="197.4" width="4.4" height="8.4" fill="#2471a3"/><rect x="342.3" y="398.8" width="4.4" height="3.2" fill="#2471a3"/><line x1="351.8" y1="176.5" x2="351.8" y2="214.7" stroke="#2471a3"/><rect x="349.6" y="180.7" width="4.4" height="3.6" fill="#2471a3"/><rect x="349.6" y="377.8" width="4.4" height="24.2" fill="#2471a3"/><line x1="359.0" y1="151.6" x2="359.0" y2="182.3" stroke="#c0392b"/><rect x="356.8" y="153.2" width="4.4" height="17.9" fill="#c0392b"/><rect x="356.8" y="375.2" width="4.4" height="26.8" fill="#c0392b"/><line x1="366.3" y1="162.7" x2="366.3" y2="175.7" stroke="#2471a3"/><rect x="364.1" y="164.0" width="4.4" height="1.0" fill="#2471a3"/><rect x="364.1" y="395.7" width="4.4" height="6.3" fill="#2471a3"/><line x1="373.6" y1="170.1" x2="373.6" y2="198.4" stroke="#2471a3"/><rect x="371.4" y="171.0" width="4.4" height="23.3" fill="#2471a3"/><rect x="371.4" y="397.7" width="4.4" height="4.3" fill="#2471a3"/><line x1="380.8" y1="200.5" x2="380.8" y2="213.6" stroke="#c0392b"/><rect x="378.6" y="204.1" width="4.4" height="4.5" fill="#c0392b"/><rect x="378.6" y="399.2" width="4.4" height="2.8" fill="#c0392b"/><line x1="388.1" y1="160.6" x2="388.1" y2="197.5" stroke="#c0392b"/><rect x="385.9" y="165.3" width="4.4" height="32.3" fill="#c0392b"/><rect x="385.9" y="369.0" width="4.4" height="33.0" fill="#c0392b"/><line x1="395.4" y1="183.7" x2="395.4" y2="202.0" stroke="#2471a3"/><rect x="393.2" y="185.9" width="4.4" height="7.2" fill="#2471a3"/><rect x="393.2" y="396.9" width="4.4" height="5.1" fill="#2471a3"/><line x1="402.6" y1="182.6" x2="402.6" y2="190.9" stroke="#2471a3"/><rect x="400.4" y="186.0" width="4.4" height="1.0" fill="#2471a3"/><rect x="400.4" y="398.0" width="4.4" height="4.0" fill="#2471a3"/><line x1="409.9" y1="130.7" x2="409.9" y2="157.6" stroke="#c0392b"/><rect x="407.7" y="141.2" width="4.4" height="2.2" fill="#c0392b"/><rect x="407.7" y="373.9" width="4.4" height="28.1" fill="#c0392b"/><line x1="417.2" y1="71.5" x2="417.2" y2="119.8" stroke="#c0392b"/><rect x="415.0" y="71.5" width="4.4" height="48.3" fill="#c0392b"/><rect x="415.0" y="374.2" width="4.4" height="27.8" fill="#c0392b"/><line x1="424.4" y1="38.6" x2="424.4" y2="102.2" stroke="#2471a3"/><rect x="422.2" y="80.8" width="4.4" height="10.4" fill="#2471a3"/><rect x="422.2" y="382.6" width="4.4" height="19.4" fill="#2471a3"/><line x1="431.7" y1="83.6" x2="431.7" y2="126.9" stroke="#2471a3"/><rect x="429.5" y="84.1" width="4.4" height="31.3" fill="#2471a3"/><rect x="429.5" y="396.8" width="4.4" height="5.2" fill="#2471a3"/><line x1="439.0" y1="85.2" x2="439.0" y2="120.9" stroke="#2471a3"/><rect x="436.8" y="90.7" width="4.4" height="8.8" fill="#2471a3"/><rect x="436.8" y="394.8" width="4.4" height="7.2" fill="#2471a3"/><line x1="446.2" y1="116.5" x2="446.2" y2="142.3" stroke="#2471a3"/><rect x="444.0" y="118.1" width="4.4" height="19.2" fill="#2471a3"/><rect x="444.0" y="397.8" width="4.4" height="4.2" fill="#2471a3"/><line x1="453.5" y1="152.1" x2="453.5" y2="166.4" stroke="#2471a3"/><rect x="451.3" y="154.8" width="4.4" height="9.5" fill="#2471a3"/><rect x="451.3" y="398.4" width="4.4" height="3.6" fill="#2471a3"/><line x1="460.8" y1="151.0" x2="460.8" y2="177.4" stroke="#c0392b"/><rect x="458.6" y="151.6" width="4.4" height="23.1" fill="#c0392b"/><rect x="458.6" y="394.4" width="4.4" height="7.6" fill="#c0392b"/><line x1="468.0" y1="168.0" x2="468.0" y2="186.0" stroke="#2471a3"/><rect x="465.8" y="168.3" width="4.4" height="8.4" fill="#2471a3"/><rect x="465.8" y="399.3" width="4.4" height="2.7" fill="#2471a3"/><line x1="475.3" y1="193.8" x2="475.3" y2="214.4" stroke="#c0392b"/><rect x="473.1" y="202.3" width="4.4" height="12.2" fill="#c0392b"/><rect x="473.1" y="400.2" width="4.4" height="1.8" fill="#c0392b"/><line x1="482.6" y1="179.0" x2="482.6" y2="191.2" stroke="#2471a3"/><rect x="480.4" y="179.8" width="4.4" height="4.5" fill="#2471a3"/><rect x="480.4" y="399.2" width="4.4" height="2.8" fill="#2471a3"/><line x1="489.8" y1="193.8" x2="489.8" y2="204.2" stroke="#2471a3"/><rect x="487.6" y="196.2" width="4.4" height="4.7" fill="#2471a3"/><rect x="487.6" y="401.0" width="4.4" height="1.0" fill="#2471a3"/><line x1="497.1" y1="191.2" x2="497.1" y2="214.1" stroke="#c0392b"/><rect x="494.9" y="195.2" width="4.4" height="15.0" fill="#c0392b"/><rect x="494.9" y="399.8" width="4.4" height="2.2" fill="#c0392b"/><line x1="504.4" y1="187.9" x2="504.4" y2="195.1" stroke="#2471a3"/><rect x="502.2" y="188.6" width="4.4" height="5.2" fill="#2471a3"/><rect x="502.2" y="400.3" width="4.4" height="1.7" fill="#2471a3"/><line x1="511.6" y1="167.6" x2="511.6" y2="191.5" stroke="#c0392b"/><rect x="509.4" y="168.5" width="4.4" height="21.4" fill="#c0392b"/><rect x="509.4" y="397.7" width="4.4" height="4.3" fill="#c0392b"/><line x1="518.9" y1="167.7" x2="518.9" y2="184.6" stroke="#2471a3"/><rect x="516.7" y="167.7" width="4.4" height="16.3" fill="#2471a3"/><rect x="516.7" y="399.8" width="4.4" height="2.2" fill="#2471a3"/><line x1="526.2" y1="167.7" x2="526.2" y2="186.6" stroke="#c0392b"/><rect x="524.0" y="171.0" width="4.4" height="1.1" fill="#c0392b"/><rect x="524.0" y="398.4" width="4.4" height="3.6" fill="#c0392b"/><line x1="533.4" y1="175.7" x2="533.4" y2="186.1" stroke="#2471a3"/><rect x="531.2" y="178.9" width="4.4" height="2.6" fill="#2471a3"/><rect x="531.2" y="400.4" width="4.4" height="1.6" fill="#2471a3"/><line x1="540.7" y1="181.5" x2="540.7" y2="203.7" stroke="#2471a3"/><rect x="538.5" y="181.6" width="4.4" height="14.0" fill="#2471a3"/><rect x="538.5" y="400.4" width="4.4" height="1.6" fill="#2471a3"/><line x1="548.0" y1="193.5" x2="548.0" y2="201.9" stroke="#c0392b"/><rect x="545.8" y="196.0" width="4.4" height="4.3" fill="#c0392b"/><rect x="545.8" y="401.0" width="4.4" height="1.0" fill="#c0392b"/><line x1="555.2" y1="145.5" x2="555.2" y2="184.9" stroke="#c0392b"/><rect x="553.0" y="157.7" width="4.4" height="15.2" fill="#c0392b"/><rect x="553.0" y="380.7" width="4.4" height="21.3" fill="#c0392b"/><line x1="562.5" y1="113.7" x2="562.5" y2="148.8" stroke="#c0392b"/><rect x="560.3" y="128.5" width="4.4" height="19.2" fill="#c0392b"/><rect x="560.3" y="378.6" width="4.4" height="23.4" fill="#c0392b"/><line x1="569.8" y1="143.4" x2="569.8" y2="175.8" stroke="#2471a3"/><rect x="567.6" y="145.5" width="4.4" height="24.2" fill="#2471a3"/><rect x="567.6" y="395.4" width="4.4" height="6.6" fill="#2471a3"/><line x1="577.0" y1="180.0" x2="577.0" y2="201.5" stroke="#2471a3"/><rect x="574.8" y="180.4" width="4.4" height="12.8" fill="#2471a3"/><rect x="574.8" y="398.2" width="4.4" height="3.8" fill="#2471a3"/><line x1="584.3" y1="190.5" x2="584.3" y2="200.1" stroke="#c0392b"/><rect x="582.1" y="191.4" width="4.4" height="7.9" fill="#c0392b"/><rect x="582.1" y="399.4" width="4.4" height="2.6" fill="#c0392b"/><line x1="591.6" y1="183.3" x2="591.6" y2="192.7" stroke="#2471a3"/><rect x="589.4" y="184.6" width="4.4" height="1.1" fill="#2471a3"/><rect x="589.4" y="399.7" width="4.4" height="2.3" fill="#2471a3"/><line x1="598.8" y1="190.5" x2="598.8" y2="207.7" stroke="#2471a3"/><rect x="596.6" y="192.2" width="4.4" height="11.5" fill="#2471a3"/><rect x="596.6" y="394.9" width="4.4" height="7.1" fill="#2471a3"/><line x1="606.1" y1="205.2" x2="606.1" y2="221.9" stroke="#2471a3"/><rect x="603.9" y="205.2" width="4.4" height="16.6" fill="#2471a3"/><rect x="603.9" y="398.5" width="4.4" height="3.5" fill="#2471a3"/><line x1="613.4" y1="220.4" x2="613.4" y2="235.2" stroke="#2471a3"/><rect x="611.2" y="221.8" width="4.4" height="3.1" fill="#2471a3"/><rect x="611.2" y="399.3" width="4.4" height="2.7" fill="#2471a3"/><line x1="620.6" y1="225.0" x2="620.6" y2="239.0" stroke="#2471a3"/><rect x="618.4" y="225.4" width="4.4" height="8.8" fill="#2471a3"/><rect x="618.4" y="399.6" width="4.4" height="2.4" fill="#2471a3"/><line x1="627.9" y1="229.5" x2="627.9" y2="244.6" stroke="#2471a3"/><rect x="625.7" y="237.7" width="4.4" height="4.7" fill="#2471a3"/><rect x="625.7" y="399.1" width="4.4" height="2.9" fill="#2471a3"/><line x1="635.2" y1="242.4" x2="635.2" y2="254.2" stroke="#2471a3"/><rect x="633.0" y="247.4" width="4.4" height="6.5" fill="#2471a3"/><rect x="633.0" y="399.9" width="4.4" height="2.1" fill="#2471a3"/><line x1="642.4" y1="245.4" x2="642.4" y2="257.2" stroke="#c0392b"/><rect x="640.2" y="252.2" width="4.4" height="2.1" fill="#c0392b"/><rect x="640.2" y="399.9" width="4.4" height="2.1" fill="#c0392b"/><line x1="649.7" y1="236.2" x2="649.7" y2="252.3" stroke="#c0392b"/><rect x="647.5" y="239.3" width="4.4" height="12.9" fill="#c0392b"/><rect x="647.5" y="398.2" width="4.4" height="3.8" fill="#c0392b"/><line x1="657.0" y1="237.8" x2="657.0" y2="255.1" stroke="#2471a3"/><rect x="654.8" y="242.0" width="4.4" height="12.4" fill="#2471a3"/><rect x="654.8" y="399.9" width="4.4" height="2.1" fill="#2471a3"/><line x1="664.2" y1="250.9" x2="664.2" y2="262.5" stroke="#c0392b"/><rect x="662.0" y="255.2" width="4.4" height="1.2" fill="#c0392b"/><rect x="662.0" y="400.2" width="4.4" height="1.8" fill="#c0392b"/><line x1="671.5" y1="243.2" x2="671.5" y2="251.5" stroke="#c0392b"/><rect x="669.3" y="244.9" width="4.4" height="6.3" fill="#c0392b"/><rect x="669.3" y="400.0" width="4.4" height="2.0" fill="#c0392b"/><line x1="678.8" y1="246.8" x2="678.8" y2="256.1" stroke="#2471a3"/><rect x="676.6" y="248.2" width="4.4" height="6.6" fill="#2471a3"/><rect x="676.6" y="401.0" width="4.4" height="1.0" fill="#2471a3"/><line x1="686.0" y1="255.4" x2="686.0" y2="264.6" stroke="#2471a3"/><rect x="683.8" y="255.4" width="4.4" height="7.3" fill="#2471a3"/><rect x="683.8" y="400.8" width="4.4" height="1.2" fill="#2471a3"/><line x1="693.3" y1="254.0" x2="693.3" y2="269.5" stroke="#c0392b"/><rect x="691.1" y="261.5" width="4.4" height="1.2" fill="#c0392b"/><rect x="691.1" y="400.0" width="4.4" height="2.0" fill="#c0392b"/><line x1="700.6" y1="252.2" x2="700.6" y2="259.4" stroke="#2471a3"/><rect x="698.4" y="257.4" width="4.4" height="1.0" fill="#2471a3"/><rect x="698.4" y="400.3" width="4.4" height="1.7" fill="#2471a3"/><line x1="707.8" y1="251.2" x2="707.8" y2="257.4" stroke="#c0392b"/><rect x="705.6" y="252.5" width="4.4" height="4.4" fill="#c0392b"/><rect x="705.6" y="400.2" width="4.4" height="1.8" fill="#c0392b"/><line x1="715.1" y1="253.6" x2="715.1" y2="261.4" stroke="#2471a3"/><rect x="712.9" y="255.0" width="4.4" height="4.9" fill="#2471a3"/><rect x="712.9" y="401.0" width="4.4" height="1.0" fill="#2471a3"/><line x1="722.4" y1="255.9" x2="722.4" y2="261.4" stroke="#2471a3"/><rect x="720.2" y="257.3" width="4.4" height="1.0" fill="#2471a3"/><rect x="720.2" y="401.0" width="4.4" height="1.0" fill="#2471a3"/><line x1="729.6" y1="237.9" x2="729.6" y2="266.2" stroke="#2471a3"/><rect x="727.4" y="246.9" width="4.4" height="19.3" fill="#2471a3"/><rect x="727.4" y="386.1" width="4.4" height="15.9" fill="#2471a3"/><line x1="736.9" y1="261.3" x2="736.9" y2="283.6" stroke="#2471a3"/><rect x="734.7" y="266.9" width="4.4" height="11.1" fill="#2471a3"/><rect x="734.7" y="398.7" width="4.4" height="3.3" fill="#2471a3"/><line x1="744.2" y1="275.7" x2="744.2" y2="283.9" stroke="#c0392b"/><rect x="742.0" y="282.7" width="4.4" height="1.2" fill="#c0392b"/><rect x="742.0" y="400.5" width="4.4" height="1.5" fill="#c0392b"/><line x1="751.4" y1="264.7" x2="751.4" y2="275.5" stroke="#c0392b"/><rect x="749.2" y="266.0" width="4.4" height="9.0" fill="#c0392b"/><rect x="749.2" y="399.4" width="4.4" height="2.6" fill="#c0392b"/><line x1="758.7" y1="261.1" x2="758.7" y2="269.8" stroke="#c0392b"/><rect x="756.5" y="265.1" width="4.4" height="1.9" fill="#c0392b"/><rect x="756.5" y="400.8" width="4.4" height="1.2" fill="#c0392b"/><line x1="766.0" y1="253.1" x2="766.0" y2="261.5" stroke="#2471a3"/><rect x="763.8" y="256.2" width="4.4" height="1.9" fill="#2471a3"/><rect x="763.8" y="398.7" width="4.4" height="3.3" fill="#2471a3"/><line x1="773.2" y1="239.7" x2="773.2" y2="254.4" stroke="#c0392b"/><rect x="771.0" y="249.0" width="4.4" height="3.3" fill="#c0392b"/><rect x="771.0" y="394.4" width="4.4" height="7.6" fill="#c0392b"/><line x1="780.5" y1="249.0" x2="780.5" y2="255.7" stroke="#c0392b"/><rect x="778.3" y="252.0" width="4.4" height="1.0" fill="#c0392b"/><rect x="778.3" y="400.2" width="4.4" height="1.8" fill="#c0392b"/><line x1="787.8" y1="245.7" x2="787.8" y2="255.7" stroke="#2471a3"/><rect x="785.6" y="248.0" width="4.4" height="4.1" fill="#2471a3"/><rect x="785.6" y="398.8" width="4.4" height="3.2" fill="#2471a3"/><line x1="795.0" y1="238.0" x2="795.0" y2="245.8" stroke="#c0392b"/><rect x="792.8" y="242.1" width="4.4" height="3.3" fill="#c0392b"/><rect x="792.8" y="397.6" width="4.4" height="4.4" fill="#c0392b"/><line x1="802.3" y1="241.3" x2="802.3" y2="250.3" stroke="#c0392b"/><rect x="800.1" y="242.2" width="4.4" height="3.9" fill="#c0392b"/><rect x="800.1" y="400.0" width="4.4" height="2.0" fill="#c0392b"/><line x1="809.6" y1="235.7" x2="809.6" y2="245.0" stroke="#c0392b"/><rect x="807.4" y="239.6" width="4.4" height="1.1" fill="#c0392b"/><rect x="807.4" y="399.0" width="4.4" height="3.0" fill="#c0392b"/><line x1="816.8" y1="226.7" x2="816.8" y2="235.2" stroke="#c0392b"/><rect x="814.6" y="232.1" width="4.4" height="1.3" fill="#c0392b"/><rect x="814.6" y="396.7" width="4.4" height="5.3" fill="#c0392b"/><line x1="824.1" y1="228.3" x2="824.1" y2="237.0" stroke="#2471a3"/><rect x="821.9" y="232.1" width="4.4" height="1.0" fill="#2471a3"/><rect x="821.9" y="400.1" width="4.4" height="1.9" fill="#2471a3"/><line x1="831.4" y1="232.3" x2="831.4" y2="242.6" stroke="#2471a3"/><rect x="829.2" y="232.5" width="4.4" height="8.8" fill="#2471a3"/><rect x="829.2" y="400.6" width="4.4" height="1.4" fill="#2471a3"/><line x1="838.6" y1="240.2" x2="838.6" y2="247.6" stroke="#2471a3"/><rect x="836.4" y="246.0" width="4.4" height="1.0" fill="#2471a3"/><rect x="836.4" y="401.0" width="4.4" height="1.0" fill="#2471a3"/><line x1="845.9" y1="240.0" x2="845.9" y2="245.9" stroke="#c0392b"/><rect x="843.7" y="240.8" width="4.4" height="4.3" fill="#c0392b"/><rect x="843.7" y="400.9" width="4.4" height="1.1" fill="#c0392b"/><line x1="853.2" y1="243.3" x2="853.2" y2="250.4" stroke="#2471a3"/><rect x="851.0" y="243.4" width="4.4" height="4.9" fill="#2471a3"/><rect x="851.0" y="401.0" width="4.4" height="1.0" fill="#2471a3"/><line x1="860.4" y1="237.1" x2="860.4" y2="255.0" stroke="#2471a3"/><rect x="858.2" y="241.9" width="4.4" height="6.4" fill="#2471a3"/><rect x="858.2" y="400.6" width="4.4" height="1.4" fill="#2471a3"/><line x1="867.7" y1="245.9" x2="867.7" y2="258.5" stroke="#c0392b"/><rect x="865.5" y="246.1" width="4.4" height="5.8" fill="#c0392b"/><rect x="865.5" y="400.6" width="4.4" height="1.4" fill="#c0392b"/><line x1="875.0" y1="245.9" x2="875.0" y2="250.9" stroke="#c0392b"/><rect x="872.8" y="247.2" width="4.4" height="1.0" fill="#c0392b"/><rect x="872.8" y="401.0" width="4.4" height="1.0" fill="#c0392b"/><line x1="882.2" y1="241.4" x2="882.2" y2="248.0" stroke="#c0392b"/><rect x="880.0" y="244.3" width="4.4" height="3.3" fill="#c0392b"/><rect x="880.0" y="400.6" width="4.4" height="1.4" fill="#c0392b"/><line x1="889.5" y1="228.0" x2="889.5" y2="243.7" stroke="#2471a3"/><rect x="887.3" y="239.8" width="4.4" height="2.1" fill="#2471a3"/><rect x="887.3" y="389.2" width="4.4" height="12.8" fill="#2471a3"/><line x1="896.8" y1="243.6" x2="896.8" y2="251.5" stroke="#c0392b"/><rect x="894.6" y="244.2" width="4.4" height="3.5" fill="#c0392b"/><rect x="894.6" y="400.1" width="4.4" height="1.9" fill="#c0392b"/><line x1="904.0" y1="243.3" x2="904.0" y2="248.7" stroke="#2471a3"/><rect x="901.8" y="244.2" width="4.4" height="2.7" fill="#2471a3"/><rect x="901.8" y="401.0" width="4.4" height="1.0" fill="#2471a3"/><line x1="911.3" y1="247.2" x2="911.3" y2="252.1" stroke="#c0392b"/><rect x="909.1" y="251.4" width="4.4" height="1.0" fill="#c0392b"/><rect x="909.1" y="401.0" width="4.4" height="1.0" fill="#c0392b"/><line x1="918.6" y1="248.7" x2="918.6" y2="257.1" stroke="#2471a3"/><rect x="916.4" y="249.9" width="4.4" height="5.8" fill="#2471a3"/><rect x="916.4" y="401.0" width="4.4" height="1.0" fill="#2471a3"/><line x1="925.8" y1="248.3" x2="925.8" y2="254.2" stroke="#c0392b"/><rect x="923.6" y="248.3" width="4.4" height="5.8" fill="#c0392b"/><rect x="923.6" y="401.0" width="4.4" height="1.0" fill="#c0392b"/><line x1="933.1" y1="247.0" x2="933.1" y2="251.0" stroke="#2471a3"/><rect x="930.9" y="247.9" width="4.4" height="1.5" fill="#2471a3"/><rect x="930.9" y="401.0" width="4.4" height="1.0" fill="#2471a3"/><line x1="940.4" y1="242.1" x2="940.4" y2="249.7" stroke="#c0392b"/><rect x="938.2" y="246.5" width="4.4" height="3.0" fill="#c0392b"/><rect x="938.2" y="400.2" width="4.4" height="1.8" fill="#c0392b"/><polyline fill="none" stroke="#e67e22" stroke-width="1.4" points="75.6,294.6 82.9,294.8 90.2,295.0 97.4,295.3 104.7,295.9 112.0,296.3 119.2,296.5 126.5,296.9 133.8,297.5 141.0,298.2 148.3,298.6 155.6,298.1 162.8,298.2 170.1,298.2 177.4,297.6 184.6,297.5 191.9,297.3 199.2,297.3 206.4,297.1 213.7,296.7 221.0,295.1 228.2,291.8 235.5,286.3 242.8,281.9 250.0,276.5 257.3,272.2 264.6,268.5 271.8,264.5 279.1,261.3 286.4,257.7 293.6,253.9 300.9,250.4 308.2,246.3 315.4,241.9 322.7,235.8 330.0,230.5 337.2,225.8 344.5,221.4 351.8,216.0 359.0,209.2 366.3,204.2 373.6,202.4 380.8,203.1 388.1,200.9 395.4,200.9 402.6,199.6 409.9,195.6 417.2,188.2 424.4,181.2 431.7,175.7 439.0,169.4 446.2,164.9 453.5,162.2 460.8,159.3 468.0,159.6 475.3,160.1 482.6,159.3 489.8,159.1 497.1,159.6 504.4,161.7 511.6,161.8 518.9,161.3 526.2,159.7 533.4,160.5 540.7,160.6 548.0,161.1 555.2,161.9 562.5,164.8 569.8,168.7 577.0,172.6 584.3,177.2 591.6,179.6 598.8,181.6 606.1,185.1 613.4,187.5 620.6,189.1 627.9,192.0 635.2,194.6 642.4,197.5 649.7,199.8 657.0,204.1 664.2,207.6 671.5,211.3 678.8,215.0 686.0,218.3 693.3,221.6 700.6,226.7 707.8,232.8 715.1,237.4 722.4,240.6 729.6,244.4 736.9,249.0 744.2,252.9 751.4,255.1 758.7,257.1 766.0,258.3 773.2,258.7 780.5,258.6 787.8,258.6 795.0,258.7 802.3,258.1 809.6,257.3 816.8,256.7 824.1,255.6 831.4,254.5 838.6,253.7 845.9,252.8 853.2,252.6 860.4,252.0 867.7,251.4 875.0,250.5 882.2,248.8 889.5,246.8 896.8,245.7 904.0,244.8 911.3,244.4 918.6,244.8 925.8,244.6 933.1,244.4 940.4,244.7"/><polyline fill="none" stroke="#8e44ad" stroke-width="1.4" points="75.6,291.5 82.9,291.6 90.2,291.8 97.4,291.9 104.7,292.1 112.0,292.3 119.2,292.4 126.5,292.6 133.8,292.8 141.0,292.9 148.3,293.1 155.6,293.2 162.8,293.5 170.1,293.7 177.4,293.8 184.6,294.0 191.9,294.0 199.2,294.1 206.4,294.1 213.7,294.0 221.0,293.5 228.2,292.5 235.5,290.8 242.8,289.4 250.0,287.7 257.3,286.4 264.6,285.2 271.8,283.9 279.1,283.0 286.4,281.9 293.6,280.8 300.9,279.8 308.2,278.7 315.4,277.3 322.7,275.4 330.0,273.8 337.2,272.2 344.5,270.8 351.8,269.0 359.0,266.7 366.3,264.6 373.6,263.0 380.8,261.5 388.1,259.4 395.4,257.8 402.6,256.0 409.9,253.5 417.2,249.9 424.4,246.7 431.7,243.9 439.0,240.6 446.2,237.8 453.5,235.6 460.8,233.1 468.0,231.0 475.3,229.4 482.6,227.5 489.8,225.9 497.1,224.2 504.4,222.5 511.6,220.4 518.9,218.5 526.2,216.4 533.4,214.4 540.7,212.7 548.0,211.0 555.2,208.7 562.5,205.8 569.8,203.7 577.0,202.0 584.3,200.2 591.6,198.3 598.8,196.7 606.1,195.4 613.4,194.3 620.6,193.2 627.9,192.4 635.2,191.7 642.4,191.0 649.7,190.2 657.0,190.0 664.2,190.4 671.5,191.4 678.8,192.1 686.0,193.3 693.3,194.1 700.6,194.7 707.8,195.3 715.1,195.7 722.4,196.3 729.6,197.0 736.9,197.8 744.2,198.9 751.4,199.8 758.7,201.4 766.0,202.5 773.2,203.3 780.5,204.1 787.8,205.2 795.0,206.7 802.3,208.0 809.6,208.8 816.8,209.2 824.1,210.3 831.4,211.1 838.6,212.1 845.9,213.8 853.2,216.8 860.4,219.4 867.7,221.5 875.0,224.0 882.2,225.8 889.5,227.1 896.8,228.6 904.0,229.8 911.3,230.6 918.6,231.8 925.8,232.6 933.1,233.5 940.4,234.4"/><circle cx="424.4" cy="38.6" r="5" fill="#922b21" stroke="#922b21" stroke-width="2" data-code="Hb" data-date="2026-05-27" data-price="30550" data-field="high" data-confirmed="1" data-main="1"/><text x="424.4" y="29.6" text-anchor="middle" font-size="12" font-weight="bold" font-family="Malgun Gothic, Apple SD Gothic Neo, Noto Sans CJK KR, sans-serif" fill="#922b21" stroke="#fff" stroke-width="3" paint-order="stroke">Hb</text><circle cx="889.5" cy="228.0" r="5" fill="#d35400" stroke="#d35400" stroke-width="2" data-code="Hr" data-date="2026-08-28" data-price="13280" data-field="high" data-confirmed="1" data-main="1"/><text x="889.5" y="219.0" text-anchor="middle" font-size="12" font-weight="bold" font-family="Malgun Gothic, Apple SD Gothic Neo, Noto Sans CJK KR, sans-serif" fill="#d35400" stroke="#fff" stroke-width="3" paint-order="stroke">Hr</text><circle cx="744.2" cy="283.9" r="5" fill="#1f618d" stroke="#1f618d" stroke-width="2" data-code="Lb" data-date="2026-07-30" data-price="8190" data-field="low" data-confirmed="1" data-main="1"/><text x="744.2" y="300.9" text-anchor="middle" font-size="12" font-weight="bold" font-family="Malgun Gothic, Apple SD Gothic Neo, Noto Sans CJK KR, sans-serif" fill="#1f618d" stroke="#fff" stroke-width="3" paint-order="stroke">Lb</text><circle cx="918.6" cy="257.1" r="5" fill="#117a65" stroke="#117a65" stroke-width="2" data-code="Lr" data-date="2026-09-03" data-price="10630" data-field="low" data-confirmed="1" data-main="1"/><text x="918.6" y="274.1" text-anchor="middle" font-size="12" font-weight="bold" font-family="Malgun Gothic, Apple SD Gothic Neo, Noto Sans CJK KR, sans-serif" fill="#117a65" stroke="#fff" stroke-width="3" paint-order="stroke">Lr</text><line x1="940.4" y1="28" x2="940.4" y2="314" stroke="#222" stroke-dasharray="3 3"/><line x1="75.6" y1="404" x2="75.6" y2="414" stroke="#bbb"/><text x="75.6" y="418" text-anchor="start" font-size="10" font-family="Malgun Gothic, Apple SD Gothic Neo, Noto Sans CJK KR, sans-serif" fill="#333">2026-03-17</text><line x1="250.0" y1="404" x2="250.0" y2="414" stroke="#bbb"/><text x="250.0" y="418" text-anchor="middle" font-size="10" font-family="Malgun Gothic, Apple SD Gothic Neo, Noto Sans CJK KR, sans-serif" fill="#333">2026-04-20</text><line x1="424.4" y1="404" x2="424.4" y2="414" stroke="#bbb"/><text x="424.4" y="418" text-anchor="middle" font-size="10" font-family="Malgun Gothic, Apple SD Gothic Neo, Noto Sans CJK KR, sans-serif" fill="#333">2026-05-27</text><line x1="598.8" y1="404" x2="598.8" y2="414" stroke="#bbb"/><text x="598.8" y="418" text-anchor="middle" font-size="10" font-family="Malgun Gothic, Apple SD Gothic Neo, Noto Sans CJK KR, sans-serif" fill="#333">2026-07-01</text><line x1="773.2" y1="404" x2="773.2" y2="414" stroke="#bbb"/><text x="773.2" y="418" text-anchor="middle" font-size="10" font-family="Malgun Gothic, Apple SD Gothic Neo, Noto Sans CJK KR, sans-serif" fill="#333">2026-08-05</text><line x1="940.4" y1="404" x2="940.4" y2="414" stroke="#bbb"/><text x="940.4" y="418" text-anchor="end" font-size="10" font-family="Malgun Gothic, Apple SD Gothic Neo, Noto Sans CJK KR, sans-serif" fill="#333">2026-09-08</text><text x="72" y="436" font-size="11" font-family="Malgun Gothic, Apple SD Gothic Neo, Noto Sans CJK KR, sans-serif" fill="#922b21">큰 조정 시작 고점 2026-05-27 · 30,550 · 확정 2026-06-01</text><text x="72" y="449" font-size="11" font-family="Malgun Gothic, Apple SD Gothic Neo, Noto Sans CJK KR, sans-serif" fill="#d35400">최근 재하락 시작 고점 2026-08-28 · 13,280 · 확정 2026-09-02</text><text x="72" y="462" font-size="11" font-family="Malgun Gothic, Apple SD Gothic Neo, Noto Sans CJK KR, sans-serif" fill="#1f618d">큰 조정 시작 고점 뒤 최저점 2026-07-30 · 8,190 · 확정 2026-08-04</text><text x="72" y="475" font-size="11" font-family="Malgun Gothic, Apple SD Gothic Neo, Noto Sans CJK KR, sans-serif" fill="#117a65">최근 재하락 시작 고점 뒤 최저점 2026-09-03 · 10,630 · 확정 2026-09-08</text><text x="72" y="488" font-size="11" font-family="Malgun Gothic, Apple SD Gothic Neo, Noto Sans CJK KR, sans-serif" fill="#566573">코드 손절 기준 저점(B에서 계산) 2026-09-03 · 10,630 · 확정 2026-09-08</text><text x="72" y="508" font-size="11" font-family="Malgun Gothic, Apple SD Gothic Neo, Noto Sans CJK KR, sans-serif" fill="#333">빨강 상승 · 파랑 하락 · 주황 MA20 · 보라 MA60(60개 이상이 있을 때) · 점선은 판정일. 거래량은 아래 칸. 눈금은 봉 날짜.</text></svg>