<svg xmlns="http://www.w3.org/2000/svg" width="960" height="460" viewBox="0 0 960 460"><!-- last_available_at=1747981800 bars=40 --><rect width="960" height="460" fill="#fff"/><text x="64" y="18" font-size="13" font-family="Malgun Gothic, Apple SD Gothic Neo, Noto Sans CJK KR, sans-serif">토마토시스템 2025-05-23 까지 · 40거래일</text><text x="8" y="28" font-size="11" font-family="Malgun Gothic, Apple SD Gothic Neo, Noto Sans CJK KR, sans-serif">10,419</text><text x="8" y="328" font-size="11" font-family="Malgun Gothic, Apple SD Gothic Neo, Noto Sans CJK KR, sans-serif">4,501</text><line x1="75.0" y1="240.9" x2="75.0" y2="257.1" stroke="#2471a3"/><rect x="72.8" y="242.9" width="4.4" height="10.1" fill="#2471a3"/><rect x="72.8" y="432.4" width="4.4" height="4.4" fill="#2471a3"/><line x1="97.0" y1="250.0" x2="97.0" y2="260.6" stroke="#2471a3"/><rect x="94.8" y="253.0" width="4.4" height="5.1" fill="#2471a3"/><rect x="94.8" y="432.7" width="4.4" height="4.4" fill="#2471a3"/><line x1="119.0" y1="256.6" x2="119.0" y2="272.3" stroke="#2471a3"/><rect x="116.8" y="258.1" width="4.4" height="13.7" fill="#2471a3"/><rect x="116.8" y="432.9" width="4.4" height="4.4" fill="#2471a3"/><line x1="141.0" y1="265.7" x2="141.0" y2="297.6" stroke="#2471a3"/><rect x="138.8" y="276.8" width="4.4" height="20.8" fill="#2471a3"/><rect x="138.8" y="432.0" width="4.4" height="4.4" fill="#2471a3"/><line x1="163.0" y1="279.9" x2="163.0" y2="294.6" stroke="#c0392b"/><rect x="160.8" y="290.5" width="4.4" height="4.1" fill="#c0392b"/><rect x="160.8" y="432.7" width="4.4" height="4.4" fill="#c0392b"/><line x1="185.0" y1="271.8" x2="185.0" y2="294.1" stroke="#c0392b"/><rect x="182.8" y="286.0" width="4.4" height="3.0" fill="#c0392b"/><rect x="182.8" y="431.4" width="4.4" height="4.4" fill="#c0392b"/><line x1="207.0" y1="284.4" x2="207.0" y2="301.2" stroke="#c0392b"/><rect x="204.8" y="295.1" width="4.4" height="2.0" fill="#c0392b"/><rect x="204.8" y="432.9" width="4.4" height="4.4" fill="#c0392b"/><line x1="229.0" y1="285.5" x2="229.0" y2="301.7" stroke="#c0392b"/><rect x="226.8" y="289.0" width="4.4" height="12.7" fill="#c0392b"/><rect x="226.8" y="432.6" width="4.4" height="4.4" fill="#c0392b"/><line x1="251.0" y1="294.1" x2="251.0" y2="312.8" stroke="#2471a3"/><rect x="248.8" y="295.1" width="4.4" height="16.2" fill="#2471a3"/><rect x="248.8" y="432.3" width="4.4" height="4.4" fill="#2471a3"/><line x1="273.0" y1="285.5" x2="273.0" y2="306.5" stroke="#c0392b"/><rect x="270.8" y="303.7" width="4.4" height="2.8" fill="#c0392b"/><rect x="270.8" y="431.5" width="4.4" height="4.4" fill="#c0392b"/><line x1="295.0" y1="297.6" x2="295.0" y2="316.9" stroke="#2471a3"/><rect x="292.8" y="306.5" width="4.4" height="6.6" fill="#2471a3"/><rect x="292.8" y="432.6" width="4.4" height="4.4" fill="#2471a3"/><line x1="317.0" y1="297.1" x2="317.0" y2="305.2" stroke="#2471a3"/><rect x="314.8" y="298.6" width="4.4" height="1.5" fill="#2471a3"/><rect x="314.8" y="433.0" width="4.4" height="4.4" fill="#2471a3"/><line x1="339.0" y1="246.9" x2="339.0" y2="305.2" stroke="#c0392b"/><rect x="336.8" y="262.1" width="4.4" height="41.3" fill="#c0392b"/><rect x="336.8" y="416.4" width="4.4" height="4.4" fill="#c0392b"/><line x1="361.0" y1="176.0" x2="361.0" y2="246.4" stroke="#c0392b"/><rect x="358.8" y="189.2" width="4.4" height="46.6" fill="#c0392b"/><rect x="358.8" y="359.0" width="4.4" height="4.4" fill="#c0392b"/><line x1="383.0" y1="164.8" x2="383.0" y2="201.8" stroke="#2471a3"/><rect x="380.8" y="191.2" width="4.4" height="10.6" fill="#2471a3"/><rect x="380.8" y="411.5" width="4.4" height="4.4" fill="#2471a3"/><line x1="405.0" y1="125.3" x2="405.0" y2="181.5" stroke="#2471a3"/><rect x="402.8" y="166.8" width="4.4" height="14.2" fill="#2471a3"/><rect x="402.8" y="361.2" width="4.4" height="4.4" fill="#2471a3"/><line x1="427.0" y1="112.6" x2="427.0" y2="188.6" stroke="#c0392b"/><rect x="424.8" y="135.9" width="4.4" height="47.1" fill="#c0392b"/><rect x="424.8" y="346.3" width="4.4" height="4.4" fill="#c0392b"/><line x1="449.0" y1="107.0" x2="449.0" y2="157.2" stroke="#2471a3"/><rect x="446.8" y="147.6" width="4.4" height="9.6" fill="#2471a3"/><rect x="446.8" y="408.3" width="4.4" height="4.4" fill="#2471a3"/><line x1="471.0" y1="58.4" x2="471.0" y2="162.3" stroke="#c0392b"/><rect x="468.8" y="106.0" width="4.4" height="55.3" fill="#c0392b"/><rect x="468.8" y="344.0" width="4.4" height="4.4" fill="#c0392b"/><line x1="493.0" y1="39.1" x2="493.0" y2="131.9" stroke="#2471a3"/><rect x="490.8" y="105.5" width="4.4" height="17.2" fill="#2471a3"/><rect x="490.8" y="392.8" width="4.4" height="4.4" fill="#2471a3"/><line x1="515.0" y1="108.0" x2="515.0" y2="160.3" stroke="#2471a3"/><rect x="512.8" y="108.6" width="4.4" height="51.7" fill="#2471a3"/><rect x="512.8" y="425.7" width="4.4" height="4.4" fill="#2471a3"/><line x1="537.0" y1="121.7" x2="537.0" y2="164.3" stroke="#c0392b"/><rect x="534.8" y="156.7" width="4.4" height="2.0" fill="#c0392b"/><rect x="534.8" y="422.1" width="4.4" height="4.4" fill="#c0392b"/><line x1="559.0" y1="126.8" x2="559.0" y2="160.8" stroke="#c0392b"/><rect x="556.8" y="152.7" width="4.4" height="8.1" fill="#c0392b"/><rect x="556.8" y="424.0" width="4.4" height="4.4" fill="#c0392b"/><line x1="581.0" y1="141.5" x2="581.0" y2="169.9" stroke="#2471a3"/><rect x="578.8" y="150.1" width="4.4" height="17.7" fill="#2471a3"/><rect x="578.8" y="430.5" width="4.4" height="4.4" fill="#2471a3"/><line x1="603.0" y1="146.6" x2="603.0" y2="182.1" stroke="#c0392b"/><rect x="600.8" y="166.8" width="4.4" height="1.5" fill="#c0392b"/><rect x="600.8" y="429.1" width="4.4" height="4.4" fill="#c0392b"/><line x1="625.0" y1="157.2" x2="625.0" y2="181.0" stroke="#2471a3"/><rect x="622.8" y="166.8" width="4.4" height="6.6" fill="#2471a3"/><rect x="622.8" y="431.8" width="4.4" height="4.4" fill="#2471a3"/><line x1="647.0" y1="181.5" x2="647.0" y2="203.9" stroke="#c0392b"/><rect x="644.8" y="188.6" width="4.4" height="1.5" fill="#c0392b"/><rect x="644.8" y="431.9" width="4.4" height="4.4" fill="#c0392b"/><line x1="669.0" y1="148.1" x2="669.0" y2="191.7" stroke="#c0392b"/><rect x="666.8" y="162.3" width="4.4" height="27.9" fill="#c0392b"/><rect x="666.8" y="425.3" width="4.4" height="4.4" fill="#c0392b"/><line x1="691.0" y1="111.6" x2="691.0" y2="161.8" stroke="#c0392b"/><rect x="688.8" y="142.0" width="4.4" height="9.6" fill="#c0392b"/><rect x="688.8" y="408.3" width="4.4" height="4.4" fill="#c0392b"/><line x1="713.0" y1="132.4" x2="713.0" y2="159.8" stroke="#2471a3"/><rect x="710.8" y="142.0" width="4.4" height="4.1" fill="#2471a3"/><rect x="710.8" y="428.4" width="4.4" height="4.4" fill="#2471a3"/><line x1="735.0" y1="115.1" x2="735.0" y2="149.6" stroke="#c0392b"/><rect x="732.8" y="134.9" width="4.4" height="6.1" fill="#c0392b"/><rect x="732.8" y="423.0" width="4.4" height="4.4" fill="#c0392b"/><line x1="757.0" y1="128.8" x2="757.0" y2="155.7" stroke="#2471a3"/><rect x="754.8" y="128.8" width="4.4" height="22.3" fill="#2471a3"/><rect x="754.8" y="430.3" width="4.4" height="4.4" fill="#2471a3"/><line x1="779.0" y1="147.6" x2="779.0" y2="156.7" stroke="#2471a3"/><rect x="776.8" y="150.1" width="4.4" height="4.1" fill="#2471a3"/><rect x="776.8" y="432.2" width="4.4" height="4.4" fill="#2471a3"/><line x1="801.0" y1="120.7" x2="801.0" y2="153.2" stroke="#c0392b"/><rect x="798.8" y="149.1" width="4.4" height="3.0" fill="#c0392b"/><rect x="798.8" y="424.3" width="4.4" height="4.4" fill="#c0392b"/><line x1="823.0" y1="144.0" x2="823.0" y2="181.0" stroke="#2471a3"/><rect x="820.8" y="147.6" width="4.4" height="30.4" fill="#2471a3"/><rect x="820.8" y="431.0" width="4.4" height="4.4" fill="#2471a3"/><line x1="845.0" y1="174.5" x2="845.0" y2="200.8" stroke="#2471a3"/><rect x="842.8" y="178.0" width="4.4" height="22.8" fill="#2471a3"/><rect x="842.8" y="432.4" width="4.4" height="4.4" fill="#2471a3"/><line x1="867.0" y1="183.1" x2="867.0" y2="206.4" stroke="#2471a3"/><rect x="864.8" y="199.8" width="4.4" height="1.0" fill="#2471a3"/><rect x="864.8" y="432.6" width="4.4" height="4.4" fill="#2471a3"/><line x1="889.0" y1="191.2" x2="889.0" y2="202.3" stroke="#c0392b"/><rect x="886.8" y="192.7" width="4.4" height="8.1" fill="#c0392b"/><rect x="886.8" y="432.4" width="4.4" height="4.4" fill="#c0392b"/><line x1="911.0" y1="193.2" x2="911.0" y2="208.9" stroke="#2471a3"/><rect x="908.8" y="196.2" width="4.4" height="12.2" fill="#2471a3"/><rect x="908.8" y="432.9" width="4.4" height="4.4" fill="#2471a3"/><line x1="933.0" y1="201.8" x2="933.0" y2="218.0" stroke="#2471a3"/><rect x="930.8" y="208.4" width="4.4" height="7.1" fill="#2471a3"/><rect x="930.8" y="432.9" width="4.4" height="4.4" fill="#2471a3"/><polyline fill="none" stroke="#e67e22" stroke-width="1.4" points="75.0,255.3 97.0,255.1 119.0,255.5 141.0,257.9 163.0,258.8 185.0,259.4 207.0,259.8 229.0,260.1 251.0,261.1 273.0,261.8 295.0,263.0 317.0,266.9 339.0,268.6 361.0,266.7 383.0,265.9 405.0,264.0 427.0,258.7 449.0,254.4 471.0,247.3 493.0,241.3 515.0,236.6 537.0,231.6 559.0,225.6 581.0,219.1 603.0,212.9 625.0,207.3 647.0,202.0 669.0,195.7 691.0,187.2 713.0,179.3 735.0,170.4 757.0,162.9 779.0,157.5 801.0,155.5 823.0,154.4 845.0,155.3 867.0,158.6 889.0,160.4 911.0,165.5 933.0,170.1"/><polyline fill="none" stroke="#8e44ad" stroke-width="1.4" points="75.0,288.3 97.0,287.0 119.0,286.0 141.0,285.4 163.0,284.5 185.0,283.6 207.0,282.8 229.0,282.1 251.0,281.8 273.0,281.4 295.0,281.1 317.0,280.7 339.0,279.6 361.0,277.1 383.0,274.9 405.0,272.3 427.0,269.0 449.0,266.1 471.0,262.3 493.0,258.6 515.0,255.7 537.0,252.5 559.0,249.3 581.0,246.3 603.0,243.2 625.0,241.3 647.0,240.0 669.0,238.5 691.0,236.7 713.0,234.9 735.0,232.6 757.0,230.7 779.0,228.8 801.0,226.4 823.0,225.2 845.0,224.3 867.0,223.7 889.0,223.1 911.0,222.8 933.0,222.3"/><line x1="933.0" y1="28" x2="933.0" y2="328" stroke="#222" stroke-dasharray="3 3"/><text x="64" y="452" font-size="11" font-family="Malgun Gothic, Apple SD Gothic Neo, Noto Sans CJK KR, sans-serif" fill="#333">빨강 상승 · 파랑 하락 · 주황 MA20 · 보라 MA60(60개 이상이 있을 때) · 점선은 판정일. 거래량은 아래 칸.</text></svg>