<svg xmlns="http://www.w3.org/2000/svg" width="960" height="460" viewBox="0 0 960 460"><!-- last_available_at=1747981800 bars=120 --><rect width="960" height="460" fill="#fff"/><text x="64" y="18" font-size="13" font-family="Malgun Gothic, Apple SD Gothic Neo, Noto Sans CJK KR, sans-serif">토마토시스템 2025-05-23 까지 · 120거래일</text><text x="8" y="28" font-size="11" font-family="Malgun Gothic, Apple SD Gothic Neo, Noto Sans CJK KR, sans-serif">10,454</text><text x="8" y="328" font-size="11" font-family="Malgun Gothic, Apple SD Gothic Neo, Noto Sans CJK KR, sans-serif">3,601</text><line x1="67.7" y1="255.4" x2="67.7" y2="266.8" stroke="#c0392b"/><rect x="65.5" y="261.9" width="4.4" height="4.8" fill="#c0392b"/><rect x="65.5" y="433.0" width="4.4" height="4.4" fill="#c0392b"/><line x1="75.0" y1="253.2" x2="75.0" y2="261.5" stroke="#c0392b"/><rect x="72.8" y="256.3" width="4.4" height="5.3" fill="#c0392b"/><rect x="72.8" y="433.0" width="4.4" height="4.4" fill="#c0392b"/><line x1="82.3" y1="250.6" x2="82.3" y2="257.6" stroke="#c0392b"/><rect x="80.1" y="252.8" width="4.4" height="3.5" fill="#c0392b"/><rect x="80.1" y="433.0" width="4.4" height="4.4" fill="#c0392b"/><line x1="89.7" y1="247.5" x2="89.7" y2="259.8" stroke="#2471a3"/><rect x="87.5" y="247.5" width="4.4" height="6.6" fill="#2471a3"/><rect x="87.5" y="433.0" width="4.4" height="4.4" fill="#2471a3"/><line x1="97.0" y1="241.8" x2="97.0" y2="257.6" stroke="#2471a3"/><rect x="94.8" y="255.4" width="4.4" height="2.2" fill="#2471a3"/><rect x="94.8" y="433.0" width="4.4" height="4.4" fill="#2471a3"/><line x1="104.3" y1="256.7" x2="104.3" y2="269.8" stroke="#2471a3"/><rect x="102.1" y="257.6" width="4.4" height="6.1" fill="#2471a3"/><rect x="102.1" y="433.0" width="4.4" height="4.4" fill="#2471a3"/><line x1="111.7" y1="258.4" x2="111.7" y2="279.9" stroke="#2471a3"/><rect x="109.5" y="264.6" width="4.4" height="13.8" fill="#2471a3"/><rect x="109.5" y="433.0" width="4.4" height="4.4" fill="#2471a3"/><line x1="119.0" y1="262.8" x2="119.0" y2="282.3" stroke="#c0392b"/><rect x="116.8" y="266.8" width="4.4" height="13.4" fill="#c0392b"/><rect x="116.8" y="433.0" width="4.4" height="4.4" fill="#c0392b"/><line x1="126.3" y1="251.9" x2="126.3" y2="277.9" stroke="#2471a3"/><rect x="124.1" y="271.1" width="4.4" height="3.5" fill="#2471a3"/><rect x="124.1" y="432.7" width="4.4" height="4.4" fill="#2471a3"/><line x1="133.7" y1="269.4" x2="133.7" y2="282.7" stroke="#2471a3"/><rect x="131.5" y="274.6" width="4.4" height="7.0" fill="#2471a3"/><rect x="131.5" y="433.0" width="4.4" height="4.4" fill="#2471a3"/><line x1="141.0" y1="275.1" x2="141.0" y2="299.4" stroke="#2471a3"/><rect x="138.8" y="280.1" width="4.4" height="9.6" fill="#2471a3"/><rect x="138.8" y="433.0" width="4.4" height="4.4" fill="#2471a3"/><line x1="148.3" y1="291.7" x2="148.3" y2="316.9" stroke="#2471a3"/><rect x="146.1" y="293.2" width="4.4" height="21.7" fill="#2471a3"/><rect x="146.1" y="431.9" width="4.4" height="4.4" fill="#2471a3"/><line x1="155.7" y1="302.9" x2="155.7" y2="315.8" stroke="#c0392b"/><rect x="153.5" y="303.8" width="4.4" height="12.0" fill="#c0392b"/><rect x="153.5" y="433.0" width="4.4" height="4.4" fill="#c0392b"/><line x1="163.0" y1="293.9" x2="163.0" y2="305.9" stroke="#c0392b"/><rect x="160.8" y="294.1" width="4.4" height="11.8" fill="#c0392b"/><rect x="160.8" y="433.0" width="4.4" height="4.4" fill="#c0392b"/><line x1="170.3" y1="287.1" x2="170.3" y2="295.2" stroke="#2471a3"/><rect x="168.1" y="289.3" width="4.4" height="4.6" fill="#2471a3"/><rect x="168.1" y="433.0" width="4.4" height="4.4" fill="#2471a3"/><line x1="177.7" y1="289.7" x2="177.7" y2="295.7" stroke="#c0392b"/><rect x="175.5" y="292.6" width="4.4" height="3.1" fill="#c0392b"/><rect x="175.5" y="433.0" width="4.4" height="4.4" fill="#c0392b"/><line x1="185.0" y1="282.7" x2="185.0" y2="292.4" stroke="#c0392b"/><rect x="182.8" y="282.7" width="4.4" height="9.6" fill="#c0392b"/><rect x="182.8" y="433.0" width="4.4" height="4.4" fill="#c0392b"/><line x1="192.3" y1="282.5" x2="192.3" y2="297.4" stroke="#2471a3"/><rect x="190.1" y="282.7" width="4.4" height="4.2" fill="#2471a3"/><rect x="190.1" y="433.0" width="4.4" height="4.4" fill="#2471a3"/><line x1="199.7" y1="283.0" x2="199.7" y2="293.5" stroke="#c0392b"/><rect x="197.5" y="286.5" width="4.4" height="1.0" fill="#c0392b"/><rect x="197.5" y="433.0" width="4.4" height="4.4" fill="#c0392b"/><line x1="207.0" y1="286.7" x2="207.0" y2="295.4" stroke="#2471a3"/><rect x="204.8" y="290.8" width="4.4" height="2.6" fill="#2471a3"/><rect x="204.8" y="433.0" width="4.4" height="4.4" fill="#2471a3"/><line x1="214.3" y1="289.3" x2="214.3" y2="303.5" stroke="#2471a3"/><rect x="212.1" y="292.2" width="4.4" height="5.7" fill="#2471a3"/><rect x="212.1" y="433.0" width="4.4" height="4.4" fill="#2471a3"/><line x1="221.7" y1="293.0" x2="221.7" y2="299.6" stroke="#c0392b"/><rect x="219.5" y="295.2" width="4.4" height="1.8" fill="#c0392b"/><rect x="219.5" y="433.0" width="4.4" height="4.4" fill="#c0392b"/><line x1="229.0" y1="290.8" x2="229.0" y2="298.7" stroke="#c0392b"/><rect x="226.8" y="292.4" width="4.4" height="2.8" fill="#c0392b"/><rect x="226.8" y="433.0" width="4.4" height="4.4" fill="#c0392b"/><line x1="236.3" y1="289.5" x2="236.3" y2="295.0" stroke="#2471a3"/><rect x="234.1" y="291.3" width="4.4" height="1.5" fill="#2471a3"/><rect x="234.1" y="433.0" width="4.4" height="4.4" fill="#2471a3"/><line x1="243.7" y1="292.2" x2="243.7" y2="304.0" stroke="#2471a3"/><rect x="241.5" y="292.2" width="4.4" height="8.8" fill="#2471a3"/><rect x="241.5" y="433.0" width="4.4" height="4.4" fill="#2471a3"/><line x1="251.0" y1="286.9" x2="251.0" y2="305.9" stroke="#c0392b"/><rect x="248.8" y="299.8" width="4.4" height="4.4" fill="#c0392b"/><rect x="248.8" y="432.1" width="4.4" height="4.4" fill="#c0392b"/><line x1="258.3" y1="297.8" x2="258.3" y2="303.3" stroke="#2471a3"/><rect x="256.1" y="299.4" width="4.4" height="1.8" fill="#2471a3"/><rect x="256.1" y="433.0" width="4.4" height="4.4" fill="#2471a3"/><line x1="265.7" y1="294.3" x2="265.7" y2="301.8" stroke="#c0392b"/><rect x="263.5" y="295.2" width="4.4" height="5.9" fill="#c0392b"/><rect x="263.5" y="433.0" width="4.4" height="4.4" fill="#c0392b"/><line x1="273.0" y1="284.5" x2="273.0" y2="293.9" stroke="#c0392b"/><rect x="270.8" y="287.3" width="4.4" height="5.9" fill="#c0392b"/><rect x="270.8" y="432.7" width="4.4" height="4.4" fill="#c0392b"/><line x1="280.3" y1="286.0" x2="280.3" y2="291.5" stroke="#2471a3"/><rect x="278.1" y="287.3" width="4.4" height="1.5" fill="#2471a3"/><rect x="278.1" y="433.0" width="4.4" height="4.4" fill="#2471a3"/><line x1="287.7" y1="285.6" x2="287.7" y2="291.1" stroke="#c0392b"/><rect x="285.5" y="288.9" width="4.4" height="1.0" fill="#c0392b"/><rect x="285.5" y="433.0" width="4.4" height="4.4" fill="#c0392b"/><line x1="295.0" y1="285.8" x2="295.0" y2="290.6" stroke="#c0392b"/><rect x="292.8" y="288.7" width="4.4" height="1.0" fill="#c0392b"/><rect x="292.8" y="433.0" width="4.4" height="4.4" fill="#c0392b"/><line x1="302.3" y1="287.3" x2="302.3" y2="291.9" stroke="#2471a3"/><rect x="300.1" y="288.7" width="4.4" height="1.0" fill="#2471a3"/><rect x="300.1" y="433.0" width="4.4" height="4.4" fill="#2471a3"/><line x1="309.7" y1="286.9" x2="309.7" y2="299.2" stroke="#2471a3"/><rect x="307.5" y="288.7" width="4.4" height="8.3" fill="#2471a3"/><rect x="307.5" y="433.0" width="4.4" height="4.4" fill="#2471a3"/><line x1="317.0" y1="287.3" x2="317.0" y2="298.1" stroke="#c0392b"/><rect x="314.8" y="291.5" width="4.4" height="5.9" fill="#c0392b"/><rect x="314.8" y="432.9" width="4.4" height="4.4" fill="#c0392b"/><line x1="324.3" y1="289.5" x2="324.3" y2="301.1" stroke="#2471a3"/><rect x="322.1" y="289.5" width="4.4" height="9.6" fill="#2471a3"/><rect x="322.1" y="433.0" width="4.4" height="4.4" fill="#2471a3"/><line x1="331.7" y1="282.5" x2="331.7" y2="299.6" stroke="#c0392b"/><rect x="329.5" y="293.2" width="4.4" height="4.6" fill="#c0392b"/><rect x="329.5" y="428.2" width="4.4" height="4.4" fill="#c0392b"/><line x1="339.0" y1="290.8" x2="339.0" y2="295.0" stroke="#c0392b"/><rect x="336.8" y="291.5" width="4.4" height="2.2" fill="#c0392b"/><rect x="336.8" y="433.0" width="4.4" height="4.4" fill="#c0392b"/><line x1="346.3" y1="290.0" x2="346.3" y2="296.1" stroke="#2471a3"/><rect x="344.1" y="291.1" width="4.4" height="4.6" fill="#2471a3"/><rect x="344.1" y="433.0" width="4.4" height="4.4" fill="#2471a3"/><line x1="353.7" y1="293.0" x2="353.7" y2="303.1" stroke="#2471a3"/><rect x="351.5" y="296.3" width="4.4" height="4.6" fill="#2471a3"/><rect x="351.5" y="433.0" width="4.4" height="4.4" fill="#2471a3"/><line x1="361.0" y1="293.2" x2="361.0" y2="300.5" stroke="#c0392b"/><rect x="358.8" y="295.7" width="4.4" height="4.8" fill="#c0392b"/><rect x="358.8" y="433.0" width="4.4" height="4.4" fill="#c0392b"/><line x1="368.3" y1="294.3" x2="368.3" y2="304.0" stroke="#2471a3"/><rect x="366.1" y="294.3" width="4.4" height="9.6" fill="#2471a3"/><rect x="366.1" y="433.0" width="4.4" height="4.4" fill="#2471a3"/><line x1="375.7" y1="300.9" x2="375.7" y2="307.3" stroke="#2471a3"/><rect x="373.5" y="302.4" width="4.4" height="3.3" fill="#2471a3"/><rect x="373.5" y="433.0" width="4.4" height="4.4" fill="#2471a3"/><line x1="383.0" y1="302.2" x2="383.0" y2="307.0" stroke="#c0392b"/><rect x="380.8" y="303.8" width="4.4" height="2.0" fill="#c0392b"/><rect x="380.8" y="433.0" width="4.4" height="4.4" fill="#c0392b"/><line x1="390.3" y1="304.8" x2="390.3" y2="313.8" stroke="#2471a3"/><rect x="388.1" y="304.8" width="4.4" height="4.6" fill="#2471a3"/><rect x="388.1" y="433.0" width="4.4" height="4.4" fill="#2471a3"/><line x1="397.7" y1="256.7" x2="397.7" y2="309.0" stroke="#c0392b"/><rect x="395.5" y="256.7" width="4.4" height="52.3" fill="#c0392b"/><rect x="395.5" y="410.9" width="4.4" height="4.4" fill="#c0392b"/><line x1="405.0" y1="209.8" x2="405.0" y2="245.7" stroke="#c0392b"/><rect x="402.8" y="235.2" width="4.4" height="3.9" fill="#c0392b"/><rect x="402.8" y="372.2" width="4.4" height="4.4" fill="#c0392b"/><line x1="412.3" y1="218.6" x2="412.3" y2="233.9" stroke="#c0392b"/><rect x="410.1" y="223.9" width="4.4" height="7.9" fill="#c0392b"/><rect x="410.1" y="412.3" width="4.4" height="4.4" fill="#c0392b"/><line x1="419.7" y1="219.0" x2="419.7" y2="233.1" stroke="#c0392b"/><rect x="417.5" y="219.9" width="4.4" height="6.1" fill="#c0392b"/><rect x="417.5" y="424.7" width="4.4" height="4.4" fill="#c0392b"/><line x1="427.0" y1="198.9" x2="427.0" y2="227.8" stroke="#2471a3"/><rect x="424.8" y="219.5" width="4.4" height="6.6" fill="#2471a3"/><rect x="424.8" y="414.3" width="4.4" height="4.4" fill="#2471a3"/><line x1="434.3" y1="220.8" x2="434.3" y2="240.1" stroke="#2471a3"/><rect x="432.1" y="223.0" width="4.4" height="13.6" fill="#2471a3"/><rect x="432.1" y="429.7" width="4.4" height="4.4" fill="#2471a3"/><line x1="441.7" y1="231.7" x2="441.7" y2="243.1" stroke="#2471a3"/><rect x="439.5" y="231.7" width="4.4" height="5.7" fill="#2471a3"/><rect x="439.5" y="431.7" width="4.4" height="4.4" fill="#2471a3"/><line x1="449.0" y1="233.9" x2="449.0" y2="244.0" stroke="#2471a3"/><rect x="446.8" y="237.0" width="4.4" height="1.3" fill="#2471a3"/><rect x="446.8" y="432.2" width="4.4" height="4.4" fill="#2471a3"/><line x1="456.3" y1="241.8" x2="456.3" y2="256.3" stroke="#2471a3"/><rect x="454.1" y="241.8" width="4.4" height="12.7" fill="#2471a3"/><rect x="454.1" y="431.3" width="4.4" height="4.4" fill="#2471a3"/><line x1="463.7" y1="214.7" x2="463.7" y2="254.5" stroke="#c0392b"/><rect x="461.5" y="224.7" width="4.4" height="29.8" fill="#c0392b"/><rect x="461.5" y="408.5" width="4.4" height="4.4" fill="#c0392b"/><line x1="471.0" y1="213.4" x2="471.0" y2="230.4" stroke="#c0392b"/><rect x="468.8" y="222.1" width="4.4" height="2.6" fill="#c0392b"/><rect x="468.8" y="425.8" width="4.4" height="4.4" fill="#c0392b"/><line x1="478.3" y1="197.2" x2="478.3" y2="227.4" stroke="#c0392b"/><rect x="476.1" y="210.7" width="4.4" height="7.9" fill="#c0392b"/><rect x="476.1" y="406.5" width="4.4" height="4.4" fill="#c0392b"/><line x1="485.7" y1="153.8" x2="485.7" y2="209.4" stroke="#c0392b"/><rect x="483.5" y="203.3" width="4.4" height="1.3" fill="#c0392b"/><rect x="483.5" y="366.0" width="4.4" height="4.4" fill="#c0392b"/><line x1="493.0" y1="190.6" x2="493.0" y2="208.5" stroke="#c0392b"/><rect x="490.8" y="202.4" width="4.4" height="4.4" fill="#c0392b"/><rect x="490.8" y="427.0" width="4.4" height="4.4" fill="#c0392b"/><line x1="500.3" y1="206.3" x2="500.3" y2="219.9" stroke="#2471a3"/><rect x="498.1" y="207.2" width="4.4" height="10.5" fill="#2471a3"/><rect x="498.1" y="431.1" width="4.4" height="4.4" fill="#2471a3"/><line x1="507.7" y1="216.4" x2="507.7" y2="227.4" stroke="#2471a3"/><rect x="505.5" y="223.0" width="4.4" height="3.5" fill="#2471a3"/><rect x="505.5" y="432.1" width="4.4" height="4.4" fill="#2471a3"/><line x1="515.0" y1="225.6" x2="515.0" y2="233.9" stroke="#c0392b"/><rect x="512.8" y="230.0" width="4.4" height="1.3" fill="#c0392b"/><rect x="512.8" y="432.5" width="4.4" height="4.4" fill="#c0392b"/><line x1="522.3" y1="221.7" x2="522.3" y2="243.6" stroke="#2471a3"/><rect x="520.1" y="230.0" width="4.4" height="4.8" fill="#2471a3"/><rect x="520.1" y="432.1" width="4.4" height="4.4" fill="#2471a3"/><line x1="529.7" y1="197.2" x2="529.7" y2="252.8" stroke="#c0392b"/><rect x="527.5" y="220.8" width="4.4" height="23.2" fill="#c0392b"/><rect x="527.5" y="405.2" width="4.4" height="4.4" fill="#c0392b"/><line x1="537.0" y1="225.2" x2="537.0" y2="242.2" stroke="#2471a3"/><rect x="534.8" y="225.2" width="4.4" height="14.9" fill="#2471a3"/><rect x="534.8" y="431.0" width="4.4" height="4.4" fill="#2471a3"/><line x1="544.3" y1="233.1" x2="544.3" y2="251.0" stroke="#c0392b"/><rect x="542.1" y="242.7" width="4.4" height="1.8" fill="#c0392b"/><rect x="542.1" y="431.8" width="4.4" height="4.4" fill="#c0392b"/><line x1="551.7" y1="226.5" x2="551.7" y2="251.9" stroke="#2471a3"/><rect x="549.5" y="237.9" width="4.4" height="14.0" fill="#2471a3"/><rect x="549.5" y="430.5" width="4.4" height="4.4" fill="#2471a3"/><line x1="559.0" y1="245.7" x2="559.0" y2="258.4" stroke="#c0392b"/><rect x="556.8" y="250.6" width="4.4" height="7.0" fill="#c0392b"/><rect x="556.8" y="432.6" width="4.4" height="4.4" fill="#c0392b"/><line x1="566.3" y1="250.6" x2="566.3" y2="257.6" stroke="#2471a3"/><rect x="564.1" y="254.5" width="4.4" height="2.6" fill="#2471a3"/><rect x="564.1" y="433.0" width="4.4" height="4.4" fill="#2471a3"/><line x1="573.7" y1="254.5" x2="573.7" y2="268.3" stroke="#c0392b"/><rect x="571.5" y="255.8" width="4.4" height="8.8" fill="#c0392b"/><rect x="571.5" y="433.0" width="4.4" height="4.4" fill="#c0392b"/><line x1="581.0" y1="252.3" x2="581.0" y2="259.8" stroke="#c0392b"/><rect x="578.8" y="254.5" width="4.4" height="2.2" fill="#c0392b"/><rect x="578.8" y="433.0" width="4.4" height="4.4" fill="#c0392b"/><line x1="588.3" y1="185.3" x2="588.3" y2="252.3" stroke="#c0392b"/><rect x="586.1" y="196.3" width="4.4" height="55.6" fill="#c0392b"/><rect x="586.1" y="361.4" width="4.4" height="4.4" fill="#c0392b"/><line x1="595.7" y1="178.8" x2="595.7" y2="205.5" stroke="#2471a3"/><rect x="593.5" y="196.3" width="4.4" height="7.4" fill="#2471a3"/><rect x="593.5" y="409.0" width="4.4" height="4.4" fill="#2471a3"/><line x1="603.0" y1="200.7" x2="603.0" y2="209.4" stroke="#c0392b"/><rect x="600.8" y="201.5" width="4.4" height="3.5" fill="#c0392b"/><rect x="600.8" y="429.3" width="4.4" height="4.4" fill="#c0392b"/><line x1="610.3" y1="163.9" x2="610.3" y2="205.0" stroke="#c0392b"/><rect x="608.1" y="193.7" width="4.4" height="10.9" fill="#c0392b"/><rect x="608.1" y="385.0" width="4.4" height="4.4" fill="#c0392b"/><line x1="617.7" y1="191.0" x2="617.7" y2="202.8" stroke="#c0392b"/><rect x="615.5" y="193.7" width="4.4" height="1.3" fill="#c0392b"/><rect x="615.5" y="428.8" width="4.4" height="4.4" fill="#c0392b"/><line x1="625.0" y1="177.0" x2="625.0" y2="214.2" stroke="#2471a3"/><rect x="622.8" y="190.1" width="4.4" height="24.1" fill="#2471a3"/><rect x="622.8" y="423.3" width="4.4" height="4.4" fill="#2471a3"/><line x1="632.3" y1="205.0" x2="632.3" y2="221.7" stroke="#c0392b"/><rect x="630.1" y="216.4" width="4.4" height="1.3" fill="#c0392b"/><rect x="630.1" y="429.7" width="4.4" height="4.4" fill="#c0392b"/><line x1="639.7" y1="198.5" x2="639.7" y2="219.5" stroke="#2471a3"/><rect x="637.5" y="213.8" width="4.4" height="5.3" fill="#2471a3"/><rect x="637.5" y="428.7" width="4.4" height="4.4" fill="#2471a3"/><line x1="647.0" y1="208.1" x2="647.0" y2="221.2" stroke="#c0392b"/><rect x="644.8" y="215.1" width="4.4" height="3.9" fill="#c0392b"/><rect x="644.8" y="431.4" width="4.4" height="4.4" fill="#c0392b"/><line x1="654.3" y1="213.4" x2="654.3" y2="227.4" stroke="#2471a3"/><rect x="652.1" y="215.1" width="4.4" height="8.8" fill="#2471a3"/><rect x="652.1" y="432.4" width="4.4" height="4.4" fill="#2471a3"/><line x1="661.7" y1="221.2" x2="661.7" y2="230.4" stroke="#2471a3"/><rect x="659.5" y="223.9" width="4.4" height="4.4" fill="#2471a3"/><rect x="659.5" y="432.7" width="4.4" height="4.4" fill="#2471a3"/><line x1="669.0" y1="226.9" x2="669.0" y2="240.5" stroke="#2471a3"/><rect x="666.8" y="228.2" width="4.4" height="11.8" fill="#2471a3"/><rect x="666.8" y="432.9" width="4.4" height="4.4" fill="#2471a3"/><line x1="676.3" y1="234.8" x2="676.3" y2="262.4" stroke="#2471a3"/><rect x="674.1" y="244.4" width="4.4" height="17.9" fill="#2471a3"/><rect x="674.1" y="432.0" width="4.4" height="4.4" fill="#2471a3"/><line x1="683.7" y1="247.1" x2="683.7" y2="259.8" stroke="#c0392b"/><rect x="681.5" y="256.3" width="4.4" height="3.5" fill="#c0392b"/><rect x="681.5" y="432.7" width="4.4" height="4.4" fill="#c0392b"/><line x1="691.0" y1="240.1" x2="691.0" y2="259.3" stroke="#c0392b"/><rect x="688.8" y="252.3" width="4.4" height="2.6" fill="#c0392b"/><rect x="688.8" y="431.4" width="4.4" height="4.4" fill="#c0392b"/><line x1="698.3" y1="251.0" x2="698.3" y2="265.4" stroke="#c0392b"/><rect x="696.1" y="260.2" width="4.4" height="1.8" fill="#c0392b"/><rect x="696.1" y="432.9" width="4.4" height="4.4" fill="#c0392b"/><line x1="705.7" y1="251.9" x2="705.7" y2="265.9" stroke="#c0392b"/><rect x="703.5" y="254.9" width="4.4" height="10.9" fill="#c0392b"/><rect x="703.5" y="432.6" width="4.4" height="4.4" fill="#c0392b"/><line x1="713.0" y1="259.3" x2="713.0" y2="275.5" stroke="#2471a3"/><rect x="710.8" y="260.2" width="4.4" height="14.0" fill="#2471a3"/><rect x="710.8" y="432.3" width="4.4" height="4.4" fill="#2471a3"/><line x1="720.3" y1="251.9" x2="720.3" y2="270.0" stroke="#c0392b"/><rect x="718.1" y="267.6" width="4.4" height="2.4" fill="#c0392b"/><rect x="718.1" y="431.5" width="4.4" height="4.4" fill="#c0392b"/><line x1="727.7" y1="262.4" x2="727.7" y2="279.0" stroke="#2471a3"/><rect x="725.5" y="270.0" width="4.4" height="5.7" fill="#2471a3"/><rect x="725.5" y="432.6" width="4.4" height="4.4" fill="#2471a3"/><line x1="735.0" y1="261.9" x2="735.0" y2="269.0" stroke="#2471a3"/><rect x="732.8" y="263.3" width="4.4" height="1.3" fill="#2471a3"/><rect x="732.8" y="433.0" width="4.4" height="4.4" fill="#2471a3"/><line x1="742.3" y1="218.6" x2="742.3" y2="269.0" stroke="#c0392b"/><rect x="740.1" y="231.7" width="4.4" height="35.7" fill="#c0392b"/><rect x="740.1" y="416.4" width="4.4" height="4.4" fill="#c0392b"/><line x1="749.7" y1="157.3" x2="749.7" y2="218.2" stroke="#c0392b"/><rect x="747.5" y="168.7" width="4.4" height="40.3" fill="#c0392b"/><rect x="747.5" y="359.0" width="4.4" height="4.4" fill="#c0392b"/><line x1="757.0" y1="147.7" x2="757.0" y2="179.6" stroke="#2471a3"/><rect x="754.8" y="170.4" width="4.4" height="9.2" fill="#2471a3"/><rect x="754.8" y="411.5" width="4.4" height="4.4" fill="#2471a3"/><line x1="764.3" y1="113.5" x2="764.3" y2="162.1" stroke="#2471a3"/><rect x="762.1" y="149.4" width="4.4" height="12.3" fill="#2471a3"/><rect x="762.1" y="361.2" width="4.4" height="4.4" fill="#2471a3"/><line x1="771.7" y1="102.6" x2="771.7" y2="168.3" stroke="#c0392b"/><rect x="769.5" y="122.7" width="4.4" height="40.7" fill="#c0392b"/><rect x="769.5" y="346.3" width="4.4" height="4.4" fill="#c0392b"/><line x1="779.0" y1="97.8" x2="779.0" y2="141.1" stroke="#2471a3"/><rect x="776.8" y="132.8" width="4.4" height="8.3" fill="#2471a3"/><rect x="776.8" y="408.3" width="4.4" height="4.4" fill="#2471a3"/><line x1="786.3" y1="55.7" x2="786.3" y2="145.5" stroke="#c0392b"/><rect x="784.1" y="96.9" width="4.4" height="47.7" fill="#c0392b"/><rect x="784.1" y="344.0" width="4.4" height="4.4" fill="#c0392b"/><line x1="793.7" y1="39.1" x2="793.7" y2="119.2" stroke="#2471a3"/><rect x="791.5" y="96.5" width="4.4" height="14.9" fill="#2471a3"/><rect x="791.5" y="392.8" width="4.4" height="4.4" fill="#2471a3"/><line x1="801.0" y1="98.7" x2="801.0" y2="143.7" stroke="#2471a3"/><rect x="798.8" y="99.1" width="4.4" height="44.7" fill="#2471a3"/><rect x="798.8" y="425.7" width="4.4" height="4.4" fill="#2471a3"/><line x1="808.3" y1="110.5" x2="808.3" y2="147.2" stroke="#c0392b"/><rect x="806.1" y="140.7" width="4.4" height="1.8" fill="#c0392b"/><rect x="806.1" y="422.1" width="4.4" height="4.4" fill="#c0392b"/><line x1="815.7" y1="114.8" x2="815.7" y2="144.2" stroke="#c0392b"/><rect x="813.5" y="137.2" width="4.4" height="7.0" fill="#c0392b"/><rect x="813.5" y="424.0" width="4.4" height="4.4" fill="#c0392b"/><line x1="823.0" y1="127.5" x2="823.0" y2="152.1" stroke="#2471a3"/><rect x="820.8" y="135.0" width="4.4" height="15.3" fill="#2471a3"/><rect x="820.8" y="430.5" width="4.4" height="4.4" fill="#2471a3"/><line x1="830.3" y1="131.9" x2="830.3" y2="162.6" stroke="#c0392b"/><rect x="828.1" y="149.4" width="4.4" height="1.3" fill="#c0392b"/><rect x="828.1" y="429.1" width="4.4" height="4.4" fill="#c0392b"/><line x1="837.7" y1="141.1" x2="837.7" y2="161.7" stroke="#2471a3"/><rect x="835.5" y="149.4" width="4.4" height="5.7" fill="#2471a3"/><rect x="835.5" y="431.8" width="4.4" height="4.4" fill="#2471a3"/><line x1="845.0" y1="162.1" x2="845.0" y2="181.4" stroke="#c0392b"/><rect x="842.8" y="168.3" width="4.4" height="1.3" fill="#c0392b"/><rect x="842.8" y="431.9" width="4.4" height="4.4" fill="#c0392b"/><line x1="852.3" y1="133.2" x2="852.3" y2="170.9" stroke="#c0392b"/><rect x="850.1" y="145.5" width="4.4" height="24.1" fill="#c0392b"/><rect x="850.1" y="425.3" width="4.4" height="4.4" fill="#c0392b"/><line x1="859.7" y1="101.7" x2="859.7" y2="145.1" stroke="#c0392b"/><rect x="857.5" y="128.0" width="4.4" height="8.3" fill="#c0392b"/><rect x="857.5" y="408.3" width="4.4" height="4.4" fill="#c0392b"/><line x1="867.0" y1="119.7" x2="867.0" y2="143.3" stroke="#2471a3"/><rect x="864.8" y="128.0" width="4.4" height="3.5" fill="#2471a3"/><rect x="864.8" y="428.4" width="4.4" height="4.4" fill="#2471a3"/><line x1="874.3" y1="104.8" x2="874.3" y2="134.5" stroke="#c0392b"/><rect x="872.1" y="121.9" width="4.4" height="5.3" fill="#c0392b"/><rect x="872.1" y="423.0" width="4.4" height="4.4" fill="#c0392b"/><line x1="881.7" y1="116.6" x2="881.7" y2="139.8" stroke="#2471a3"/><rect x="879.5" y="116.6" width="4.4" height="19.3" fill="#2471a3"/><rect x="879.5" y="430.3" width="4.4" height="4.4" fill="#2471a3"/><line x1="889.0" y1="132.8" x2="889.0" y2="140.7" stroke="#2471a3"/><rect x="886.8" y="135.0" width="4.4" height="3.5" fill="#2471a3"/><rect x="886.8" y="432.2" width="4.4" height="4.4" fill="#2471a3"/><line x1="896.3" y1="109.6" x2="896.3" y2="137.6" stroke="#c0392b"/><rect x="894.1" y="134.1" width="4.4" height="2.6" fill="#c0392b"/><rect x="894.1" y="424.3" width="4.4" height="4.4" fill="#c0392b"/><line x1="903.7" y1="129.7" x2="903.7" y2="161.7" stroke="#2471a3"/><rect x="901.5" y="132.8" width="4.4" height="26.3" fill="#2471a3"/><rect x="901.5" y="431.0" width="4.4" height="4.4" fill="#2471a3"/><line x1="911.0" y1="156.0" x2="911.0" y2="178.8" stroke="#2471a3"/><rect x="908.8" y="159.1" width="4.4" height="19.7" fill="#2471a3"/><rect x="908.8" y="432.4" width="4.4" height="4.4" fill="#2471a3"/><line x1="918.3" y1="163.4" x2="918.3" y2="183.6" stroke="#2471a3"/><rect x="916.1" y="177.9" width="4.4" height="1.0" fill="#2471a3"/><rect x="916.1" y="432.6" width="4.4" height="4.4" fill="#2471a3"/><line x1="925.7" y1="170.4" x2="925.7" y2="180.1" stroke="#c0392b"/><rect x="923.5" y="171.8" width="4.4" height="7.0" fill="#c0392b"/><rect x="923.5" y="432.4" width="4.4" height="4.4" fill="#c0392b"/><line x1="933.0" y1="172.2" x2="933.0" y2="185.8" stroke="#2471a3"/><rect x="930.8" y="174.8" width="4.4" height="10.5" fill="#2471a3"/><rect x="930.8" y="432.9" width="4.4" height="4.4" fill="#2471a3"/><line x1="940.3" y1="179.6" x2="940.3" y2="193.7" stroke="#2471a3"/><rect x="938.1" y="185.3" width="4.4" height="6.1" fill="#2471a3"/><rect x="938.1" y="432.9" width="4.4" height="4.4" fill="#2471a3"/><polyline fill="none" stroke="#e67e22" stroke-width="1.4" points="67.7,229.7 75.0,232.3 82.3,234.7 89.7,237.1 97.0,239.9 104.3,243.2 111.7,247.6 119.0,251.4 126.3,254.8 133.7,257.8 141.0,261.6 148.3,265.5 155.7,268.8 163.0,270.9 170.3,272.7 177.7,274.2 185.0,275.2 192.3,276.6 199.7,277.9 207.0,279.3 214.3,281.1 221.7,283.1 229.0,285.0 236.3,287.0 243.7,289.1 251.0,290.9 258.3,292.1 265.7,293.5 273.0,294.1 280.3,294.5 287.7,294.5 295.0,293.1 302.3,292.4 309.7,292.5 317.0,292.4 324.3,292.8 331.7,293.3 339.0,293.5 346.3,294.0 353.7,294.3 361.0,294.2 368.3,294.7 375.7,295.3 383.0,295.9 390.3,296.3 397.7,294.2 405.0,290.9 412.3,287.3 419.7,283.9 427.0,280.8 434.3,278.2 441.7,275.6 449.0,273.1 456.3,271.0 463.7,267.6 471.0,263.8 478.3,259.6 485.7,255.2 493.0,250.6 500.3,246.4 507.7,242.9 515.0,239.2 522.3,235.7 529.7,231.6 537.0,228.1 544.3,227.4 551.7,228.2 559.0,229.5 566.3,231.4 573.7,232.9 581.0,233.8 588.3,231.7 595.7,230.0 603.0,227.4 610.3,225.8 617.7,224.4 625.0,224.6 632.3,225.2 639.7,226.0 647.0,225.9 654.3,225.8 661.7,225.7 669.0,226.0 676.3,228.0 683.7,228.8 691.0,229.3 698.3,229.7 705.7,230.0 713.0,230.8 720.3,231.4 727.7,232.5 735.0,235.9 742.3,237.3 749.7,235.6 757.0,234.9 764.3,233.3 771.7,228.8 779.0,225.0 786.3,218.9 793.7,213.7 801.0,209.7 808.3,205.3 815.7,200.2 823.0,194.6 830.3,189.2 837.7,184.4 845.0,179.8 852.3,174.3 859.7,167.0 867.0,160.2 874.3,152.5 881.7,146.1 889.0,141.4 896.3,139.7 903.7,138.6 911.0,139.5 918.3,142.3 925.7,143.8 933.0,148.3 940.3,152.3"/><polyline fill="none" stroke="#8e44ad" stroke-width="1.4" points="67.7,193.2 75.0,194.0 82.3,194.9 89.7,195.8 97.0,196.6 104.3,197.6 111.7,199.0 119.0,200.1 126.3,201.5 133.7,202.9 141.0,204.3 148.3,205.9 155.7,207.2 163.0,208.4 170.3,210.4 177.7,212.9 185.0,215.2 192.3,217.5 199.7,219.9 207.0,222.5 214.3,226.1 221.7,229.2 229.0,232.3 236.3,235.0 243.7,237.7 251.0,240.2 258.3,242.8 265.7,245.2 273.0,247.5 280.3,249.4 287.7,251.4 295.0,253.3 302.3,255.2 309.7,257.1 317.0,258.9 324.3,260.6 331.7,262.3 339.0,263.7 346.3,265.2 353.7,266.8 361.0,268.3 368.3,270.0 375.7,271.7 383.0,273.3 390.3,275.1 397.7,276.1 405.0,276.8 412.3,277.4 419.7,277.6 427.0,277.7 434.3,278.1 441.7,278.1 449.0,278.1 456.3,278.1 463.7,277.6 471.0,276.9 478.3,276.0 485.7,275.1 493.0,274.2 500.3,273.4 507.7,272.8 515.0,272.3 522.3,272.0 529.7,271.5 537.0,271.2 544.3,270.8 551.7,270.4 559.0,270.1 566.3,269.8 573.7,269.4 581.0,268.8 588.3,266.8 595.7,265.2 603.0,263.6 610.3,261.9 617.7,260.3 625.0,259.2 632.3,258.0 639.7,256.9 647.0,255.6 654.3,254.3 661.7,253.2 669.0,252.3 676.3,251.8 683.7,251.1 691.0,250.3 698.3,249.6 705.7,248.9 713.0,248.7 720.3,248.4 727.7,248.1 735.0,247.7 742.3,246.8 749.7,244.7 757.0,242.8 764.3,240.5 771.7,237.7 779.0,235.1 786.3,231.8 793.7,228.7 801.0,226.1 808.3,223.4 815.7,220.6 823.0,218.1 830.3,215.4 837.7,213.7 845.0,212.6 852.3,211.3 859.7,209.7 867.0,208.2 874.3,206.3 881.7,204.6 889.0,202.9 896.3,200.9 903.7,199.8 911.0,199.1 918.3,198.5 925.7,198.0 933.0,197.7 940.3,197.3"/><line x1="940.3" y1="28" x2="940.3" y2="328" stroke="#222" stroke-dasharray="3 3"/><text x="64" y="452" font-size="11" font-family="Malgun Gothic, Apple SD Gothic Neo, Noto Sans CJK KR, sans-serif" fill="#333">빨강 상승 · 파랑 하락 · 주황 MA20 · 보라 MA60(60개 이상이 있을 때) · 점선은 판정일. 거래량은 아래 칸.</text></svg>